<svg width="1440" height="3349" viewBox="0 0 1440 3349" fill="none" xmlns="http://www.w3.org/2000/svg">
<g clip-path="url(#clip0_811_570)">
<rect width="1440" height="3349" fill="black"/>
<path d="M564.5 994.735C563.667 994.235 563 993.485 562.5 992.485C561.833 991.319 561.5 990.235 561.5 989.235V973.985C561.5 971.652 562.667 970.485 565 970.485H729.5C731.833 970.485 733 971.652 733 973.985V985.985C733 988.319 731.833 989.485 729.5 989.485H585.25L644.25 1025.74C645.083 1026.24 645.833 1027.07 646.5 1028.24C647 1029.24 647.25 1030.15 647.25 1030.99V1038.49C647.25 1039.49 647 1040.57 646.5 1041.74C645.833 1042.74 645.083 1043.49 644.25 1043.99L585.25 1080.24H729.5C731.833 1080.24 733 1081.4 733 1083.74V1095.49C733 1097.82 731.833 1098.99 729.5 1098.99H565C562.667 1098.99 561.5 1097.82 561.5 1095.49V1080.24C561.5 1079.4 561.833 1078.49 562.5 1077.49C563 1076.32 563.667 1075.49 564.5 1074.99L624.5 1034.74L564.5 994.735ZM561.5 837.169C561.5 836.169 561.833 835.252 562.5 834.419C563.167 833.419 563.917 832.752 564.75 832.419L651.75 797.669C652.583 797.336 653.667 797.086 655 796.919C656.333 796.586 657.5 796.419 658.5 796.419H729.5C731.833 796.419 733 797.586 733 799.919V811.669C733 814.002 731.833 815.169 729.5 815.169H683.25V905.919H729.5C731.833 905.919 733 907.086 733 909.419V921.419C733 923.752 731.833 924.919 729.5 924.919H658.5C657.5 924.919 656.333 924.836 655 924.669C653.667 924.336 652.583 924.002 651.75 923.669L564.75 888.919C563.917 888.586 563.167 887.919 562.5 886.919C561.833 885.919 561.5 885.002 561.5 884.169V837.169ZM664.5 815.169H658.5L580.5 846.419V874.669L658.5 905.919H664.5V815.169ZM733 740.353C733 741.186 732.667 741.936 732 742.603C731.333 743.436 730.5 743.853 729.5 743.853H565C564 743.853 563.167 743.436 562.5 742.603C561.833 741.936 561.5 741.186 561.5 740.353V627.103C561.5 624.769 562.667 623.603 565 623.603H577C577.833 623.603 578.667 623.936 579.5 624.603C580.167 625.269 580.5 626.103 580.5 627.103V724.853H729.5C731.833 724.853 733 726.019 733 728.353V740.353ZM561.5 488.536C561.5 487.536 561.833 486.619 562.5 485.786C563.167 484.786 563.917 484.119 564.75 483.786L651.75 449.036C652.583 448.703 653.667 448.453 655 448.286C656.333 447.953 657.5 447.786 658.5 447.786H729.5C731.833 447.786 733 448.953 733 451.286V463.036C733 465.369 731.833 466.536 729.5 466.536H683.25V557.286H729.5C731.833 557.286 733 558.453 733 560.786V572.786C733 575.119 731.833 576.286 729.5 576.286H658.5C657.5 576.286 656.333 576.203 655 576.036C653.667 575.703 652.583 575.369 651.75 575.036L564.75 540.286C563.917 539.953 563.167 539.286 562.5 538.286C561.833 537.286 561.5 536.369 561.5 535.536V488.536ZM664.5 466.536H658.5L580.5 497.786V526.036L658.5 557.286H664.5V466.536ZM561.5 309.72C561.5 304.72 562.5 300.053 564.5 295.72C566.333 291.22 568.917 287.303 572.25 283.97C575.583 280.636 579.5 278.053 584 276.22C588.333 274.22 593 273.22 598 273.22H620.25C628.583 273.22 636 275.803 642.5 280.97L647.25 284.72L652 280.97C658.667 275.803 666.083 273.22 674.25 273.22H696.5C701.5 273.22 706.25 274.22 710.75 276.22C715.25 278.053 719.167 280.636 722.5 283.97C725.667 287.303 728.25 291.22 730.25 295.72C732.083 300.053 733 304.72 733 309.72V365.47C733 370.303 732.167 374.803 730.5 378.97C728.667 383.136 726.25 386.886 723.25 390.22C720.25 393.386 716.75 396.053 712.75 398.22C708.583 400.22 704.167 401.386 699.5 401.72H697H685C684.167 401.72 683.417 401.386 682.75 400.72C681.917 400.053 681.5 399.22 681.5 398.22V386.47C681.5 385.47 681.917 384.636 682.75 383.97C683.417 383.303 684.167 382.97 685 382.97H697C701.833 382.803 705.917 381.053 709.25 377.72C712.417 374.386 714 370.303 714 365.47V309.72C714 304.886 712.333 300.803 709 297.47C705.5 293.97 701.333 292.22 696.5 292.22H674.25C669.417 292.22 665.333 293.97 662 297.47C658.5 300.803 656.75 304.886 656.75 309.72V364.22C656.75 365.053 656.417 365.886 655.75 366.72C655.083 367.386 654.25 367.72 653.25 367.72H641.25C640.417 367.72 639.667 367.386 639 366.72C638.167 365.886 637.75 365.053 637.75 364.22V309.72C637.75 304.886 636.083 300.803 632.75 297.47C629.25 293.97 625.083 292.22 620.25 292.22H598C593.167 292.22 589.083 293.97 585.75 297.47C582.25 300.803 580.5 304.886 580.5 309.72V365.47C580.5 370.303 582.167 374.386 585.5 377.72C588.833 381.053 592.917 382.803 597.75 382.97H609.5C611.833 382.97 613 384.136 613 386.47V398.22C613 400.553 611.833 401.72 609.5 401.72H597.75H595.25C590.583 401.386 586.25 400.22 582.25 398.22C578.083 396.053 574.5 393.386 571.5 390.22C568.333 386.886 565.917 383.136 564.25 378.97C562.417 374.803 561.5 370.303 561.5 365.47V309.72ZM565 117.903C562.667 117.903 561.5 116.737 561.5 114.403V102.403C561.5 100.07 562.667 98.9033 565 98.9033H729.5C731.833 98.9033 733 100.07 733 102.403V114.403C733 116.737 731.833 117.903 729.5 117.903H662L730.75 201.153C732.25 202.987 733 205.07 733 207.403V224.153C733 224.987 732.667 225.82 732 226.653C731.333 227.32 730.5 227.653 729.5 227.653H565C564 227.653 563.167 227.32 562.5 226.653C561.833 225.82 561.5 224.987 561.5 224.153V212.153C561.5 209.82 562.667 208.653 565 208.653H711.75L636.75 117.903H565ZM729.5 -56.4131H656.75L656.75 34.3369H729.5C731.833 34.3369 733 35.5036 733 37.8369V49.5869C733 51.9202 731.833 53.0869 729.5 53.0869H565C562.667 53.0869 561.5 51.9202 561.5 49.5869V37.8369C561.5 35.5036 562.667 34.3369 565 34.3369H637.75V-56.4131H565C562.667 -56.4131 561.5 -57.5798 561.5 -59.9131V-71.9131C561.5 -74.2464 562.667 -75.4131 565 -75.4131H729.5C731.833 -75.4131 733 -74.2464 733 -71.9131V-59.9131C733 -57.5798 731.833 -56.4131 729.5 -56.4131Z" fill="#91EF19"/>
<path d="M564.5 2289.74C563.667 2289.24 563 2288.49 562.5 2287.49C561.833 2286.32 561.5 2285.24 561.5 2284.24V2268.99C561.5 2266.65 562.667 2265.49 565 2265.49H729.5C731.833 2265.49 733 2266.65 733 2268.99V2280.99C733 2283.32 731.833 2284.49 729.5 2284.49H585.25L644.25 2320.74C645.083 2321.24 645.833 2322.07 646.5 2323.24C647 2324.24 647.25 2325.15 647.25 2325.99V2333.49C647.25 2334.49 647 2335.57 646.5 2336.74C645.833 2337.74 645.083 2338.49 644.25 2338.99L585.25 2375.24H729.5C731.833 2375.24 733 2376.4 733 2378.74V2390.49C733 2392.82 731.833 2393.99 729.5 2393.99H565C562.667 2393.99 561.5 2392.82 561.5 2390.49V2375.24C561.5 2374.4 561.833 2373.49 562.5 2372.49C563 2371.32 563.667 2370.49 564.5 2369.99L624.5 2329.74L564.5 2289.74ZM561.5 2132.17C561.5 2131.17 561.833 2130.25 562.5 2129.42C563.167 2128.42 563.917 2127.75 564.75 2127.42L651.75 2092.67C652.583 2092.34 653.667 2092.09 655 2091.92C656.333 2091.59 657.5 2091.42 658.5 2091.42H729.5C731.833 2091.42 733 2092.59 733 2094.92V2106.67C733 2109 731.833 2110.17 729.5 2110.17H683.25V2200.92H729.5C731.833 2200.92 733 2202.09 733 2204.42V2216.42C733 2218.75 731.833 2219.92 729.5 2219.92H658.5C657.5 2219.92 656.333 2219.84 655 2219.67C653.667 2219.34 652.583 2219 651.75 2218.67L564.75 2183.92C563.917 2183.59 563.167 2182.92 562.5 2181.92C561.833 2180.92 561.5 2180 561.5 2179.17V2132.17ZM664.5 2110.17H658.5L580.5 2141.42V2169.67L658.5 2200.92H664.5V2110.17ZM733 2035.35C733 2036.19 732.667 2036.94 732 2037.6C731.333 2038.44 730.5 2038.85 729.5 2038.85H565C564 2038.85 563.167 2038.44 562.5 2037.6C561.833 2036.94 561.5 2036.19 561.5 2035.35V1922.1C561.5 1919.77 562.667 1918.6 565 1918.6H577C577.833 1918.6 578.667 1918.94 579.5 1919.6C580.167 1920.27 580.5 1921.1 580.5 1922.1V2019.85H729.5C731.833 2019.85 733 2021.02 733 2023.35V2035.35ZM561.5 1783.54C561.5 1782.54 561.833 1781.62 562.5 1780.79C563.167 1779.79 563.917 1779.12 564.75 1778.79L651.75 1744.04C652.583 1743.7 653.667 1743.45 655 1743.29C656.333 1742.95 657.5 1742.79 658.5 1742.79H729.5C731.833 1742.79 733 1743.95 733 1746.29V1758.04C733 1760.37 731.833 1761.54 729.5 1761.54H683.25V1852.29H729.5C731.833 1852.29 733 1853.45 733 1855.79V1867.79C733 1870.12 731.833 1871.29 729.5 1871.29H658.5C657.5 1871.29 656.333 1871.2 655 1871.04C653.667 1870.7 652.583 1870.37 651.75 1870.04L564.75 1835.29C563.917 1834.95 563.167 1834.29 562.5 1833.29C561.833 1832.29 561.5 1831.37 561.5 1830.54V1783.54ZM664.5 1761.54H658.5L580.5 1792.79V1821.04L658.5 1852.29H664.5V1761.54ZM561.5 1604.72C561.5 1599.72 562.5 1595.05 564.5 1590.72C566.333 1586.22 568.917 1582.3 572.25 1578.97C575.583 1575.64 579.5 1573.05 584 1571.22C588.333 1569.22 593 1568.22 598 1568.22H620.25C628.583 1568.22 636 1570.8 642.5 1575.97L647.25 1579.72L652 1575.97C658.667 1570.8 666.083 1568.22 674.25 1568.22H696.5C701.5 1568.22 706.25 1569.22 710.75 1571.22C715.25 1573.05 719.167 1575.64 722.5 1578.97C725.667 1582.3 728.25 1586.22 730.25 1590.72C732.083 1595.05 733 1599.72 733 1604.72V1660.47C733 1665.3 732.167 1669.8 730.5 1673.97C728.667 1678.14 726.25 1681.89 723.25 1685.22C720.25 1688.39 716.75 1691.05 712.75 1693.22C708.583 1695.22 704.167 1696.39 699.5 1696.72H697H685C684.167 1696.72 683.417 1696.39 682.75 1695.72C681.917 1695.05 681.5 1694.22 681.5 1693.22V1681.47C681.5 1680.47 681.917 1679.64 682.75 1678.97C683.417 1678.3 684.167 1677.97 685 1677.97H697C701.833 1677.8 705.917 1676.05 709.25 1672.72C712.417 1669.39 714 1665.3 714 1660.47V1604.72C714 1599.89 712.333 1595.8 709 1592.47C705.5 1588.97 701.333 1587.22 696.5 1587.22H674.25C669.417 1587.22 665.333 1588.97 662 1592.47C658.5 1595.8 656.75 1599.89 656.75 1604.72V1659.22C656.75 1660.05 656.417 1660.89 655.75 1661.72C655.083 1662.39 654.25 1662.72 653.25 1662.72H641.25C640.417 1662.72 639.667 1662.39 639 1661.72C638.167 1660.89 637.75 1660.05 637.75 1659.22V1604.72C637.75 1599.89 636.083 1595.8 632.75 1592.47C629.25 1588.97 625.083 1587.22 620.25 1587.22H598C593.167 1587.22 589.083 1588.97 585.75 1592.47C582.25 1595.8 580.5 1599.89 580.5 1604.72V1660.47C580.5 1665.3 582.167 1669.39 585.5 1672.72C588.833 1676.05 592.917 1677.8 597.75 1677.97H609.5C611.833 1677.97 613 1679.14 613 1681.47V1693.22C613 1695.55 611.833 1696.72 609.5 1696.72H597.75H595.25C590.583 1696.39 586.25 1695.22 582.25 1693.22C578.083 1691.05 574.5 1688.39 571.5 1685.22C568.333 1681.89 565.917 1678.14 564.25 1673.97C562.417 1669.8 561.5 1665.3 561.5 1660.47V1604.72ZM565 1412.9C562.667 1412.9 561.5 1411.74 561.5 1409.4V1397.4C561.5 1395.07 562.667 1393.9 565 1393.9H729.5C731.833 1393.9 733 1395.07 733 1397.4V1409.4C733 1411.74 731.833 1412.9 729.5 1412.9H662L730.75 1496.15C732.25 1497.99 733 1500.07 733 1502.4V1519.15C733 1519.99 732.667 1520.82 732 1521.65C731.333 1522.32 730.5 1522.65 729.5 1522.65H565C564 1522.65 563.167 1522.32 562.5 1521.65C561.833 1520.82 561.5 1519.99 561.5 1519.15V1507.15C561.5 1504.82 562.667 1503.65 565 1503.65H711.75L636.75 1412.9H565ZM729.5 1238.59H656.75L656.75 1329.34H729.5C731.833 1329.34 733 1330.5 733 1332.84V1344.59C733 1346.92 731.833 1348.09 729.5 1348.09H565C562.667 1348.09 561.5 1346.92 561.5 1344.59V1332.84C561.5 1330.5 562.667 1329.34 565 1329.34H637.75V1238.59H565C562.667 1238.59 561.5 1237.42 561.5 1235.09V1223.09C561.5 1220.75 562.667 1219.59 565 1219.59H729.5C731.833 1219.59 733 1220.75 733 1223.09V1235.09C733 1237.42 731.833 1238.59 729.5 1238.59Z" fill="#91EF19"/>
<path d="M564.5 3584.74C563.667 3584.24 563 3583.49 562.5 3582.49C561.833 3581.32 561.5 3580.24 561.5 3579.24V3563.99C561.5 3561.65 562.667 3560.49 565 3560.49H729.5C731.833 3560.49 733 3561.65 733 3563.99V3575.99C733 3578.32 731.833 3579.49 729.5 3579.49H585.25L644.25 3615.74C645.083 3616.24 645.833 3617.07 646.5 3618.24C647 3619.24 647.25 3620.15 647.25 3620.99V3628.49C647.25 3629.49 647 3630.57 646.5 3631.74C645.833 3632.74 645.083 3633.49 644.25 3633.99L585.25 3670.24H729.5C731.833 3670.24 733 3671.4 733 3673.74V3685.49C733 3687.82 731.833 3688.99 729.5 3688.99H565C562.667 3688.99 561.5 3687.82 561.5 3685.49V3670.24C561.5 3669.4 561.833 3668.49 562.5 3667.49C563 3666.32 563.667 3665.49 564.5 3664.99L624.5 3624.74L564.5 3584.74ZM561.5 3427.17C561.5 3426.17 561.833 3425.25 562.5 3424.42C563.167 3423.42 563.917 3422.75 564.75 3422.42L651.75 3387.67C652.583 3387.34 653.667 3387.09 655 3386.92C656.333 3386.59 657.5 3386.42 658.5 3386.42H729.5C731.833 3386.42 733 3387.59 733 3389.92V3401.67C733 3404 731.833 3405.17 729.5 3405.17H683.25V3495.92H729.5C731.833 3495.92 733 3497.09 733 3499.42V3511.42C733 3513.75 731.833 3514.92 729.5 3514.92H658.5C657.5 3514.92 656.333 3514.84 655 3514.67C653.667 3514.34 652.583 3514 651.75 3513.67L564.75 3478.92C563.917 3478.59 563.167 3477.92 562.5 3476.92C561.833 3475.92 561.5 3475 561.5 3474.17V3427.17ZM664.5 3405.17H658.5L580.5 3436.42V3464.67L658.5 3495.92H664.5V3405.17ZM733 3330.35C733 3331.19 732.667 3331.94 732 3332.6C731.333 3333.44 730.5 3333.85 729.5 3333.85H565C564 3333.85 563.167 3333.44 562.5 3332.6C561.833 3331.94 561.5 3331.19 561.5 3330.35V3217.1C561.5 3214.77 562.667 3213.6 565 3213.6H577C577.833 3213.6 578.667 3213.94 579.5 3214.6C580.167 3215.27 580.5 3216.1 580.5 3217.1V3314.85H729.5C731.833 3314.85 733 3316.02 733 3318.35V3330.35ZM561.5 3078.54C561.5 3077.54 561.833 3076.62 562.5 3075.79C563.167 3074.79 563.917 3074.12 564.75 3073.79L651.75 3039.04C652.583 3038.7 653.667 3038.45 655 3038.29C656.333 3037.95 657.5 3037.79 658.5 3037.79H729.5C731.833 3037.79 733 3038.95 733 3041.29V3053.04C733 3055.37 731.833 3056.54 729.5 3056.54H683.25V3147.29H729.5C731.833 3147.29 733 3148.45 733 3150.79V3162.79C733 3165.12 731.833 3166.29 729.5 3166.29H658.5C657.5 3166.29 656.333 3166.2 655 3166.04C653.667 3165.7 652.583 3165.37 651.75 3165.04L564.75 3130.29C563.917 3129.95 563.167 3129.29 562.5 3128.29C561.833 3127.29 561.5 3126.37 561.5 3125.54V3078.54ZM664.5 3056.54H658.5L580.5 3087.79V3116.04L658.5 3147.29H664.5V3056.54ZM561.5 2899.72C561.5 2894.72 562.5 2890.05 564.5 2885.72C566.333 2881.22 568.917 2877.3 572.25 2873.97C575.583 2870.64 579.5 2868.05 584 2866.22C588.333 2864.22 593 2863.22 598 2863.22H620.25C628.583 2863.22 636 2865.8 642.5 2870.97L647.25 2874.72L652 2870.97C658.667 2865.8 666.083 2863.22 674.25 2863.22H696.5C701.5 2863.22 706.25 2864.22 710.75 2866.22C715.25 2868.05 719.167 2870.64 722.5 2873.97C725.667 2877.3 728.25 2881.22 730.25 2885.72C732.083 2890.05 733 2894.72 733 2899.72V2955.47C733 2960.3 732.167 2964.8 730.5 2968.97C728.667 2973.14 726.25 2976.89 723.25 2980.22C720.25 2983.39 716.75 2986.05 712.75 2988.22C708.583 2990.22 704.167 2991.39 699.5 2991.72H697H685C684.167 2991.72 683.417 2991.39 682.75 2990.72C681.917 2990.05 681.5 2989.22 681.5 2988.22V2976.47C681.5 2975.47 681.917 2974.64 682.75 2973.97C683.417 2973.3 684.167 2972.97 685 2972.97H697C701.833 2972.8 705.917 2971.05 709.25 2967.72C712.417 2964.39 714 2960.3 714 2955.47V2899.72C714 2894.89 712.333 2890.8 709 2887.47C705.5 2883.97 701.333 2882.22 696.5 2882.22H674.25C669.417 2882.22 665.333 2883.97 662 2887.47C658.5 2890.8 656.75 2894.89 656.75 2899.72V2954.22C656.75 2955.05 656.417 2955.89 655.75 2956.72C655.083 2957.39 654.25 2957.72 653.25 2957.72H641.25C640.417 2957.72 639.667 2957.39 639 2956.72C638.167 2955.89 637.75 2955.05 637.75 2954.22V2899.72C637.75 2894.89 636.083 2890.8 632.75 2887.47C629.25 2883.97 625.083 2882.22 620.25 2882.22H598C593.167 2882.22 589.083 2883.97 585.75 2887.47C582.25 2890.8 580.5 2894.89 580.5 2899.72V2955.47C580.5 2960.3 582.167 2964.39 585.5 2967.72C588.833 2971.05 592.917 2972.8 597.75 2972.97H609.5C611.833 2972.97 613 2974.14 613 2976.47V2988.22C613 2990.55 611.833 2991.72 609.5 2991.72H597.75H595.25C590.583 2991.39 586.25 2990.22 582.25 2988.22C578.083 2986.05 574.5 2983.39 571.5 2980.22C568.333 2976.89 565.917 2973.14 564.25 2968.97C562.417 2964.8 561.5 2960.3 561.5 2955.47V2899.72ZM565 2707.9C562.667 2707.9 561.5 2706.74 561.5 2704.4V2692.4C561.5 2690.07 562.667 2688.9 565 2688.9H729.5C731.833 2688.9 733 2690.07 733 2692.4V2704.4C733 2706.74 731.833 2707.9 729.5 2707.9H662L730.75 2791.15C732.25 2792.99 733 2795.07 733 2797.4V2814.15C733 2814.99 732.667 2815.82 732 2816.65C731.333 2817.32 730.5 2817.65 729.5 2817.65H565C564 2817.65 563.167 2817.32 562.5 2816.65C561.833 2815.82 561.5 2814.99 561.5 2814.15V2802.15C561.5 2799.82 562.667 2798.65 565 2798.65H711.75L636.75 2707.9H565ZM729.5 2533.59H656.75L656.75 2624.34H729.5C731.833 2624.34 733 2625.5 733 2627.84V2639.59C733 2641.92 731.833 2643.09 729.5 2643.09H565C562.667 2643.09 561.5 2641.92 561.5 2639.59V2627.84C561.5 2625.5 562.667 2624.34 565 2624.34H637.75V2533.59H565C562.667 2533.59 561.5 2532.42 561.5 2530.09V2518.09C561.5 2515.75 562.667 2514.59 565 2514.59H729.5C731.833 2514.59 733 2515.75 733 2518.09V2530.09C733 2532.42 731.833 2533.59 729.5 2533.59Z" fill="#91EF19"/>
<path opacity="0.4" d="M861.5 970.485C863.833 970.485 865 971.652 865 973.985V985.985C865 988.319 863.833 989.485 861.5 989.485H849.75C844.917 989.652 840.833 991.402 837.5 994.735C834.167 998.069 832.5 1002.15 832.5 1006.99V1062.74C832.5 1067.57 834.25 1071.74 837.75 1075.24C841.083 1078.57 845.167 1080.24 850 1080.24H948.5C953.333 1080.24 957.5 1078.57 961 1075.24C964.333 1071.74 966 1067.57 966 1062.74V1006.99C966 1002.15 964.417 998.069 961.25 994.735C957.917 991.402 953.833 989.652 949 989.485H937C936.167 989.485 935.417 989.152 934.75 988.485C933.917 987.819 933.5 986.985 933.5 985.985V973.985C933.5 972.985 933.917 972.152 934.75 971.485C935.417 970.819 936.167 970.485 937 970.485H949C954 970.485 958.667 971.485 963 973.485C967.333 975.485 971.167 978.152 974.5 981.485C977.667 984.652 980.25 988.485 982.25 992.985C984.083 997.319 985 1001.99 985 1006.99V1062.74C985 1067.74 984.083 1072.49 982.25 1076.99C980.25 1081.32 977.667 1085.15 974.5 1088.49C971.167 1091.65 967.25 1094.24 962.75 1096.24C958.25 1098.07 953.5 1098.99 948.5 1098.99H850C845 1098.99 840.333 1098.07 836 1096.24C831.5 1094.24 827.583 1091.65 824.25 1088.49C820.917 1085.15 818.333 1081.32 816.5 1076.99C814.5 1072.49 813.5 1067.74 813.5 1062.74V1006.99C813.5 1001.99 814.5 997.319 816.5 992.985C818.333 988.485 820.917 984.652 824.25 981.485C827.417 978.152 831.25 975.485 835.75 973.485C840.083 971.485 844.75 970.485 849.75 970.485H861.5ZM985 888.419C985 893.419 984.083 898.169 982.25 902.669C980.25 907.002 977.667 910.836 974.5 914.169C971.167 917.336 967.25 919.919 962.75 921.919C958.25 923.752 953.5 924.669 948.5 924.669H850C845 924.669 840.333 923.752 836 921.919C831.5 919.919 827.583 917.336 824.25 914.169C820.917 910.836 818.333 907.002 816.5 902.669C814.5 898.169 813.5 893.419 813.5 888.419V832.669C813.5 827.669 814.5 823.002 816.5 818.669C818.333 814.169 820.917 810.252 824.25 806.919C827.583 803.586 831.5 801.002 836 799.169C840.333 797.169 845 796.169 850 796.169H948.5C953.5 796.169 958.25 797.169 962.75 799.169C967.25 801.002 971.167 803.586 974.5 806.919C977.667 810.252 980.25 814.169 982.25 818.669C984.083 823.002 985 827.669 985 832.669V888.419ZM832.5 888.419C832.5 893.252 834.25 897.419 837.75 900.919C841.083 904.252 845.167 905.919 850 905.919H948.5C953.333 905.919 957.5 904.252 961 900.919C964.333 897.419 966 893.252 966 888.419V832.669C966 827.836 964.333 823.752 961 820.419C957.5 816.919 953.333 815.169 948.5 815.169H850C845.167 815.169 841.083 816.919 837.75 820.419C834.25 823.752 832.5 827.836 832.5 832.669V888.419ZM926.25 640.853C921.417 640.853 917.333 642.603 914 646.103C910.5 649.436 908.75 653.519 908.75 658.353V731.603H966V658.353C966 653.519 964.333 649.436 961 646.103C957.5 642.603 953.333 640.853 948.5 640.853H926.25ZM900.5 632.603C903.667 629.269 907.5 626.686 912 624.853C916.5 622.853 921.25 621.853 926.25 621.853H948.5C953.5 621.853 958.167 622.853 962.5 624.853C967 626.686 970.917 629.269 974.25 632.603C977.583 635.936 980.25 639.853 982.25 644.353C984.083 648.686 985 653.353 985 658.353V747.103C985 747.936 984.667 748.769 984 749.603C983.333 750.269 982.5 750.603 981.5 750.603H817C816 750.603 815.167 750.269 814.5 749.603C813.833 748.769 813.5 747.936 813.5 747.103V634.353C813.5 633.353 813.833 632.519 814.5 631.853C815.333 631.186 816.167 630.853 817 630.853H829C831.333 630.853 832.5 632.019 832.5 634.353V731.603H889.75V658.353C889.75 653.353 890.75 648.686 892.75 644.353C894.583 639.853 897.167 635.936 900.5 632.603ZM926.25 502.78C921.417 502.78 917.25 504.53 913.75 508.03C910.417 511.364 908.75 515.447 908.75 520.28V557.53H966V520.28C966 515.447 964.25 511.364 960.75 508.03C957.417 504.53 953.333 502.78 948.5 502.78H926.25ZM892.5 506.28C894.5 501.78 897.083 497.864 900.25 494.53C903.583 491.364 907.5 488.78 912 486.78C916.5 484.78 921.25 483.78 926.25 483.78H948.5C953.5 483.78 958.167 484.78 962.5 486.78C967 488.78 970.917 491.364 974.25 494.53C977.583 497.864 980.167 501.78 982 506.28C984 510.614 985 515.28 985 520.28V573.03C985 573.864 984.667 574.697 984 575.53C983.333 576.197 982.5 576.53 981.5 576.53H817C816 576.53 815.167 576.197 814.5 575.53C813.833 574.697 813.5 573.864 813.5 573.03V561.03C813.5 558.697 814.667 557.53 817 557.53H889.75V520.28C889.75 515.28 890.667 510.614 892.5 506.28ZM813.5 451.28C813.5 448.947 814.667 447.78 817 447.78H981.5C982.5 447.78 983.333 448.197 984 449.03C984.667 449.697 985 450.447 985 451.28V463.28C985 465.614 983.833 466.78 981.5 466.78H817C816 466.78 815.167 466.447 814.5 465.78C813.833 464.947 813.5 464.114 813.5 463.28V451.28ZM981.5 347.214H832.5V398.464C832.5 400.797 831.333 401.964 829 401.964H817C814.667 401.964 813.5 400.797 813.5 398.464V276.964C813.5 274.631 814.667 273.464 817 273.464H829C831.333 273.464 832.5 274.631 832.5 276.964V328.214H981.5C982.5 328.214 983.333 328.631 984 329.464C984.667 330.131 985 330.881 985 331.714V343.714C985 346.047 983.833 347.214 981.5 347.214ZM817 118.147C814.667 118.147 813.5 116.981 813.5 114.647V102.647C813.5 100.314 814.667 99.1475 817 99.1475H981.5C983.833 99.1475 985 100.314 985 102.647V114.647C985 116.981 983.833 118.147 981.5 118.147H914L982.75 201.397C984.25 203.231 985 205.314 985 207.647V224.397C985 225.231 984.667 226.064 984 226.897C983.333 227.564 982.5 227.897 981.5 227.897H817C816 227.897 815.167 227.564 814.5 226.897C813.833 226.064 813.5 225.231 813.5 224.397V212.397C813.5 210.064 814.667 208.897 817 208.897H963.75L888.75 118.147H817ZM872.25 34.5811C877.083 34.5811 881.167 32.9144 884.5 29.5811C888 26.0811 889.75 21.9144 889.75 17.0811V-56.169H832.5V17.0811C832.5 21.9144 834.167 26.0811 837.5 29.5811C841 32.9144 845.167 34.5811 850 34.5811H872.25ZM907.25 27.0811C904.917 34.9144 900.583 41.3311 894.25 46.3311C887.75 51.1644 880.417 53.5811 872.25 53.5811H850C845 53.5811 840.25 52.6644 835.75 50.8311C831.417 48.8311 827.583 46.1644 824.25 42.8311C820.917 39.4977 818.25 35.5811 816.25 31.0811C814.417 26.7477 813.5 22.0811 813.5 17.0811V-71.419C813.5 -73.7523 814.667 -74.919 817 -74.919H981.5C983.833 -74.919 985 -73.7523 985 -71.419V-59.669C985 -57.3356 983.833 -56.169 981.5 -56.169H908.75L908.75 -2.66895L981.75 29.8311C982.583 30.1644 983.333 30.8311 984 31.8311C984.667 32.8311 985 33.8311 985 34.8311V48.5811C985 49.5811 984.667 50.3311 984 50.8311C983.333 51.1644 982.583 51.0811 981.75 50.5811L909.75 18.5811L907.25 27.0811Z" fill="#91EF19"/>
<path opacity="0.4" d="M861.5 2265.49C863.833 2265.49 865 2266.65 865 2268.99V2280.99C865 2283.32 863.833 2284.49 861.5 2284.49H849.75C844.917 2284.65 840.833 2286.4 837.5 2289.74C834.167 2293.07 832.5 2297.15 832.5 2301.99V2357.74C832.5 2362.57 834.25 2366.74 837.75 2370.24C841.083 2373.57 845.167 2375.24 850 2375.24H948.5C953.333 2375.24 957.5 2373.57 961 2370.24C964.333 2366.74 966 2362.57 966 2357.74V2301.99C966 2297.15 964.417 2293.07 961.25 2289.74C957.917 2286.4 953.833 2284.65 949 2284.49H937C936.167 2284.49 935.417 2284.15 934.75 2283.49C933.917 2282.82 933.5 2281.99 933.5 2280.99V2268.99C933.5 2267.99 933.917 2267.15 934.75 2266.49C935.417 2265.82 936.167 2265.49 937 2265.49H949C954 2265.49 958.667 2266.49 963 2268.49C967.333 2270.49 971.167 2273.15 974.5 2276.49C977.667 2279.65 980.25 2283.49 982.25 2287.99C984.083 2292.32 985 2296.99 985 2301.99V2357.74C985 2362.74 984.083 2367.49 982.25 2371.99C980.25 2376.32 977.667 2380.15 974.5 2383.49C971.167 2386.65 967.25 2389.24 962.75 2391.24C958.25 2393.07 953.5 2393.99 948.5 2393.99H850C845 2393.99 840.333 2393.07 836 2391.24C831.5 2389.24 827.583 2386.65 824.25 2383.49C820.917 2380.15 818.333 2376.32 816.5 2371.99C814.5 2367.49 813.5 2362.74 813.5 2357.74V2301.99C813.5 2296.99 814.5 2292.32 816.5 2287.99C818.333 2283.49 820.917 2279.65 824.25 2276.49C827.417 2273.15 831.25 2270.49 835.75 2268.49C840.083 2266.49 844.75 2265.49 849.75 2265.49H861.5ZM985 2183.42C985 2188.42 984.083 2193.17 982.25 2197.67C980.25 2202 977.667 2205.84 974.5 2209.17C971.167 2212.34 967.25 2214.92 962.75 2216.92C958.25 2218.75 953.5 2219.67 948.5 2219.67H850C845 2219.67 840.333 2218.75 836 2216.92C831.5 2214.92 827.583 2212.34 824.25 2209.17C820.917 2205.84 818.333 2202 816.5 2197.67C814.5 2193.17 813.5 2188.42 813.5 2183.42V2127.67C813.5 2122.67 814.5 2118 816.5 2113.67C818.333 2109.17 820.917 2105.25 824.25 2101.92C827.583 2098.59 831.5 2096 836 2094.17C840.333 2092.17 845 2091.17 850 2091.17H948.5C953.5 2091.17 958.25 2092.17 962.75 2094.17C967.25 2096 971.167 2098.59 974.5 2101.92C977.667 2105.25 980.25 2109.17 982.25 2113.67C984.083 2118 985 2122.67 985 2127.67V2183.42ZM832.5 2183.42C832.5 2188.25 834.25 2192.42 837.75 2195.92C841.083 2199.25 845.167 2200.92 850 2200.92H948.5C953.333 2200.92 957.5 2199.25 961 2195.92C964.333 2192.42 966 2188.25 966 2183.42V2127.67C966 2122.84 964.333 2118.75 961 2115.42C957.5 2111.92 953.333 2110.17 948.5 2110.17H850C845.167 2110.17 841.083 2111.92 837.75 2115.42C834.25 2118.75 832.5 2122.84 832.5 2127.67V2183.42ZM926.25 1935.85C921.417 1935.85 917.333 1937.6 914 1941.1C910.5 1944.44 908.75 1948.52 908.75 1953.35V2026.6H966V1953.35C966 1948.52 964.333 1944.44 961 1941.1C957.5 1937.6 953.333 1935.85 948.5 1935.85H926.25ZM900.5 1927.6C903.667 1924.27 907.5 1921.69 912 1919.85C916.5 1917.85 921.25 1916.85 926.25 1916.85H948.5C953.5 1916.85 958.167 1917.85 962.5 1919.85C967 1921.69 970.917 1924.27 974.25 1927.6C977.583 1930.94 980.25 1934.85 982.25 1939.35C984.083 1943.69 985 1948.35 985 1953.35V2042.1C985 2042.94 984.667 2043.77 984 2044.6C983.333 2045.27 982.5 2045.6 981.5 2045.6H817C816 2045.6 815.167 2045.27 814.5 2044.6C813.833 2043.77 813.5 2042.94 813.5 2042.1V1929.35C813.5 1928.35 813.833 1927.52 814.5 1926.85C815.333 1926.19 816.167 1925.85 817 1925.85H829C831.333 1925.85 832.5 1927.02 832.5 1929.35V2026.6H889.75V1953.35C889.75 1948.35 890.75 1943.69 892.75 1939.35C894.583 1934.85 897.167 1930.94 900.5 1927.6ZM926.25 1797.78C921.417 1797.78 917.25 1799.53 913.75 1803.03C910.417 1806.36 908.75 1810.45 908.75 1815.28V1852.53H966V1815.28C966 1810.45 964.25 1806.36 960.75 1803.03C957.417 1799.53 953.333 1797.78 948.5 1797.78H926.25ZM892.5 1801.28C894.5 1796.78 897.083 1792.86 900.25 1789.53C903.583 1786.36 907.5 1783.78 912 1781.78C916.5 1779.78 921.25 1778.78 926.25 1778.78H948.5C953.5 1778.78 958.167 1779.78 962.5 1781.78C967 1783.78 970.917 1786.36 974.25 1789.53C977.583 1792.86 980.167 1796.78 982 1801.28C984 1805.61 985 1810.28 985 1815.28V1868.03C985 1868.86 984.667 1869.7 984 1870.53C983.333 1871.2 982.5 1871.53 981.5 1871.53H817C816 1871.53 815.167 1871.2 814.5 1870.53C813.833 1869.7 813.5 1868.86 813.5 1868.03V1856.03C813.5 1853.7 814.667 1852.53 817 1852.53H889.75V1815.28C889.75 1810.28 890.667 1805.61 892.5 1801.28ZM813.5 1746.28C813.5 1743.95 814.667 1742.78 817 1742.78H981.5C982.5 1742.78 983.333 1743.2 984 1744.03C984.667 1744.7 985 1745.45 985 1746.28V1758.28C985 1760.61 983.833 1761.78 981.5 1761.78H817C816 1761.78 815.167 1761.45 814.5 1760.78C813.833 1759.95 813.5 1759.11 813.5 1758.28V1746.28ZM981.5 1642.21H832.5V1693.46C832.5 1695.8 831.333 1696.96 829 1696.96H817C814.667 1696.96 813.5 1695.8 813.5 1693.46V1571.96C813.5 1569.63 814.667 1568.46 817 1568.46H829C831.333 1568.46 832.5 1569.63 832.5 1571.96V1623.21H981.5C982.5 1623.21 983.333 1623.63 984 1624.46C984.667 1625.13 985 1625.88 985 1626.71V1638.71C985 1641.05 983.833 1642.21 981.5 1642.21ZM817 1413.15C814.667 1413.15 813.5 1411.98 813.5 1409.65V1397.65C813.5 1395.31 814.667 1394.15 817 1394.15H981.5C983.833 1394.15 985 1395.31 985 1397.65V1409.65C985 1411.98 983.833 1413.15 981.5 1413.15H914L982.75 1496.4C984.25 1498.23 985 1500.31 985 1502.65V1519.4C985 1520.23 984.667 1521.06 984 1521.9C983.333 1522.56 982.5 1522.9 981.5 1522.9H817C816 1522.9 815.167 1522.56 814.5 1521.9C813.833 1521.06 813.5 1520.23 813.5 1519.4V1507.4C813.5 1505.06 814.667 1503.9 817 1503.9H963.75L888.75 1413.15H817ZM872.25 1329.58C877.083 1329.58 881.167 1327.91 884.5 1324.58C888 1321.08 889.75 1316.91 889.75 1312.08V1238.83H832.5V1312.08C832.5 1316.91 834.167 1321.08 837.5 1324.58C841 1327.91 845.167 1329.58 850 1329.58H872.25ZM907.25 1322.08C904.917 1329.91 900.583 1336.33 894.25 1341.33C887.75 1346.16 880.417 1348.58 872.25 1348.58H850C845 1348.58 840.25 1347.66 835.75 1345.83C831.417 1343.83 827.583 1341.16 824.25 1337.83C820.917 1334.5 818.25 1330.58 816.25 1326.08C814.417 1321.75 813.5 1317.08 813.5 1312.08V1223.58C813.5 1221.25 814.667 1220.08 817 1220.08H981.5C983.833 1220.08 985 1221.25 985 1223.58V1235.33C985 1237.66 983.833 1238.83 981.5 1238.83H908.75L908.75 1292.33L981.75 1324.83C982.583 1325.16 983.333 1325.83 984 1326.83C984.667 1327.83 985 1328.83 985 1329.83V1343.58C985 1344.58 984.667 1345.33 984 1345.83C983.333 1346.16 982.583 1346.08 981.75 1345.58L909.75 1313.58L907.25 1322.08Z" fill="#91EF19"/>
<path opacity="0.4" d="M472.5 989.241H399.75V1079.99H472.5C474.833 1079.99 476 1081.16 476 1083.49V1095.24C476 1097.57 474.833 1098.74 472.5 1098.74H308C305.667 1098.74 304.5 1097.57 304.5 1095.24V1083.49C304.5 1081.16 305.667 1079.99 308 1079.99H380.75V989.241H308C305.667 989.241 304.5 988.075 304.5 985.741V973.741C304.5 971.408 305.667 970.241 308 970.241H472.5C474.833 970.241 476 971.408 476 973.741V985.741C476 988.075 474.833 989.241 472.5 989.241ZM304.5 837.169C304.5 836.169 304.833 835.252 305.5 834.419C306.167 833.419 306.917 832.752 307.75 832.419L394.75 797.669C395.583 797.336 396.667 797.086 398 796.919C399.333 796.586 400.5 796.419 401.5 796.419H472.5C474.833 796.419 476 797.586 476 799.919V811.669C476 814.002 474.833 815.169 472.5 815.169H426.25V905.919H472.5C474.833 905.919 476 907.086 476 909.419V921.419C476 923.752 474.833 924.919 472.5 924.919H401.5C400.5 924.919 399.333 924.836 398 924.669C396.667 924.336 395.583 924.002 394.75 923.669L307.75 888.919C306.917 888.586 306.167 887.919 305.5 886.919C304.833 885.919 304.5 885.002 304.5 884.169V837.169ZM407.5 815.169H401.5L323.5 846.419V874.669L401.5 905.919H407.5V815.169ZM304.5 625.603C304.5 624.769 304.833 623.936 305.5 623.103C306.167 622.436 307 622.103 308 622.103H472.5C473.5 622.103 474.333 622.436 475 623.103C475.667 623.936 476 624.769 476 625.603V747.103C476 749.436 474.833 750.603 472.5 750.603H308C307 750.603 306.167 750.186 305.5 749.353C304.833 748.686 304.5 747.936 304.5 747.103V735.103C304.5 732.769 305.667 731.603 308 731.603H457V695.853H361C360 695.853 359.167 695.436 358.5 694.603C357.833 693.936 357.5 693.186 357.5 692.353V680.353C357.5 678.019 358.667 676.853 361 676.853H457V641.103H308C305.667 641.103 304.5 639.936 304.5 637.603V625.603ZM476 392.208C476 393.041 475.667 393.791 475 394.458C474.333 395.291 473.5 395.708 472.5 395.708H308C307 395.708 306.167 395.291 305.5 394.458C304.833 393.791 304.5 393.041 304.5 392.208V278.958C304.5 276.625 305.667 275.458 308 275.458H320C320.833 275.458 321.667 275.791 322.5 276.458C323.167 277.125 323.5 277.958 323.5 278.958V376.708H472.5C474.833 376.708 476 377.875 476 380.208V392.208ZM308 118.392C305.667 118.392 304.5 117.225 304.5 114.892V102.892C304.5 100.558 305.667 99.3916 308 99.3916H472.5C474.833 99.3916 476 100.558 476 102.892V114.892C476 117.225 474.833 118.392 472.5 118.392H405L473.75 201.642C475.25 203.475 476 205.558 476 207.892V224.642C476 225.475 475.667 226.308 475 227.142C474.333 227.808 473.5 228.142 472.5 228.142H308C307 228.142 306.167 227.808 305.5 227.142C304.833 226.308 304.5 225.475 304.5 224.642V212.642C304.5 210.308 305.667 209.142 308 209.142H454.75L379.75 118.392H308ZM457 23.8252L457 -45.1748H323.5V6.32519C323.5 11.1585 325.167 15.3252 328.5 18.8252C332 22.1585 336.167 23.8252 341 23.8252H457ZM457 -71.4248C457 -73.7581 458.167 -74.9248 460.5 -74.9248H496.5C498.833 -74.9248 500 -73.7581 500 -71.4248V-59.4248C500 -57.0915 498.833 -55.9248 496.5 -55.9248H476L476 34.5752H496.5C498.833 34.5752 500 35.7419 500 38.0752V50.0752C500 52.4085 498.833 53.5752 496.5 53.5752H460.5C458.167 53.5752 457 52.4085 457 50.0752V42.8252H341C336 42.8252 331.25 41.9085 326.75 40.0752C322.25 38.0752 318.333 35.4085 315 32.0752C311.833 28.7419 309.25 24.9085 307.25 20.5752C305.417 16.0752 304.5 11.3252 304.5 6.32519V-60.6748C304.5 -63.0081 305.667 -64.1748 308 -64.1748H457V-71.4248Z" fill="#91EF19"/>
<path opacity="0.4" d="M472.5 2284.24H399.75V2374.99H472.5C474.833 2374.99 476 2376.16 476 2378.49V2390.24C476 2392.57 474.833 2393.74 472.5 2393.74H308C305.667 2393.74 304.5 2392.57 304.5 2390.24V2378.49C304.5 2376.16 305.667 2374.99 308 2374.99H380.75V2284.24H308C305.667 2284.24 304.5 2283.07 304.5 2280.74V2268.74C304.5 2266.41 305.667 2265.24 308 2265.24H472.5C474.833 2265.24 476 2266.41 476 2268.74V2280.74C476 2283.07 474.833 2284.24 472.5 2284.24ZM304.5 2132.17C304.5 2131.17 304.833 2130.25 305.5 2129.42C306.167 2128.42 306.917 2127.75 307.75 2127.42L394.75 2092.67C395.583 2092.34 396.667 2092.09 398 2091.92C399.333 2091.59 400.5 2091.42 401.5 2091.42H472.5C474.833 2091.42 476 2092.59 476 2094.92V2106.67C476 2109 474.833 2110.17 472.5 2110.17H426.25V2200.92H472.5C474.833 2200.92 476 2202.09 476 2204.42V2216.42C476 2218.75 474.833 2219.92 472.5 2219.92H401.5C400.5 2219.92 399.333 2219.84 398 2219.67C396.667 2219.34 395.583 2219 394.75 2218.67L307.75 2183.92C306.917 2183.59 306.167 2182.92 305.5 2181.92C304.833 2180.92 304.5 2180 304.5 2179.17V2132.17ZM407.5 2110.17H401.5L323.5 2141.42V2169.67L401.5 2200.92H407.5V2110.17ZM304.5 1920.6C304.5 1919.77 304.833 1918.94 305.5 1918.1C306.167 1917.44 307 1917.1 308 1917.1H472.5C473.5 1917.1 474.333 1917.44 475 1918.1C475.667 1918.94 476 1919.77 476 1920.6V2042.1C476 2044.44 474.833 2045.6 472.5 2045.6H308C307 2045.6 306.167 2045.19 305.5 2044.35C304.833 2043.69 304.5 2042.94 304.5 2042.1V2030.1C304.5 2027.77 305.667 2026.6 308 2026.6H457V1990.85H361C360 1990.85 359.167 1990.44 358.5 1989.6C357.833 1988.94 357.5 1988.19 357.5 1987.35V1975.35C357.5 1973.02 358.667 1971.85 361 1971.85H457V1936.1H308C305.667 1936.1 304.5 1934.94 304.5 1932.6V1920.6ZM476 1687.21C476 1688.04 475.667 1688.79 475 1689.46C474.333 1690.29 473.5 1690.71 472.5 1690.71H308C307 1690.71 306.167 1690.29 305.5 1689.46C304.833 1688.79 304.5 1688.04 304.5 1687.21V1573.96C304.5 1571.62 305.667 1570.46 308 1570.46H320C320.833 1570.46 321.667 1570.79 322.5 1571.46C323.167 1572.12 323.5 1572.96 323.5 1573.96V1671.71H472.5C474.833 1671.71 476 1672.87 476 1675.21V1687.21ZM308 1413.39C305.667 1413.39 304.5 1412.22 304.5 1409.89V1397.89C304.5 1395.56 305.667 1394.39 308 1394.39H472.5C474.833 1394.39 476 1395.56 476 1397.89V1409.89C476 1412.22 474.833 1413.39 472.5 1413.39H405L473.75 1496.64C475.25 1498.47 476 1500.56 476 1502.89V1519.64C476 1520.47 475.667 1521.31 475 1522.14C474.333 1522.81 473.5 1523.14 472.5 1523.14H308C307 1523.14 306.167 1522.81 305.5 1522.14C304.833 1521.31 304.5 1520.47 304.5 1519.64V1507.64C304.5 1505.31 305.667 1504.14 308 1504.14H454.75L379.75 1413.39H308ZM457 1318.83L457 1249.83H323.5V1301.33C323.5 1306.16 325.167 1310.33 328.5 1313.83C332 1317.16 336.167 1318.83 341 1318.83H457ZM457 1223.58C457 1221.24 458.167 1220.08 460.5 1220.08H496.5C498.833 1220.08 500 1221.24 500 1223.58V1235.58C500 1237.91 498.833 1239.08 496.5 1239.08H476L476 1329.58H496.5C498.833 1329.58 500 1330.74 500 1333.08V1345.08C500 1347.41 498.833 1348.58 496.5 1348.58H460.5C458.167 1348.58 457 1347.41 457 1345.08V1337.83H341C336 1337.83 331.25 1336.91 326.75 1335.08C322.25 1333.08 318.333 1330.41 315 1327.08C311.833 1323.74 309.25 1319.91 307.25 1315.58C305.417 1311.08 304.5 1306.33 304.5 1301.33V1234.33C304.5 1231.99 305.667 1230.83 308 1230.83H457V1223.58Z" fill="#91EF19"/>
<path opacity="0.4" d="M241 1088.74C241 1089.57 240.667 1090.32 240 1090.99C239.333 1091.82 238.5 1092.24 237.5 1092.24H73C72 1092.24 71.1667 1091.82 70.5 1090.99C69.8333 1090.32 69.5 1089.57 69.5 1088.74V975.491C69.5 973.158 70.6667 971.991 73 971.991H85C85.8333 971.991 86.6667 972.325 87.5 972.991C88.1667 973.658 88.5 974.491 88.5 975.491L88.5 1073.24H237.5C239.833 1073.24 241 1074.41 241 1076.74V1088.74ZM159.5 797.425C160.5 797.091 161.667 796.758 163 796.425C164.333 796.091 165.417 795.925 166.25 795.925H237.5C238.5 795.925 239.333 796.258 240 796.925C240.667 797.758 241 798.591 241 799.425V811.425C241 813.758 239.833 814.925 237.5 814.925H170C169 814.925 167.833 815.008 166.5 815.175C165.167 815.508 164.083 815.841 163.25 816.175L88.5 846.175V874.425L163.25 904.425C164.083 904.758 165.167 905.008 166.5 905.175C167.833 905.508 169 905.675 170 905.675H237.5C239.833 905.675 241 906.841 241 909.175V921.175C241 923.508 239.833 924.675 237.5 924.675H166.25C165.417 924.675 164.333 924.508 163 924.175C161.667 924.008 160.5 923.758 159.5 923.425L72.75 888.675C71.9167 888.341 71.1667 887.675 70.5 886.675C69.8333 885.675 69.5 884.675 69.5 883.675V836.925C69.5 835.925 69.8333 834.925 70.5 833.925C71.1667 833.091 71.9167 832.508 72.75 832.175L159.5 797.425ZM69.5 662.853C69.5 661.853 69.8333 660.936 70.5 660.103C71.1667 659.103 71.9167 658.436 72.75 658.103L159.75 623.353C160.583 623.019 161.667 622.769 163 622.603C164.333 622.269 165.5 622.103 166.5 622.103H237.5C239.833 622.103 241 623.269 241 625.603V637.353C241 639.686 239.833 640.853 237.5 640.853H191.25V731.603H237.5C239.833 731.603 241 732.769 241 735.103V747.103C241 749.436 239.833 750.603 237.5 750.603H166.5C165.5 750.603 164.333 750.519 163 750.353C161.667 750.019 160.583 749.686 159.75 749.353L72.75 714.603C71.9167 714.269 71.1667 713.603 70.5 712.603C69.8333 711.603 69.5 710.686 69.5 709.853V662.853ZM172.5 640.853H166.5L88.5 672.103V700.353L166.5 731.603H172.5V640.853ZM237.5 576.286H73C72 576.286 71.1667 575.953 70.5 575.286C69.8333 574.453 69.5 573.619 69.5 572.786V484.036C69.5 479.036 70.5 474.369 72.5 470.036C74.3333 465.536 76.9167 461.619 80.25 458.286C83.5833 454.953 87.5 452.369 92 450.536C96.3333 448.536 101 447.536 106 447.536H128.25C136.583 447.536 144 450.119 150.5 455.286L155.25 458.786L160 455.286C166.667 450.119 174.083 447.536 182.25 447.536H204.5C209.5 447.536 214.25 448.536 218.75 450.536C223.25 452.369 227.167 454.953 230.5 458.286C233.667 461.619 236.25 465.536 238.25 470.036C240.083 474.369 241 479.036 241 484.036V572.786C241 573.619 240.667 574.453 240 575.286C239.333 575.953 238.5 576.286 237.5 576.286ZM222 557.286V484.036C222 479.203 220.333 475.119 217 471.786C213.5 468.286 209.333 466.536 204.5 466.536H182.25C177.417 466.536 173.333 468.286 170 471.786C166.5 475.119 164.75 479.203 164.75 484.036V557.286H222ZM145.75 557.286L145.75 484.036C145.75 479.203 144.083 475.119 140.75 471.786C137.25 468.286 133.083 466.536 128.25 466.536H106C101.167 466.536 97.0833 468.286 93.75 471.786C90.25 475.119 88.5 479.203 88.5 484.036L88.5 557.286H145.75ZM237.5 292.464H164.75V383.214H237.5C239.833 383.214 241 384.381 241 386.714V398.464C241 400.797 239.833 401.964 237.5 401.964H73C70.6667 401.964 69.5 400.797 69.5 398.464V386.714C69.5 384.381 70.6667 383.214 73 383.214H145.75V292.464H73C70.6667 292.464 69.5 291.297 69.5 288.964V276.964C69.5 274.631 70.6667 273.464 73 273.464H237.5C239.833 273.464 241 274.631 241 276.964V288.964C241 291.297 239.833 292.464 237.5 292.464ZM69.5 140.392C69.5 139.392 69.8333 138.475 70.5 137.642C71.1667 136.642 71.9167 135.975 72.75 135.642L159.75 100.892C160.583 100.558 161.667 100.308 163 100.142C164.333 99.8083 165.5 99.6416 166.5 99.6416H237.5C239.833 99.6416 241 100.808 241 103.142V114.892C241 117.225 239.833 118.392 237.5 118.392H191.25V209.142H237.5C239.833 209.142 241 210.308 241 212.642V224.642C241 226.975 239.833 228.142 237.5 228.142H166.5C165.5 228.142 164.333 228.058 163 227.892C161.667 227.558 160.583 227.225 159.75 226.892L72.75 192.142C71.9167 191.808 71.1667 191.142 70.5 190.142C69.8333 189.142 69.5 188.225 69.5 187.392V140.392ZM172.5 118.392H166.5L88.5 149.642V177.892L166.5 209.142H172.5V118.392ZM128.25 34.8252C133.083 34.8252 137.167 33.1585 140.5 29.8252C144 26.3252 145.75 22.1585 145.75 17.3252V-55.9248H88.5V17.3252C88.5 22.1585 90.1667 26.3252 93.5 29.8252C97 33.1585 101.167 34.8252 106 34.8252H128.25ZM163.25 27.3252C160.917 35.1585 156.583 41.5752 150.25 46.5752C143.75 51.4085 136.417 53.8252 128.25 53.8252H106C101 53.8252 96.25 52.9085 91.75 51.0752C87.4167 49.0752 83.5833 46.4085 80.25 43.0752C76.9167 39.7419 74.25 35.8252 72.25 31.3252C70.4167 26.9919 69.5 22.3252 69.5 17.3252V-71.1748C69.5 -73.5081 70.6667 -74.6748 73 -74.6748H237.5C239.833 -74.6748 241 -73.5081 241 -71.1748V-59.4248C241 -57.0915 239.833 -55.9248 237.5 -55.9248H164.75L164.75 -2.42481L237.75 30.0752C238.583 30.4085 239.333 31.0752 240 32.0752C240.667 33.0752 241 34.0752 241 35.0752V48.8252C241 49.8252 240.667 50.5752 240 51.0752C239.333 51.4085 238.583 51.3252 237.75 50.8252L165.75 18.8252L163.25 27.3252Z" fill="#91EF19"/>
<path opacity="0.4" d="M241 2383.74C241 2384.57 240.667 2385.32 240 2385.99C239.333 2386.82 238.5 2387.24 237.5 2387.24H73C72 2387.24 71.1667 2386.82 70.5 2385.99C69.8333 2385.32 69.5 2384.57 69.5 2383.74V2270.49C69.5 2268.16 70.6667 2266.99 73 2266.99H85C85.8333 2266.99 86.6667 2267.32 87.5 2267.99C88.1667 2268.66 88.5 2269.49 88.5 2270.49L88.5 2368.24H237.5C239.833 2368.24 241 2369.41 241 2371.74V2383.74ZM159.5 2092.42C160.5 2092.09 161.667 2091.76 163 2091.42C164.333 2091.09 165.417 2090.92 166.25 2090.92H237.5C238.5 2090.92 239.333 2091.26 240 2091.92C240.667 2092.76 241 2093.59 241 2094.42V2106.42C241 2108.76 239.833 2109.92 237.5 2109.92H170C169 2109.92 167.833 2110.01 166.5 2110.17C165.167 2110.51 164.083 2110.84 163.25 2111.17L88.5 2141.17V2169.42L163.25 2199.42C164.083 2199.76 165.167 2200.01 166.5 2200.17C167.833 2200.51 169 2200.67 170 2200.67H237.5C239.833 2200.67 241 2201.84 241 2204.17V2216.17C241 2218.51 239.833 2219.67 237.5 2219.67H166.25C165.417 2219.67 164.333 2219.51 163 2219.17C161.667 2219.01 160.5 2218.76 159.5 2218.42L72.75 2183.67C71.9167 2183.34 71.1667 2182.67 70.5 2181.67C69.8333 2180.67 69.5 2179.67 69.5 2178.67V2131.92C69.5 2130.92 69.8333 2129.92 70.5 2128.92C71.1667 2128.09 71.9167 2127.51 72.75 2127.17L159.5 2092.42ZM69.5 1957.85C69.5 1956.85 69.8333 1955.94 70.5 1955.1C71.1667 1954.1 71.9167 1953.44 72.75 1953.1L159.75 1918.35C160.583 1918.02 161.667 1917.77 163 1917.6C164.333 1917.27 165.5 1917.1 166.5 1917.1H237.5C239.833 1917.1 241 1918.27 241 1920.6V1932.35C241 1934.69 239.833 1935.85 237.5 1935.85H191.25V2026.6H237.5C239.833 2026.6 241 2027.77 241 2030.1V2042.1C241 2044.44 239.833 2045.6 237.5 2045.6H166.5C165.5 2045.6 164.333 2045.52 163 2045.35C161.667 2045.02 160.583 2044.69 159.75 2044.35L72.75 2009.6C71.9167 2009.27 71.1667 2008.6 70.5 2007.6C69.8333 2006.6 69.5 2005.69 69.5 2004.85V1957.85ZM172.5 1935.85H166.5L88.5 1967.1V1995.35L166.5 2026.6H172.5V1935.85ZM237.5 1871.29H73C72 1871.29 71.1667 1870.95 70.5 1870.29C69.8333 1869.45 69.5 1868.62 69.5 1867.79V1779.04C69.5 1774.04 70.5 1769.37 72.5 1765.04C74.3333 1760.54 76.9167 1756.62 80.25 1753.29C83.5833 1749.95 87.5 1747.37 92 1745.54C96.3333 1743.54 101 1742.54 106 1742.54H128.25C136.583 1742.54 144 1745.12 150.5 1750.29L155.25 1753.79L160 1750.29C166.667 1745.12 174.083 1742.54 182.25 1742.54H204.5C209.5 1742.54 214.25 1743.54 218.75 1745.54C223.25 1747.37 227.167 1749.95 230.5 1753.29C233.667 1756.62 236.25 1760.54 238.25 1765.04C240.083 1769.37 241 1774.04 241 1779.04V1867.79C241 1868.62 240.667 1869.45 240 1870.29C239.333 1870.95 238.5 1871.29 237.5 1871.29ZM222 1852.29V1779.04C222 1774.2 220.333 1770.12 217 1766.79C213.5 1763.29 209.333 1761.54 204.5 1761.54H182.25C177.417 1761.54 173.333 1763.29 170 1766.79C166.5 1770.12 164.75 1774.2 164.75 1779.04V1852.29H222ZM145.75 1852.29L145.75 1779.04C145.75 1774.2 144.083 1770.12 140.75 1766.79C137.25 1763.29 133.083 1761.54 128.25 1761.54H106C101.167 1761.54 97.0833 1763.29 93.75 1766.79C90.25 1770.12 88.5 1774.2 88.5 1779.04L88.5 1852.29H145.75ZM237.5 1587.46H164.75V1678.21H237.5C239.833 1678.21 241 1679.38 241 1681.71V1693.46C241 1695.8 239.833 1696.96 237.5 1696.96H73C70.6667 1696.96 69.5 1695.8 69.5 1693.46V1681.71C69.5 1679.38 70.6667 1678.21 73 1678.21H145.75V1587.46H73C70.6667 1587.46 69.5 1586.3 69.5 1583.96V1571.96C69.5 1569.63 70.6667 1568.46 73 1568.46H237.5C239.833 1568.46 241 1569.63 241 1571.96V1583.96C241 1586.3 239.833 1587.46 237.5 1587.46ZM69.5 1435.39C69.5 1434.39 69.8333 1433.47 70.5 1432.64C71.1667 1431.64 71.9167 1430.97 72.75 1430.64L159.75 1395.89C160.583 1395.56 161.667 1395.31 163 1395.14C164.333 1394.81 165.5 1394.64 166.5 1394.64H237.5C239.833 1394.64 241 1395.81 241 1398.14V1409.89C241 1412.22 239.833 1413.39 237.5 1413.39H191.25V1504.14H237.5C239.833 1504.14 241 1505.31 241 1507.64V1519.64C241 1521.97 239.833 1523.14 237.5 1523.14H166.5C165.5 1523.14 164.333 1523.06 163 1522.89C161.667 1522.56 160.583 1522.22 159.75 1521.89L72.75 1487.14C71.9167 1486.81 71.1667 1486.14 70.5 1485.14C69.8333 1484.14 69.5 1483.22 69.5 1482.39V1435.39ZM172.5 1413.39H166.5L88.5 1444.64V1472.89L166.5 1504.14H172.5V1413.39ZM128.25 1329.83C133.083 1329.83 137.167 1328.16 140.5 1324.83C144 1321.33 145.75 1317.16 145.75 1312.33V1239.08H88.5V1312.33C88.5 1317.16 90.1667 1321.33 93.5 1324.83C97 1328.16 101.167 1329.83 106 1329.83H128.25ZM163.25 1322.33C160.917 1330.16 156.583 1336.58 150.25 1341.58C143.75 1346.41 136.417 1348.83 128.25 1348.83H106C101 1348.83 96.25 1347.91 91.75 1346.08C87.4167 1344.08 83.5833 1341.41 80.25 1338.08C76.9167 1334.74 74.25 1330.83 72.25 1326.33C70.4167 1321.99 69.5 1317.33 69.5 1312.33V1223.83C69.5 1221.49 70.6667 1220.33 73 1220.33H237.5C239.833 1220.33 241 1221.49 241 1223.83V1235.58C241 1237.91 239.833 1239.08 237.5 1239.08H164.75L164.75 1292.58L237.75 1325.08C238.583 1325.41 239.333 1326.08 240 1327.08C240.667 1328.08 241 1329.08 241 1330.08V1343.83C241 1344.83 240.667 1345.58 240 1346.08C239.333 1346.41 238.583 1346.33 237.75 1345.83L165.75 1313.83L163.25 1322.33Z" fill="#91EF19"/>
<path opacity="0.4" d="M861.5 3560.49C863.833 3560.49 865 3561.65 865 3563.99V3575.99C865 3578.32 863.833 3579.49 861.5 3579.49H849.75C844.917 3579.65 840.833 3581.4 837.5 3584.74C834.167 3588.07 832.5 3592.15 832.5 3596.99V3652.74C832.5 3657.57 834.25 3661.74 837.75 3665.24C841.083 3668.57 845.167 3670.24 850 3670.24H948.5C953.333 3670.24 957.5 3668.57 961 3665.24C964.333 3661.74 966 3657.57 966 3652.74V3596.99C966 3592.15 964.417 3588.07 961.25 3584.74C957.917 3581.4 953.833 3579.65 949 3579.49H937C936.167 3579.49 935.417 3579.15 934.75 3578.49C933.917 3577.82 933.5 3576.99 933.5 3575.99V3563.99C933.5 3562.99 933.917 3562.15 934.75 3561.49C935.417 3560.82 936.167 3560.49 937 3560.49H949C954 3560.49 958.667 3561.49 963 3563.49C967.333 3565.49 971.167 3568.15 974.5 3571.49C977.667 3574.65 980.25 3578.49 982.25 3582.99C984.083 3587.32 985 3591.99 985 3596.99V3652.74C985 3657.74 984.083 3662.49 982.25 3666.99C980.25 3671.32 977.667 3675.15 974.5 3678.49C971.167 3681.65 967.25 3684.24 962.75 3686.24C958.25 3688.07 953.5 3688.99 948.5 3688.99H850C845 3688.99 840.333 3688.07 836 3686.24C831.5 3684.24 827.583 3681.65 824.25 3678.49C820.917 3675.15 818.333 3671.32 816.5 3666.99C814.5 3662.49 813.5 3657.74 813.5 3652.74V3596.99C813.5 3591.99 814.5 3587.32 816.5 3582.99C818.333 3578.49 820.917 3574.65 824.25 3571.49C827.417 3568.15 831.25 3565.49 835.75 3563.49C840.083 3561.49 844.75 3560.49 849.75 3560.49H861.5ZM985 3478.42C985 3483.42 984.083 3488.17 982.25 3492.67C980.25 3497 977.667 3500.84 974.5 3504.17C971.167 3507.34 967.25 3509.92 962.75 3511.92C958.25 3513.75 953.5 3514.67 948.5 3514.67H850C845 3514.67 840.333 3513.75 836 3511.92C831.5 3509.92 827.583 3507.34 824.25 3504.17C820.917 3500.84 818.333 3497 816.5 3492.67C814.5 3488.17 813.5 3483.42 813.5 3478.42V3422.67C813.5 3417.67 814.5 3413 816.5 3408.67C818.333 3404.17 820.917 3400.25 824.25 3396.92C827.583 3393.59 831.5 3391 836 3389.17C840.333 3387.17 845 3386.17 850 3386.17H948.5C953.5 3386.17 958.25 3387.17 962.75 3389.17C967.25 3391 971.167 3393.59 974.5 3396.92C977.667 3400.25 980.25 3404.17 982.25 3408.67C984.083 3413 985 3417.67 985 3422.67V3478.42ZM832.5 3478.42C832.5 3483.25 834.25 3487.42 837.75 3490.92C841.083 3494.25 845.167 3495.92 850 3495.92H948.5C953.333 3495.92 957.5 3494.25 961 3490.92C964.333 3487.42 966 3483.25 966 3478.42V3422.67C966 3417.84 964.333 3413.75 961 3410.42C957.5 3406.92 953.333 3405.17 948.5 3405.17H850C845.167 3405.17 841.083 3406.92 837.75 3410.42C834.25 3413.75 832.5 3417.84 832.5 3422.67V3478.42ZM926.25 3230.85C921.417 3230.85 917.333 3232.6 914 3236.1C910.5 3239.44 908.75 3243.52 908.75 3248.35V3321.6H966V3248.35C966 3243.52 964.333 3239.44 961 3236.1C957.5 3232.6 953.333 3230.85 948.5 3230.85H926.25ZM900.5 3222.6C903.667 3219.27 907.5 3216.69 912 3214.85C916.5 3212.85 921.25 3211.85 926.25 3211.85H948.5C953.5 3211.85 958.167 3212.85 962.5 3214.85C967 3216.69 970.917 3219.27 974.25 3222.6C977.583 3225.94 980.25 3229.85 982.25 3234.35C984.083 3238.69 985 3243.35 985 3248.35V3337.1C985 3337.94 984.667 3338.77 984 3339.6C983.333 3340.27 982.5 3340.6 981.5 3340.6H817C816 3340.6 815.167 3340.27 814.5 3339.6C813.833 3338.77 813.5 3337.94 813.5 3337.1V3224.35C813.5 3223.35 813.833 3222.52 814.5 3221.85C815.333 3221.19 816.167 3220.85 817 3220.85H829C831.333 3220.85 832.5 3222.02 832.5 3224.35V3321.6H889.75V3248.35C889.75 3243.35 890.75 3238.69 892.75 3234.35C894.583 3229.85 897.167 3225.94 900.5 3222.6ZM926.25 3092.78C921.417 3092.78 917.25 3094.53 913.75 3098.03C910.417 3101.36 908.75 3105.45 908.75 3110.28V3147.53H966V3110.28C966 3105.45 964.25 3101.36 960.75 3098.03C957.417 3094.53 953.333 3092.78 948.5 3092.78H926.25ZM892.5 3096.28C894.5 3091.78 897.083 3087.86 900.25 3084.53C903.583 3081.36 907.5 3078.78 912 3076.78C916.5 3074.78 921.25 3073.78 926.25 3073.78H948.5C953.5 3073.78 958.167 3074.78 962.5 3076.78C967 3078.78 970.917 3081.36 974.25 3084.53C977.583 3087.86 980.167 3091.78 982 3096.28C984 3100.61 985 3105.28 985 3110.28V3163.03C985 3163.86 984.667 3164.7 984 3165.53C983.333 3166.2 982.5 3166.53 981.5 3166.53H817C816 3166.53 815.167 3166.2 814.5 3165.53C813.833 3164.7 813.5 3163.86 813.5 3163.03V3151.03C813.5 3148.7 814.667 3147.53 817 3147.53H889.75V3110.28C889.75 3105.28 890.667 3100.61 892.5 3096.28ZM813.5 3041.28C813.5 3038.95 814.667 3037.78 817 3037.78H981.5C982.5 3037.78 983.333 3038.2 984 3039.03C984.667 3039.7 985 3040.45 985 3041.28V3053.28C985 3055.61 983.833 3056.78 981.5 3056.78H817C816 3056.78 815.167 3056.45 814.5 3055.78C813.833 3054.95 813.5 3054.11 813.5 3053.28V3041.28ZM981.5 2937.21H832.5V2988.46C832.5 2990.8 831.333 2991.96 829 2991.96H817C814.667 2991.96 813.5 2990.8 813.5 2988.46V2866.96C813.5 2864.63 814.667 2863.46 817 2863.46H829C831.333 2863.46 832.5 2864.63 832.5 2866.96V2918.21H981.5C982.5 2918.21 983.333 2918.63 984 2919.46C984.667 2920.13 985 2920.88 985 2921.71V2933.71C985 2936.05 983.833 2937.21 981.5 2937.21ZM817 2708.15C814.667 2708.15 813.5 2706.98 813.5 2704.65V2692.65C813.5 2690.31 814.667 2689.15 817 2689.15H981.5C983.833 2689.15 985 2690.31 985 2692.65V2704.65C985 2706.98 983.833 2708.15 981.5 2708.15H914L982.75 2791.4C984.25 2793.23 985 2795.31 985 2797.65V2814.4C985 2815.23 984.667 2816.06 984 2816.9C983.333 2817.56 982.5 2817.9 981.5 2817.9H817C816 2817.9 815.167 2817.56 814.5 2816.9C813.833 2816.06 813.5 2815.23 813.5 2814.4V2802.4C813.5 2800.06 814.667 2798.9 817 2798.9H963.75L888.75 2708.15H817ZM872.25 2624.58C877.083 2624.58 881.167 2622.91 884.5 2619.58C888 2616.08 889.75 2611.91 889.75 2607.08V2533.83H832.5V2607.08C832.5 2611.91 834.167 2616.08 837.5 2619.58C841 2622.91 845.167 2624.58 850 2624.58H872.25ZM907.25 2617.08C904.917 2624.91 900.583 2631.33 894.25 2636.33C887.75 2641.16 880.417 2643.58 872.25 2643.58H850C845 2643.58 840.25 2642.66 835.75 2640.83C831.417 2638.83 827.583 2636.16 824.25 2632.83C820.917 2629.5 818.25 2625.58 816.25 2621.08C814.417 2616.75 813.5 2612.08 813.5 2607.08V2518.58C813.5 2516.25 814.667 2515.08 817 2515.08H981.5C983.833 2515.08 985 2516.25 985 2518.58V2530.33C985 2532.66 983.833 2533.83 981.5 2533.83H908.75L908.75 2587.33L981.75 2619.83C982.583 2620.16 983.333 2620.83 984 2621.83C984.667 2622.83 985 2623.83 985 2624.83V2638.58C985 2639.58 984.667 2640.33 984 2640.83C983.333 2641.16 982.583 2641.08 981.75 2640.58L909.75 2608.58L907.25 2617.08Z" fill="#91EF19"/>
<path opacity="0.4" d="M472.5 3579.24H399.75V3669.99H472.5C474.833 3669.99 476 3671.16 476 3673.49V3685.24C476 3687.57 474.833 3688.74 472.5 3688.74H308C305.667 3688.74 304.5 3687.57 304.5 3685.24V3673.49C304.5 3671.16 305.667 3669.99 308 3669.99H380.75V3579.24H308C305.667 3579.24 304.5 3578.07 304.5 3575.74V3563.74C304.5 3561.41 305.667 3560.24 308 3560.24H472.5C474.833 3560.24 476 3561.41 476 3563.74V3575.74C476 3578.07 474.833 3579.24 472.5 3579.24ZM304.5 3427.17C304.5 3426.17 304.833 3425.25 305.5 3424.42C306.167 3423.42 306.917 3422.75 307.75 3422.42L394.75 3387.67C395.583 3387.34 396.667 3387.09 398 3386.92C399.333 3386.59 400.5 3386.42 401.5 3386.42H472.5C474.833 3386.42 476 3387.59 476 3389.92V3401.67C476 3404 474.833 3405.17 472.5 3405.17H426.25V3495.92H472.5C474.833 3495.92 476 3497.09 476 3499.42V3511.42C476 3513.75 474.833 3514.92 472.5 3514.92H401.5C400.5 3514.92 399.333 3514.84 398 3514.67C396.667 3514.34 395.583 3514 394.75 3513.67L307.75 3478.92C306.917 3478.59 306.167 3477.92 305.5 3476.92C304.833 3475.92 304.5 3475 304.5 3474.17V3427.17ZM407.5 3405.17H401.5L323.5 3436.42V3464.67L401.5 3495.92H407.5V3405.17ZM304.5 3215.6C304.5 3214.77 304.833 3213.94 305.5 3213.1C306.167 3212.44 307 3212.1 308 3212.1H472.5C473.5 3212.1 474.333 3212.44 475 3213.1C475.667 3213.94 476 3214.77 476 3215.6V3337.1C476 3339.44 474.833 3340.6 472.5 3340.6H308C307 3340.6 306.167 3340.19 305.5 3339.35C304.833 3338.69 304.5 3337.94 304.5 3337.1V3325.1C304.5 3322.77 305.667 3321.6 308 3321.6H457V3285.85H361C360 3285.85 359.167 3285.44 358.5 3284.6C357.833 3283.94 357.5 3283.19 357.5 3282.35V3270.35C357.5 3268.02 358.667 3266.85 361 3266.85H457V3231.1H308C305.667 3231.1 304.5 3229.94 304.5 3227.6V3215.6ZM476 2982.21C476 2983.04 475.667 2983.79 475 2984.46C474.333 2985.29 473.5 2985.71 472.5 2985.71H308C307 2985.71 306.167 2985.29 305.5 2984.46C304.833 2983.79 304.5 2983.04 304.5 2982.21V2868.96C304.5 2866.62 305.667 2865.46 308 2865.46H320C320.833 2865.46 321.667 2865.79 322.5 2866.46C323.167 2867.12 323.5 2867.96 323.5 2868.96V2966.71H472.5C474.833 2966.71 476 2967.87 476 2970.21V2982.21ZM308 2708.39C305.667 2708.39 304.5 2707.22 304.5 2704.89V2692.89C304.5 2690.56 305.667 2689.39 308 2689.39H472.5C474.833 2689.39 476 2690.56 476 2692.89V2704.89C476 2707.22 474.833 2708.39 472.5 2708.39H405L473.75 2791.64C475.25 2793.47 476 2795.56 476 2797.89V2814.64C476 2815.47 475.667 2816.31 475 2817.14C474.333 2817.81 473.5 2818.14 472.5 2818.14H308C307 2818.14 306.167 2817.81 305.5 2817.14C304.833 2816.31 304.5 2815.47 304.5 2814.64V2802.64C304.5 2800.31 305.667 2799.14 308 2799.14H454.75L379.75 2708.39H308ZM457 2613.83L457 2544.83H323.5V2596.33C323.5 2601.16 325.167 2605.33 328.5 2608.83C332 2612.16 336.167 2613.83 341 2613.83H457ZM457 2518.58C457 2516.24 458.167 2515.08 460.5 2515.08H496.5C498.833 2515.08 500 2516.24 500 2518.58V2530.58C500 2532.91 498.833 2534.08 496.5 2534.08H476L476 2624.58H496.5C498.833 2624.58 500 2625.74 500 2628.08V2640.08C500 2642.41 498.833 2643.58 496.5 2643.58H460.5C458.167 2643.58 457 2642.41 457 2640.08V2632.83H341C336 2632.83 331.25 2631.91 326.75 2630.08C322.25 2628.08 318.333 2625.41 315 2622.08C311.833 2618.74 309.25 2614.91 307.25 2610.58C305.417 2606.08 304.5 2601.33 304.5 2596.33V2529.33C304.5 2526.99 305.667 2525.83 308 2525.83H457V2518.58Z" fill="#91EF19"/>
<path opacity="0.4" d="M241 3678.74C241 3679.57 240.667 3680.32 240 3680.99C239.333 3681.82 238.5 3682.24 237.5 3682.24H73C72 3682.24 71.1667 3681.82 70.5 3680.99C69.8333 3680.32 69.5 3679.57 69.5 3678.74V3565.49C69.5 3563.16 70.6667 3561.99 73 3561.99H85C85.8333 3561.99 86.6667 3562.32 87.5 3562.99C88.1667 3563.66 88.5 3564.49 88.5 3565.49L88.5 3663.24H237.5C239.833 3663.24 241 3664.41 241 3666.74V3678.74ZM159.5 3387.42C160.5 3387.09 161.667 3386.76 163 3386.42C164.333 3386.09 165.417 3385.92 166.25 3385.92H237.5C238.5 3385.92 239.333 3386.26 240 3386.92C240.667 3387.76 241 3388.59 241 3389.42V3401.42C241 3403.76 239.833 3404.92 237.5 3404.92H170C169 3404.92 167.833 3405.01 166.5 3405.17C165.167 3405.51 164.083 3405.84 163.25 3406.17L88.5 3436.17V3464.42L163.25 3494.42C164.083 3494.76 165.167 3495.01 166.5 3495.17C167.833 3495.51 169 3495.67 170 3495.67H237.5C239.833 3495.67 241 3496.84 241 3499.17V3511.17C241 3513.51 239.833 3514.67 237.5 3514.67H166.25C165.417 3514.67 164.333 3514.51 163 3514.17C161.667 3514.01 160.5 3513.76 159.5 3513.42L72.75 3478.67C71.9167 3478.34 71.1667 3477.67 70.5 3476.67C69.8333 3475.67 69.5 3474.67 69.5 3473.67V3426.92C69.5 3425.92 69.8333 3424.92 70.5 3423.92C71.1667 3423.09 71.9167 3422.51 72.75 3422.17L159.5 3387.42ZM69.5 3252.85C69.5 3251.85 69.8333 3250.94 70.5 3250.1C71.1667 3249.1 71.9167 3248.44 72.75 3248.1L159.75 3213.35C160.583 3213.02 161.667 3212.77 163 3212.6C164.333 3212.27 165.5 3212.1 166.5 3212.1H237.5C239.833 3212.1 241 3213.27 241 3215.6V3227.35C241 3229.69 239.833 3230.85 237.5 3230.85H191.25V3321.6H237.5C239.833 3321.6 241 3322.77 241 3325.1V3337.1C241 3339.44 239.833 3340.6 237.5 3340.6H166.5C165.5 3340.6 164.333 3340.52 163 3340.35C161.667 3340.02 160.583 3339.69 159.75 3339.35L72.75 3304.6C71.9167 3304.27 71.1667 3303.6 70.5 3302.6C69.8333 3301.6 69.5 3300.69 69.5 3299.85V3252.85ZM172.5 3230.85H166.5L88.5 3262.1V3290.35L166.5 3321.6H172.5V3230.85ZM237.5 3166.29H73C72 3166.29 71.1667 3165.95 70.5 3165.29C69.8333 3164.45 69.5 3163.62 69.5 3162.79V3074.04C69.5 3069.04 70.5 3064.37 72.5 3060.04C74.3333 3055.54 76.9167 3051.62 80.25 3048.29C83.5833 3044.95 87.5 3042.37 92 3040.54C96.3333 3038.54 101 3037.54 106 3037.54H128.25C136.583 3037.54 144 3040.12 150.5 3045.29L155.25 3048.79L160 3045.29C166.667 3040.12 174.083 3037.54 182.25 3037.54H204.5C209.5 3037.54 214.25 3038.54 218.75 3040.54C223.25 3042.37 227.167 3044.95 230.5 3048.29C233.667 3051.62 236.25 3055.54 238.25 3060.04C240.083 3064.37 241 3069.04 241 3074.04V3162.79C241 3163.62 240.667 3164.45 240 3165.29C239.333 3165.95 238.5 3166.29 237.5 3166.29ZM222 3147.29V3074.04C222 3069.2 220.333 3065.12 217 3061.79C213.5 3058.29 209.333 3056.54 204.5 3056.54H182.25C177.417 3056.54 173.333 3058.29 170 3061.79C166.5 3065.12 164.75 3069.2 164.75 3074.04V3147.29H222ZM145.75 3147.29L145.75 3074.04C145.75 3069.2 144.083 3065.12 140.75 3061.79C137.25 3058.29 133.083 3056.54 128.25 3056.54H106C101.167 3056.54 97.0833 3058.29 93.75 3061.79C90.25 3065.12 88.5 3069.2 88.5 3074.04L88.5 3147.29H145.75ZM237.5 2882.46H164.75V2973.21H237.5C239.833 2973.21 241 2974.38 241 2976.71V2988.46C241 2990.8 239.833 2991.96 237.5 2991.96H73C70.6667 2991.96 69.5 2990.8 69.5 2988.46V2976.71C69.5 2974.38 70.6667 2973.21 73 2973.21H145.75V2882.46H73C70.6667 2882.46 69.5 2881.3 69.5 2878.96V2866.96C69.5 2864.63 70.6667 2863.46 73 2863.46H237.5C239.833 2863.46 241 2864.63 241 2866.96V2878.96C241 2881.3 239.833 2882.46 237.5 2882.46ZM69.5 2730.39C69.5 2729.39 69.8333 2728.47 70.5 2727.64C71.1667 2726.64 71.9167 2725.97 72.75 2725.64L159.75 2690.89C160.583 2690.56 161.667 2690.31 163 2690.14C164.333 2689.81 165.5 2689.64 166.5 2689.64H237.5C239.833 2689.64 241 2690.81 241 2693.14V2704.89C241 2707.22 239.833 2708.39 237.5 2708.39H191.25V2799.14H237.5C239.833 2799.14 241 2800.31 241 2802.64V2814.64C241 2816.97 239.833 2818.14 237.5 2818.14H166.5C165.5 2818.14 164.333 2818.06 163 2817.89C161.667 2817.56 160.583 2817.22 159.75 2816.89L72.75 2782.14C71.9167 2781.81 71.1667 2781.14 70.5 2780.14C69.8333 2779.14 69.5 2778.22 69.5 2777.39V2730.39ZM172.5 2708.39H166.5L88.5 2739.64V2767.89L166.5 2799.14H172.5V2708.39ZM128.25 2624.83C133.083 2624.83 137.167 2623.16 140.5 2619.83C144 2616.33 145.75 2612.16 145.75 2607.33V2534.08H88.5V2607.33C88.5 2612.16 90.1667 2616.33 93.5 2619.83C97 2623.16 101.167 2624.83 106 2624.83H128.25ZM163.25 2617.33C160.917 2625.16 156.583 2631.58 150.25 2636.58C143.75 2641.41 136.417 2643.83 128.25 2643.83H106C101 2643.83 96.25 2642.91 91.75 2641.08C87.4167 2639.08 83.5833 2636.41 80.25 2633.08C76.9167 2629.74 74.25 2625.83 72.25 2621.33C70.4167 2616.99 69.5 2612.33 69.5 2607.33V2518.83C69.5 2516.49 70.6667 2515.33 73 2515.33H237.5C239.833 2515.33 241 2516.49 241 2518.83V2530.58C241 2532.91 239.833 2534.08 237.5 2534.08H164.75L164.75 2587.58L237.75 2620.08C238.583 2620.41 239.333 2621.08 240 2622.08C240.667 2623.08 241 2624.08 241 2625.08V2638.83C241 2639.83 240.667 2640.58 240 2641.08C239.333 2641.41 238.583 2641.33 237.75 2640.83L165.75 2608.83L163.25 2617.33Z" fill="#91EF19"/>
<rect x="-4816" y="-4087" width="15710" height="8941" stroke="black" stroke-width="10"/>
</g>
<defs>
<clipPath id="clip0_811_570">
<rect width="1440" height="3349" fill="white"/>
</clipPath>
</defs>
</svg>
