<svg width="858" height="398" viewBox="0 0 858 398" fill="none" xmlns="http://www.w3.org/2000/svg">
<g style="mix-blend-mode:luminosity" opacity="0.7">
<rect y="31" width="858" height="263" fill="#E8E8E8"/>
</g>
<path d="M18.1941 293.43C18.2941 293.59 18.3041 293.73 18.2241 293.85C18.1641 293.95 18.0441 294 17.8641 294H14.4441C14.2641 294 14.0841 293.95 13.9041 293.85C13.7241 293.73 13.5841 293.59 13.4841 293.43L9.13414 285.78H6.22414V293.34C6.22414 293.52 6.15414 293.68 6.01414 293.82C5.89414 293.94 5.74414 294 5.56414 294H2.74414C2.56414 294 2.41414 293.94 2.29414 293.82C2.17414 293.68 2.11414 293.52 2.11414 293.34V274.08C2.11414 273.9 2.17414 273.75 2.29414 273.63C2.41414 273.49 2.56414 273.42 2.74414 273.42H5.56414C5.74414 273.42 5.89414 273.49 6.01414 273.63C6.15414 273.75 6.22414 273.9 6.22414 274.08V281.67H9.13414L13.4841 273.99C13.5841 273.83 13.7241 273.7 13.9041 273.6C14.0841 273.48 14.2641 273.42 14.4441 273.42H17.8641C18.0441 273.42 18.1641 273.48 18.2241 273.6C18.3041 273.7 18.2941 273.83 18.1941 273.99L12.7041 283.71L18.1941 293.43ZM34.0421 273.42C34.7821 273.42 35.4721 273.56 36.1121 273.84C36.7521 274.12 37.3121 274.5 37.7921 274.98C38.2721 275.46 38.6521 276.02 38.9321 276.66C39.2121 277.3 39.3521 277.99 39.3521 278.73V280.47C39.3521 281.19 39.2121 281.88 38.9321 282.54C38.6521 283.18 38.2721 283.74 37.7921 284.22C37.3121 284.7 36.7521 285.08 36.1121 285.36C35.4721 285.64 34.7821 285.78 34.0421 285.78H26.9921V293.34C26.9921 293.52 26.9321 293.68 26.8121 293.82C26.6921 293.94 26.5421 294 26.3621 294H23.5421C23.3621 294 23.2021 293.94 23.0621 293.82C22.9421 293.68 22.8821 293.52 22.8821 293.34V274.08C22.8821 273.9 22.9421 273.75 23.0621 273.63C23.2021 273.49 23.3621 273.42 23.5421 273.42H34.0421ZM35.2421 278.73C35.2421 278.39 35.1221 278.11 34.8821 277.89C34.6621 277.65 34.3821 277.53 34.0421 277.53H26.9921V281.67H34.0421C34.3821 281.67 34.6621 281.56 34.8821 281.34C35.1221 281.1 35.2421 280.81 35.2421 280.47V278.73ZM59.6401 273.42C59.8201 273.42 59.9701 273.48 60.0901 273.6C60.2101 273.74 60.2701 273.9 60.2701 274.08V288.81C60.2501 289.51 60.1101 290.16 59.8501 290.76C59.5701 291.4 59.1901 291.96 58.7101 292.44C58.2301 292.92 57.6601 293.3 57.0001 293.58C56.3601 293.86 55.6801 294 54.9601 294H49.1101C48.3701 294 47.6801 293.86 47.0401 293.58C46.4001 293.3 45.8401 292.92 45.3601 292.44C44.8801 291.96 44.5001 291.4 44.2201 290.76C43.9401 290.12 43.8001 289.43 43.8001 288.69V288.48C43.8001 288.3 43.8701 288.15 44.0101 288.03C44.1301 287.89 44.2801 287.82 44.4601 287.82H47.2501C47.4301 287.82 47.5901 287.89 47.7301 288.03C47.8501 288.15 47.9101 288.3 47.9101 288.48V288.69C47.9101 289.03 48.0301 289.31 48.2701 289.53C48.4901 289.77 48.7701 289.89 49.1101 289.89H54.9601C55.3001 289.89 55.5801 289.77 55.8001 289.53C56.0201 289.31 56.1301 289.03 56.1301 288.69V285.78H49.1101C48.3701 285.78 47.6801 285.64 47.0401 285.36C46.4001 285.08 45.8401 284.7 45.3601 284.22C44.8801 283.74 44.5001 283.18 44.2201 282.54C43.9401 281.88 43.8001 281.19 43.8001 280.47V274.02C43.8001 273.86 43.8701 273.72 44.0101 273.6C44.1301 273.48 44.2801 273.42 44.4601 273.42H47.2801C47.4601 273.42 47.6101 273.48 47.7301 273.6C47.8501 273.72 47.9101 273.86 47.9101 274.02V280.47C47.9101 280.81 48.0301 281.09 48.2701 281.31C48.4901 281.55 48.7701 281.67 49.1101 281.67H56.1301V280.92H56.1601V274.08C56.1601 273.9 56.2201 273.74 56.3401 273.6C56.4801 273.48 56.6401 273.42 56.8201 273.42H59.6401ZM80.528 273.42C80.708 273.42 80.858 273.49 80.978 273.63C81.118 273.75 81.188 273.9 81.188 274.08V276.9C81.188 277.08 81.118 277.23 80.978 277.35C80.858 277.47 80.708 277.53 80.528 277.53H75.008V293.34C75.008 293.52 74.938 293.68 74.798 293.82C74.678 293.94 74.528 294 74.348 294H71.528C71.348 294 71.198 293.94 71.078 293.82C70.958 293.68 70.898 293.52 70.898 293.34V277.53H65.378C65.198 277.53 65.038 277.47 64.898 277.35C64.778 277.23 64.718 277.08 64.718 276.9V274.08C64.718 273.9 64.778 273.75 64.898 273.63C65.038 273.49 65.198 273.42 65.378 273.42H80.528ZM96.796 273.45C97.536 273.45 98.226 273.59 98.866 273.87C99.506 274.15 100.066 274.53 100.546 275.01C101.026 275.49 101.406 276.05 101.686 276.69C101.966 277.33 102.106 278.01 102.106 278.73V288.72C102.106 289.44 101.966 290.12 101.686 290.76C101.406 291.4 101.026 291.96 100.546 292.44C100.066 292.92 99.506 293.3 98.866 293.58C98.226 293.86 97.536 294 96.796 294H90.946C90.206 294 89.516 293.86 88.876 293.58C88.236 293.3 87.676 292.92 87.196 292.44C86.716 291.96 86.336 291.4 86.056 290.76C85.776 290.12 85.636 289.44 85.636 288.72V278.73C85.636 278.01 85.776 277.33 86.056 276.69C86.336 276.05 86.716 275.49 87.196 275.01C87.676 274.53 88.236 274.15 88.876 273.87C89.516 273.59 90.206 273.45 90.946 273.45H96.796ZM97.996 278.73C97.996 278.39 97.876 278.11 97.636 277.89C97.416 277.67 97.136 277.56 96.796 277.56H90.946C90.606 277.56 90.316 277.67 90.076 277.89C89.856 278.11 89.746 278.39 89.746 278.73V288.72C89.746 289.06 89.856 289.34 90.076 289.56C90.316 289.78 90.606 289.89 90.946 289.89H96.796C97.136 289.89 97.416 289.78 97.636 289.56C97.876 289.34 97.996 289.06 97.996 288.72V278.73ZM109.284 267.69C109.144 267.57 109.094 267.47 109.134 267.39C109.174 267.29 109.284 267.24 109.464 267.24H112.104C112.284 267.24 112.484 267.29 112.704 267.39C112.904 267.47 113.074 267.58 113.214 267.72L114.804 269.28L116.364 267.72C116.504 267.58 116.684 267.47 116.904 267.39C117.104 267.29 117.294 267.24 117.474 267.24H120.084C120.264 267.24 120.374 267.29 120.414 267.39C120.454 267.47 120.404 267.57 120.264 267.69L116.934 270.9C116.794 271.04 116.614 271.16 116.394 271.26C116.194 271.34 116.004 271.38 115.824 271.38H113.754C113.574 271.38 113.374 271.34 113.154 271.26C112.954 271.16 112.784 271.05 112.644 270.93L109.284 267.69ZM122.364 273.42C122.544 273.42 122.704 273.48 122.844 273.6C122.964 273.74 123.024 273.9 123.024 274.08V293.34C123.024 293.52 122.964 293.67 122.844 293.79C122.704 293.93 122.544 294 122.364 294H119.544C119.364 294 119.214 293.93 119.094 293.79C118.954 293.67 118.884 293.52 118.884 293.34V286.62L111.144 293.55C111.004 293.67 110.824 293.77 110.604 293.85C110.384 293.95 110.184 294 110.004 294H107.214C107.034 294 106.884 293.93 106.764 293.79C106.624 293.67 106.554 293.52 106.554 293.34V274.08C106.554 273.9 106.624 273.74 106.764 273.6C106.884 273.48 107.034 273.42 107.214 273.42H110.004C110.184 273.42 110.344 273.48 110.484 273.6C110.604 273.74 110.664 273.9 110.664 274.08V288.48L118.884 281.1V274.08C118.884 273.9 118.954 273.74 119.094 273.6C119.214 273.48 119.364 273.42 119.544 273.42H122.364ZM161.381 279.6C161.201 279.6 161.041 279.54 160.901 279.42C160.781 279.28 160.721 279.12 160.721 278.94V278.73C160.721 278.39 160.601 278.11 160.361 277.89C160.141 277.65 159.861 277.53 159.521 277.53H153.671C153.331 277.53 153.051 277.65 152.831 277.89C152.611 278.11 152.501 278.39 152.501 278.73V288.69C152.501 289.03 152.611 289.32 152.831 289.56C153.051 289.78 153.331 289.89 153.671 289.89H159.521C159.861 289.89 160.141 289.78 160.361 289.56C160.601 289.32 160.721 289.03 160.721 288.69V288.48C160.721 288.3 160.781 288.15 160.901 288.03C161.041 287.89 161.201 287.82 161.381 287.82H164.171C164.351 287.82 164.501 287.89 164.621 288.03C164.761 288.15 164.831 288.3 164.831 288.48V288.69C164.831 289.43 164.691 290.12 164.411 290.76C164.131 291.4 163.751 291.96 163.271 292.44C162.791 292.92 162.231 293.3 161.591 293.58C160.951 293.86 160.261 294 159.521 294H153.671C152.951 294 152.261 293.86 151.601 293.58C150.961 293.3 150.401 292.92 149.921 292.44C149.441 291.96 149.061 291.4 148.781 290.76C148.501 290.12 148.361 289.43 148.361 288.69V278.73C148.361 277.99 148.501 277.3 148.781 276.66C149.061 276.02 149.441 275.46 149.921 274.98C150.401 274.5 150.961 274.12 151.601 273.84C152.261 273.56 152.951 273.42 153.671 273.42H159.521C160.261 273.42 160.951 273.56 161.591 273.84C162.231 274.12 162.791 274.5 163.271 274.98C163.751 275.46 164.131 276.02 164.411 276.66C164.691 277.3 164.831 277.99 164.831 278.73V278.94C164.831 279.12 164.761 279.28 164.621 279.42C164.501 279.54 164.351 279.6 164.171 279.6H161.381ZM180.439 273.45C181.179 273.45 181.869 273.59 182.509 273.87C183.149 274.15 183.709 274.53 184.189 275.01C184.669 275.49 185.049 276.05 185.329 276.69C185.609 277.33 185.749 278.01 185.749 278.73V288.72C185.749 289.44 185.609 290.12 185.329 290.76C185.049 291.4 184.669 291.96 184.189 292.44C183.709 292.92 183.149 293.3 182.509 293.58C181.869 293.86 181.179 294 180.439 294H174.589C173.849 294 173.159 293.86 172.519 293.58C171.879 293.3 171.319 292.92 170.839 292.44C170.359 291.96 169.979 291.4 169.699 290.76C169.419 290.12 169.279 289.44 169.279 288.72V278.73C169.279 278.01 169.419 277.33 169.699 276.69C169.979 276.05 170.359 275.49 170.839 275.01C171.319 274.53 171.879 274.15 172.519 273.87C173.159 273.59 173.849 273.45 174.589 273.45H180.439ZM181.639 278.73C181.639 278.39 181.519 278.11 181.279 277.89C181.059 277.67 180.779 277.56 180.439 277.56H174.589C174.249 277.56 173.959 277.67 173.719 277.89C173.499 278.11 173.389 278.39 173.389 278.73V288.72C173.389 289.06 173.499 289.34 173.719 289.56C173.959 289.78 174.249 289.89 174.589 289.89H180.439C180.779 289.89 181.059 289.78 181.279 289.56C181.519 289.34 181.639 289.06 181.639 288.72V278.73ZM201.357 273.42C202.077 273.42 202.757 273.56 203.397 273.84C204.037 274.12 204.597 274.5 205.077 274.98C205.557 275.46 205.937 276.02 206.217 276.66C206.497 277.3 206.637 277.99 206.637 278.73V280.47C206.637 281.09 206.537 281.67 206.337 282.21C206.137 282.75 205.867 283.25 205.527 283.71C205.867 284.17 206.137 284.67 206.337 285.21C206.537 285.75 206.637 286.33 206.637 286.95V288.69C206.637 289.43 206.497 290.12 206.217 290.76C205.937 291.4 205.557 291.96 205.077 292.44C204.597 292.92 204.037 293.3 203.397 293.58C202.757 293.86 202.077 294 201.357 294H190.827C190.647 294 190.497 293.94 190.377 293.82C190.257 293.68 190.197 293.52 190.197 293.34V274.08C190.197 273.9 190.257 273.75 190.377 273.63C190.497 273.49 190.647 273.42 190.827 273.42H201.357ZM194.307 281.64H201.357C201.677 281.64 201.947 281.53 202.167 281.31C202.407 281.09 202.527 280.81 202.527 280.47V278.73C202.527 278.39 202.407 278.11 202.167 277.89C201.947 277.65 201.677 277.53 201.357 277.53H194.307V281.64ZM202.527 286.95C202.527 286.61 202.407 286.33 202.167 286.11C201.947 285.89 201.677 285.78 201.357 285.78H194.307V289.89H201.357C201.677 289.89 201.947 289.78 202.167 289.56C202.407 289.32 202.527 289.03 202.527 288.69V286.95ZM222.245 273.42C222.985 273.42 223.675 273.56 224.315 273.84C224.955 274.12 225.515 274.5 225.995 274.98C226.475 275.46 226.855 276.02 227.135 276.66C227.415 277.3 227.555 277.99 227.555 278.73V280.47C227.555 281.19 227.415 281.88 227.135 282.54C226.855 283.18 226.475 283.74 225.995 284.22C225.515 284.7 224.955 285.08 224.315 285.36C223.675 285.64 222.985 285.78 222.245 285.78H215.195V293.34C215.195 293.52 215.135 293.68 215.015 293.82C214.895 293.94 214.745 294 214.565 294H211.745C211.565 294 211.405 293.94 211.265 293.82C211.145 293.68 211.085 293.52 211.085 293.34V274.08C211.085 273.9 211.145 273.75 211.265 273.63C211.405 273.49 211.565 273.42 211.745 273.42H222.245ZM223.445 278.73C223.445 278.39 223.325 278.11 223.085 277.89C222.865 277.65 222.585 277.53 222.245 277.53H215.195V281.67H222.245C222.585 281.67 222.865 281.56 223.085 281.34C223.325 281.1 223.445 280.81 223.445 280.47V278.73ZM248.143 276.9C248.143 277.08 248.083 277.23 247.963 277.35C247.843 277.47 247.693 277.53 247.513 277.53H236.413V281.67H246.463C246.643 281.67 246.793 281.73 246.913 281.85C247.053 281.97 247.123 282.12 247.123 282.3V285.12C247.123 285.3 247.053 285.46 246.913 285.6C246.793 285.72 246.643 285.78 246.463 285.78H236.413V289.89H247.513C247.693 289.89 247.843 289.96 247.963 290.1C248.083 290.22 248.143 290.37 248.143 290.55V293.34C248.143 293.52 248.083 293.68 247.963 293.82C247.843 293.94 247.693 294 247.513 294H232.933C232.753 294 232.603 293.94 232.483 293.82C232.363 293.68 232.303 293.52 232.303 293.34V274.08C232.303 273.9 232.363 273.75 232.483 273.63C232.603 273.49 232.753 273.42 232.933 273.42H247.513C247.693 273.42 247.843 273.49 247.963 273.63C248.083 273.75 248.143 273.9 248.143 274.08V276.9ZM268.702 273.42C268.882 273.42 269.042 273.48 269.182 273.6C269.302 273.74 269.362 273.9 269.362 274.08V293.34C269.362 293.52 269.302 293.67 269.182 293.79C269.042 293.93 268.882 294 268.702 294H265.912C265.732 294 265.582 293.93 265.462 293.79C265.322 293.67 265.252 293.52 265.252 293.34V280.53L262.792 284.43C262.692 284.59 262.552 284.73 262.372 284.85C262.172 284.95 261.982 285 261.802 285H260.482C260.302 285 260.112 284.95 259.912 284.85C259.732 284.73 259.592 284.59 259.492 284.43L257.002 280.5V293.34C257.002 293.52 256.942 293.67 256.822 293.79C256.682 293.93 256.522 294 256.342 294H253.552C253.372 294 253.222 293.93 253.102 293.79C252.962 293.67 252.892 293.52 252.892 293.34V274.08C252.892 273.9 252.962 273.74 253.102 273.6C253.222 273.48 253.372 273.42 253.552 273.42H256.342L256.552 273.45C256.652 273.47 256.752 273.52 256.852 273.6C257.052 273.7 257.202 273.83 257.302 273.99L261.142 280.62L264.982 273.99C265.082 273.83 265.222 273.7 265.402 273.6L265.642 273.48C265.722 273.44 265.812 273.42 265.912 273.42H268.702ZM289.95 276.9C289.95 277.08 289.89 277.23 289.77 277.35C289.65 277.47 289.5 277.53 289.32 277.53H278.22V281.67H288.27C288.45 281.67 288.6 281.73 288.72 281.85C288.86 281.97 288.93 282.12 288.93 282.3V285.12C288.93 285.3 288.86 285.46 288.72 285.6C288.6 285.72 288.45 285.78 288.27 285.78H278.22V289.89H289.32C289.5 289.89 289.65 289.96 289.77 290.1C289.89 290.22 289.95 290.37 289.95 290.55V293.34C289.95 293.52 289.89 293.68 289.77 293.82C289.65 293.94 289.5 294 289.32 294H274.74C274.56 294 274.41 293.94 274.29 293.82C274.17 293.68 274.11 293.52 274.11 293.34V274.08C274.11 273.9 274.17 273.75 274.29 273.63C274.41 273.49 274.56 273.42 274.74 273.42H289.32C289.5 273.42 289.65 273.49 289.77 273.63C289.89 273.75 289.95 273.9 289.95 274.08V276.9ZM307.029 274.08C307.029 273.9 307.089 273.75 307.209 273.63C307.349 273.49 307.509 273.42 307.689 273.42H310.509C310.689 273.42 310.839 273.49 310.959 273.63C311.079 273.75 311.139 273.9 311.139 274.08V293.34C311.139 293.52 311.079 293.68 310.959 293.82C310.839 293.94 310.689 294 310.509 294H307.689C307.509 294 307.349 293.94 307.209 293.82C307.089 293.68 307.029 293.52 307.029 293.34V285.78H298.809V293.34C298.809 293.52 298.739 293.68 298.599 293.82C298.479 293.94 298.329 294 298.149 294H295.329C295.149 294 294.999 293.94 294.879 293.82C294.759 293.68 294.699 293.52 294.699 293.34V274.08C294.699 273.9 294.759 273.75 294.879 273.63C294.999 273.49 295.149 273.42 295.329 273.42H298.149C298.329 273.42 298.479 273.49 298.599 273.63C298.739 273.75 298.809 273.9 298.809 274.08V281.67H307.029V274.08ZM327.917 274.08C327.917 273.9 327.977 273.75 328.097 273.63C328.237 273.49 328.397 273.42 328.577 273.42H331.397C331.577 273.42 331.727 273.49 331.847 273.63C331.967 273.75 332.027 273.9 332.027 274.08V293.34C332.027 293.52 331.967 293.68 331.847 293.82C331.727 293.94 331.577 294 331.397 294H328.577C328.397 294 328.237 293.94 328.097 293.82C327.977 293.68 327.917 293.52 327.917 293.34V285.78H319.697V293.34C319.697 293.52 319.627 293.68 319.487 293.82C319.367 293.94 319.217 294 319.037 294H316.217C316.037 294 315.887 293.94 315.767 293.82C315.647 293.68 315.587 293.52 315.587 293.34V274.08C315.587 273.9 315.647 273.75 315.767 273.63C315.887 273.49 316.037 273.42 316.217 273.42H319.037C319.217 273.42 319.367 273.49 319.487 273.63C319.627 273.75 319.697 273.9 319.697 274.08V281.67H327.917V274.08ZM343.886 286.95C343.886 286.61 343.776 286.33 343.556 286.11C343.316 285.87 343.026 285.75 342.686 285.75H340.586V289.89H342.686C343.026 289.89 343.316 289.77 343.556 289.53C343.776 289.31 343.886 289.03 343.886 288.69V286.95ZM344.756 282.06C345.396 282.34 345.956 282.72 346.436 283.2C346.916 283.68 347.296 284.24 347.576 284.88C347.856 285.54 347.996 286.23 347.996 286.95V288.69C347.996 289.43 347.856 290.12 347.576 290.76C347.296 291.4 346.916 291.96 346.436 292.44C345.956 292.92 345.396 293.3 344.756 293.58C344.116 293.86 343.426 294 342.686 294H337.136C336.956 294 336.806 293.93 336.686 293.79C336.546 293.67 336.476 293.52 336.476 293.34V274.08C336.476 273.9 336.546 273.74 336.686 273.6C336.806 273.48 336.956 273.42 337.136 273.42H339.956C340.136 273.42 340.286 273.48 340.406 273.6C340.526 273.74 340.586 273.9 340.586 274.08V281.64H342.686C343.426 281.64 344.116 281.78 344.756 282.06ZM352.286 273.42C352.466 273.42 352.626 273.48 352.766 273.6C352.886 273.74 352.946 273.9 352.946 274.08V293.34C352.946 293.52 352.886 293.67 352.766 293.79C352.626 293.93 352.466 294 352.286 294H349.496C349.316 294 349.156 293.93 349.016 293.79C348.896 293.67 348.836 293.52 348.836 293.34V274.08C348.836 273.9 348.896 273.74 349.016 273.6C349.156 273.48 349.316 273.42 349.496 273.42H352.286ZM360.124 267.69C359.984 267.57 359.934 267.47 359.974 267.39C360.014 267.29 360.124 267.24 360.304 267.24H362.944C363.124 267.24 363.324 267.29 363.544 267.39C363.744 267.47 363.914 267.58 364.054 267.72L365.644 269.28L367.204 267.72C367.344 267.58 367.524 267.47 367.744 267.39C367.944 267.29 368.134 267.24 368.314 267.24H370.924C371.104 267.24 371.214 267.29 371.254 267.39C371.294 267.47 371.244 267.57 371.104 267.69L367.774 270.9C367.634 271.04 367.454 271.16 367.234 271.26C367.034 271.34 366.844 271.38 366.664 271.38H364.594C364.414 271.38 364.214 271.34 363.994 271.26C363.794 271.16 363.624 271.05 363.484 270.93L360.124 267.69ZM373.204 273.42C373.384 273.42 373.544 273.48 373.684 273.6C373.804 273.74 373.864 273.9 373.864 274.08V293.34C373.864 293.52 373.804 293.67 373.684 293.79C373.544 293.93 373.384 294 373.204 294H370.384C370.204 294 370.054 293.93 369.934 293.79C369.794 293.67 369.724 293.52 369.724 293.34V286.62L361.984 293.55C361.844 293.67 361.664 293.77 361.444 293.85C361.224 293.95 361.024 294 360.844 294H358.054C357.874 294 357.724 293.93 357.604 293.79C357.464 293.67 357.394 293.52 357.394 293.34V274.08C357.394 273.9 357.464 273.74 357.604 273.6C357.724 273.48 357.874 273.42 358.054 273.42H360.844C361.024 273.42 361.184 273.48 361.324 273.6C361.444 273.74 361.504 273.9 361.504 274.08V288.48L369.724 281.1V274.08C369.724 273.9 369.794 273.74 369.934 273.6C370.054 273.48 370.204 273.42 370.384 273.42H373.204ZM411.56 286.95C411.56 286.61 411.45 286.33 411.23 286.11C410.99 285.87 410.7 285.75 410.36 285.75H403.31V289.89H410.36C410.7 289.89 410.99 289.77 411.23 289.53C411.45 289.31 411.56 289.03 411.56 288.69V286.95ZM414.11 283.2C414.59 283.68 414.97 284.24 415.25 284.88C415.53 285.54 415.67 286.23 415.67 286.95V288.69C415.67 289.43 415.53 290.12 415.25 290.76C414.97 291.4 414.59 291.96 414.11 292.44C413.63 292.92 413.07 293.3 412.43 293.58C411.79 293.86 411.1 294 410.36 294H399.86C399.68 294 399.53 293.93 399.41 293.79C399.27 293.67 399.2 293.52 399.2 293.34V274.08C399.2 273.9 399.27 273.74 399.41 273.6C399.53 273.48 399.68 273.42 399.86 273.42H413.72C413.9 273.42 414.05 273.48 414.17 273.6C414.31 273.74 414.38 273.9 414.38 274.08V276.9C414.38 277.08 414.31 277.23 414.17 277.35C414.05 277.47 413.9 277.53 413.72 277.53H403.31V281.64H410.36C411.1 281.64 411.79 281.78 412.43 282.06C413.07 282.34 413.63 282.72 414.11 283.2ZM431.158 273.42C431.338 273.42 431.508 273.48 431.668 273.6C431.848 273.72 431.968 273.86 432.028 274.02L436.348 284.76C436.408 284.92 436.458 285.13 436.498 285.39C436.558 285.63 436.588 285.84 436.588 286.02V293.34C436.588 293.52 436.518 293.68 436.378 293.82C436.258 293.94 436.108 294 435.928 294H433.108C432.928 294 432.768 293.94 432.628 293.82C432.508 293.68 432.448 293.52 432.448 293.34V289.89H424.228V293.34C424.228 293.52 424.158 293.68 424.018 293.82C423.898 293.94 423.748 294 423.568 294H420.778C420.598 294 420.438 293.94 420.298 293.82C420.178 293.68 420.118 293.52 420.118 293.34V286.02C420.118 285.84 420.138 285.63 420.178 285.39C420.238 285.13 420.298 284.92 420.358 284.76L424.648 274.02C424.728 273.86 424.848 273.72 425.008 273.6C425.188 273.48 425.368 273.42 425.548 273.42H431.158ZM424.378 285.78H432.298L428.998 277.53H427.678L424.378 285.78ZM453.366 274.08C453.366 273.9 453.426 273.75 453.546 273.63C453.686 273.49 453.846 273.42 454.026 273.42H456.846C457.026 273.42 457.176 273.49 457.296 273.63C457.416 273.75 457.476 273.9 457.476 274.08V293.34C457.476 293.52 457.416 293.68 457.296 293.82C457.176 293.94 457.026 294 456.846 294H454.026C453.846 294 453.686 293.94 453.546 293.82C453.426 293.68 453.366 293.52 453.366 293.34V285.78H445.146V293.34C445.146 293.52 445.076 293.68 444.936 293.82C444.816 293.94 444.666 294 444.486 294H441.666C441.486 294 441.336 293.94 441.216 293.82C441.096 293.68 441.036 293.52 441.036 293.34V274.08C441.036 273.9 441.096 273.75 441.216 273.63C441.336 273.49 441.486 273.42 441.666 273.42H444.486C444.666 273.42 444.816 273.49 444.936 273.63C445.076 273.75 445.146 273.9 445.146 274.08V281.67H453.366V274.08ZM474.255 274.08C474.255 273.9 474.315 273.75 474.435 273.63C474.575 273.49 474.735 273.42 474.915 273.42H477.735C477.915 273.42 478.065 273.49 478.185 273.63C478.305 273.75 478.365 273.9 478.365 274.08V293.34C478.365 293.52 478.305 293.68 478.185 293.82C478.065 293.94 477.915 294 477.735 294H474.915C474.735 294 474.575 293.94 474.435 293.82C474.315 293.68 474.255 293.52 474.255 293.34V285.78H466.035V293.34C466.035 293.52 465.965 293.68 465.825 293.82C465.705 293.94 465.555 294 465.375 294H462.555C462.375 294 462.225 293.94 462.105 293.82C461.985 293.68 461.925 293.52 461.925 293.34V274.08C461.925 273.9 461.985 273.75 462.105 273.63C462.225 273.49 462.375 273.42 462.555 273.42H465.375C465.555 273.42 465.705 273.49 465.825 273.63C465.965 273.75 466.035 273.9 466.035 274.08V281.67H474.255V274.08ZM498.954 276.9C498.954 277.08 498.894 277.23 498.774 277.35C498.654 277.47 498.504 277.53 498.324 277.53H487.224V281.67H497.274C497.454 281.67 497.604 281.73 497.724 281.85C497.864 281.97 497.934 282.12 497.934 282.3V285.12C497.934 285.3 497.864 285.46 497.724 285.6C497.604 285.72 497.454 285.78 497.274 285.78H487.224V289.89H498.324C498.504 289.89 498.654 289.96 498.774 290.1C498.894 290.22 498.954 290.37 498.954 290.55V293.34C498.954 293.52 498.894 293.68 498.774 293.82C498.654 293.94 498.504 294 498.324 294H483.744C483.564 294 483.414 293.94 483.294 293.82C483.174 293.68 483.114 293.52 483.114 293.34V274.08C483.114 273.9 483.174 273.75 483.294 273.63C483.414 273.49 483.564 273.42 483.744 273.42H498.324C498.504 273.42 498.654 273.49 498.774 273.63C498.894 273.75 498.954 273.9 498.954 274.08V276.9ZM514.862 273.42C515.602 273.42 516.292 273.56 516.932 273.84C517.572 274.12 518.132 274.5 518.612 274.98C519.092 275.46 519.472 276.02 519.752 276.66C520.032 277.3 520.172 277.99 520.172 278.73V280.47C520.172 281.19 520.032 281.88 519.752 282.54C519.472 283.18 519.092 283.74 518.612 284.22C518.132 284.7 517.572 285.08 516.932 285.36C516.292 285.64 515.602 285.78 514.862 285.78H507.812V293.34C507.812 293.52 507.752 293.68 507.632 293.82C507.512 293.94 507.362 294 507.182 294H504.362C504.182 294 504.022 293.94 503.882 293.82C503.762 293.68 503.702 293.52 503.702 293.34V274.08C503.702 273.9 503.762 273.75 503.882 273.63C504.022 273.49 504.182 273.42 504.362 273.42H514.862ZM516.062 278.73C516.062 278.39 515.942 278.11 515.702 277.89C515.482 277.65 515.202 277.53 514.862 277.53H507.812V281.67H514.862C515.202 281.67 515.482 281.56 515.702 281.34C515.942 281.1 516.062 280.81 516.062 280.47V278.73ZM531.34 290.31C531.34 290.13 531.4 289.98 531.52 289.86C531.64 289.72 531.79 289.65 531.97 289.65H534.79C534.97 289.65 535.12 289.72 535.24 289.86C535.38 289.98 535.45 290.13 535.45 290.31V293.1C535.45 293.28 535.43 293.5 535.39 293.76C535.35 294 535.31 294.21 535.27 294.39L534.4 297.24C534.36 297.42 534.25 297.57 534.07 297.69C533.91 297.81 533.74 297.87 533.56 297.87H530.77C530.59 297.87 530.45 297.81 530.35 297.69C530.27 297.57 530.25 297.42 530.29 297.24L531.13 294.39C531.19 294.21 531.24 294 531.28 293.76C531.32 293.5 531.34 293.28 531.34 293.1V290.31ZM582.657 293.43C582.757 293.59 582.767 293.73 582.687 293.85C582.627 293.95 582.507 294 582.327 294H578.907C578.727 294 578.547 293.95 578.367 293.85C578.187 293.73 578.047 293.59 577.947 293.43L573.597 285.78H570.687V293.34C570.687 293.52 570.617 293.68 570.477 293.82C570.357 293.94 570.207 294 570.027 294H567.207C567.027 294 566.877 293.94 566.757 293.82C566.637 293.68 566.577 293.52 566.577 293.34V274.08C566.577 273.9 566.637 273.75 566.757 273.63C566.877 273.49 567.027 273.42 567.207 273.42H570.027C570.207 273.42 570.357 273.49 570.477 273.63C570.617 273.75 570.687 273.9 570.687 274.08V281.67H573.597L577.947 273.99C578.047 273.83 578.187 273.7 578.367 273.6C578.547 273.48 578.727 273.42 578.907 273.42H582.327C582.507 273.42 582.627 273.48 582.687 273.6C582.767 273.7 582.757 273.83 582.657 273.99L577.167 283.71L582.657 293.43ZM598.505 273.45C599.245 273.45 599.935 273.59 600.575 273.87C601.215 274.15 601.775 274.53 602.255 275.01C602.735 275.49 603.115 276.05 603.395 276.69C603.675 277.33 603.815 278.01 603.815 278.73V288.72C603.815 289.44 603.675 290.12 603.395 290.76C603.115 291.4 602.735 291.96 602.255 292.44C601.775 292.92 601.215 293.3 600.575 293.58C599.935 293.86 599.245 294 598.505 294H592.655C591.915 294 591.225 293.86 590.585 293.58C589.945 293.3 589.385 292.92 588.905 292.44C588.425 291.96 588.045 291.4 587.765 290.76C587.485 290.12 587.345 289.44 587.345 288.72V278.73C587.345 278.01 587.485 277.33 587.765 276.69C588.045 276.05 588.425 275.49 588.905 275.01C589.385 274.53 589.945 274.15 590.585 273.87C591.225 273.59 591.915 273.45 592.655 273.45H598.505ZM599.705 278.73C599.705 278.39 599.585 278.11 599.345 277.89C599.125 277.67 598.845 277.56 598.505 277.56H592.655C592.315 277.56 592.025 277.67 591.785 277.89C591.565 278.11 591.455 278.39 591.455 278.73V288.72C591.455 289.06 591.565 289.34 591.785 289.56C592.025 289.78 592.315 289.89 592.655 289.89H598.505C598.845 289.89 599.125 289.78 599.345 289.56C599.585 289.34 599.705 289.06 599.705 288.72V278.73ZM624.073 273.42C624.253 273.42 624.403 273.49 624.523 273.63C624.663 273.75 624.733 273.9 624.733 274.08V276.9C624.733 277.08 624.663 277.23 624.523 277.35C624.403 277.47 624.253 277.53 624.073 277.53H618.553V293.34C618.553 293.52 618.483 293.68 618.343 293.82C618.223 293.94 618.073 294 617.893 294H615.073C614.893 294 614.743 293.94 614.623 293.82C614.503 293.68 614.443 293.52 614.443 293.34V277.53H608.923C608.743 277.53 608.583 277.47 608.443 277.35C608.323 277.23 608.263 277.08 608.263 276.9V274.08C608.263 273.9 608.323 273.75 608.443 273.63C608.583 273.49 608.743 273.42 608.923 273.42H624.073ZM640.341 273.45C641.081 273.45 641.771 273.59 642.411 273.87C643.051 274.15 643.611 274.53 644.091 275.01C644.571 275.49 644.951 276.05 645.231 276.69C645.511 277.33 645.651 278.01 645.651 278.73V288.72C645.651 289.44 645.511 290.12 645.231 290.76C644.951 291.4 644.571 291.96 644.091 292.44C643.611 292.92 643.051 293.3 642.411 293.58C641.771 293.86 641.081 294 640.341 294H634.491C633.751 294 633.061 293.86 632.421 293.58C631.781 293.3 631.221 292.92 630.741 292.44C630.261 291.96 629.881 291.4 629.601 290.76C629.321 290.12 629.181 289.44 629.181 288.72V278.73C629.181 278.01 629.321 277.33 629.601 276.69C629.881 276.05 630.261 275.49 630.741 275.01C631.221 274.53 631.781 274.15 632.421 273.87C633.061 273.59 633.751 273.45 634.491 273.45H640.341ZM641.541 278.73C641.541 278.39 641.421 278.11 641.181 277.89C640.961 277.67 640.681 277.56 640.341 277.56H634.491C634.151 277.56 633.861 277.67 633.621 277.89C633.401 278.11 633.291 278.39 633.291 278.73V288.72C633.291 289.06 633.401 289.34 633.621 289.56C633.861 289.78 634.151 289.89 634.491 289.89H640.341C640.681 289.89 640.961 289.78 641.181 289.56C641.421 289.34 641.541 289.06 641.541 288.72V278.73ZM661.259 273.42C661.999 273.42 662.689 273.56 663.329 273.84C663.969 274.12 664.529 274.5 665.009 274.98C665.489 275.46 665.869 276.02 666.149 276.66C666.429 277.3 666.569 277.99 666.569 278.73V280.47C666.569 281.19 666.429 281.88 666.149 282.54C665.869 283.18 665.489 283.74 665.009 284.22C664.529 284.7 663.969 285.08 663.329 285.36C662.689 285.64 661.999 285.78 661.259 285.78H654.209V293.34C654.209 293.52 654.149 293.68 654.029 293.82C653.909 293.94 653.759 294 653.579 294H650.759C650.579 294 650.419 293.94 650.279 293.82C650.159 293.68 650.099 293.52 650.099 293.34V274.08C650.099 273.9 650.159 273.75 650.279 273.63C650.419 273.49 650.579 273.42 650.759 273.42H661.259ZM662.459 278.73C662.459 278.39 662.339 278.11 662.099 277.89C661.879 277.65 661.599 277.53 661.259 277.53H654.209V281.67H661.259C661.599 281.67 661.879 281.56 662.099 281.34C662.339 281.1 662.459 280.81 662.459 280.47V278.73ZM678.427 286.95C678.427 286.61 678.317 286.33 678.097 286.11C677.857 285.87 677.567 285.75 677.227 285.75H675.127V289.89H677.227C677.567 289.89 677.857 289.77 678.097 289.53C678.317 289.31 678.427 289.03 678.427 288.69V286.95ZM679.297 282.06C679.937 282.34 680.497 282.72 680.977 283.2C681.457 283.68 681.837 284.24 682.117 284.88C682.397 285.54 682.537 286.23 682.537 286.95V288.69C682.537 289.43 682.397 290.12 682.117 290.76C681.837 291.4 681.457 291.96 680.977 292.44C680.497 292.92 679.937 293.3 679.297 293.58C678.657 293.86 677.967 294 677.227 294H671.677C671.497 294 671.347 293.93 671.227 293.79C671.087 293.67 671.017 293.52 671.017 293.34V274.08C671.017 273.9 671.087 273.74 671.227 273.6C671.347 273.48 671.497 273.42 671.677 273.42H674.497C674.677 273.42 674.827 273.48 674.947 273.6C675.067 273.74 675.127 273.9 675.127 274.08V281.64H677.227C677.967 281.64 678.657 281.78 679.297 282.06ZM686.827 273.42C687.007 273.42 687.167 273.48 687.307 273.6C687.427 273.74 687.487 273.9 687.487 274.08V293.34C687.487 293.52 687.427 293.67 687.307 293.79C687.167 293.93 687.007 294 686.827 294H684.037C683.857 294 683.697 293.93 683.557 293.79C683.437 293.67 683.377 293.52 683.377 293.34V274.08C683.377 273.9 683.437 273.74 683.557 273.6C683.697 273.48 683.857 273.42 684.037 273.42H686.827ZM694.665 267.69C694.525 267.57 694.475 267.47 694.515 267.39C694.555 267.29 694.665 267.24 694.845 267.24H697.485C697.665 267.24 697.865 267.29 698.085 267.39C698.285 267.47 698.455 267.58 698.595 267.72L700.185 269.28L701.745 267.72C701.885 267.58 702.065 267.47 702.285 267.39C702.485 267.29 702.675 267.24 702.855 267.24H705.465C705.645 267.24 705.755 267.29 705.795 267.39C705.835 267.47 705.785 267.57 705.645 267.69L702.315 270.9C702.175 271.04 701.995 271.16 701.775 271.26C701.575 271.34 701.385 271.38 701.205 271.38H699.135C698.955 271.38 698.755 271.34 698.535 271.26C698.335 271.16 698.165 271.05 698.025 270.93L694.665 267.69ZM707.745 273.42C707.925 273.42 708.085 273.48 708.225 273.6C708.345 273.74 708.405 273.9 708.405 274.08V293.34C708.405 293.52 708.345 293.67 708.225 293.79C708.085 293.93 707.925 294 707.745 294H704.925C704.745 294 704.595 293.93 704.475 293.79C704.335 293.67 704.265 293.52 704.265 293.34V286.62L696.525 293.55C696.385 293.67 696.205 293.77 695.985 293.85C695.765 293.95 695.565 294 695.385 294H692.595C692.415 294 692.265 293.93 692.145 293.79C692.005 293.67 691.935 293.52 691.935 293.34V274.08C691.935 273.9 692.005 273.74 692.145 273.6C692.265 273.48 692.415 273.42 692.595 273.42H695.385C695.565 273.42 695.725 273.48 695.865 273.6C695.985 273.74 696.045 273.9 696.045 274.08V288.48L704.265 281.1V274.08C704.265 273.9 704.335 273.74 704.475 273.6C704.595 273.48 704.745 273.42 704.925 273.42H707.745ZM746.761 279.6C746.581 279.6 746.421 279.54 746.281 279.42C746.161 279.28 746.101 279.12 746.101 278.94V278.73C746.101 278.39 745.981 278.11 745.741 277.89C745.521 277.65 745.241 277.53 744.901 277.53H739.051C738.711 277.53 738.431 277.65 738.211 277.89C737.991 278.11 737.881 278.39 737.881 278.73V288.69C737.881 289.03 737.991 289.32 738.211 289.56C738.431 289.78 738.711 289.89 739.051 289.89H744.901C745.241 289.89 745.521 289.78 745.741 289.56C745.981 289.32 746.101 289.03 746.101 288.69V288.48C746.101 288.3 746.161 288.15 746.281 288.03C746.421 287.89 746.581 287.82 746.761 287.82H749.551C749.731 287.82 749.881 287.89 750.001 288.03C750.141 288.15 750.211 288.3 750.211 288.48V288.69C750.211 289.43 750.071 290.12 749.791 290.76C749.511 291.4 749.131 291.96 748.651 292.44C748.171 292.92 747.611 293.3 746.971 293.58C746.331 293.86 745.641 294 744.901 294H739.051C738.331 294 737.641 293.86 736.981 293.58C736.341 293.3 735.781 292.92 735.301 292.44C734.821 291.96 734.441 291.4 734.161 290.76C733.881 290.12 733.741 289.43 733.741 288.69V278.73C733.741 277.99 733.881 277.3 734.161 276.66C734.441 276.02 734.821 275.46 735.301 274.98C735.781 274.5 736.341 274.12 736.981 273.84C737.641 273.56 738.331 273.42 739.051 273.42H744.901C745.641 273.42 746.331 273.56 746.971 273.84C747.611 274.12 748.171 274.5 748.651 274.98C749.131 275.46 749.511 276.02 749.791 276.66C750.071 277.3 750.211 277.99 750.211 278.73V278.94C750.211 279.12 750.141 279.28 750.001 279.42C749.881 279.54 749.731 279.6 749.551 279.6H746.761ZM770.469 273.42C770.649 273.42 770.809 273.48 770.949 273.6C771.069 273.74 771.129 273.9 771.129 274.08V293.34C771.129 293.52 771.069 293.67 770.949 293.79C770.809 293.93 770.649 294 770.469 294H767.679C767.499 294 767.349 293.93 767.229 293.79C767.089 293.67 767.019 293.52 767.019 293.34V280.53L764.559 284.43C764.459 284.59 764.319 284.73 764.139 284.85C763.939 284.95 763.749 285 763.569 285H762.249C762.069 285 761.879 284.95 761.679 284.85C761.499 284.73 761.359 284.59 761.259 284.43L758.769 280.5V293.34C758.769 293.52 758.709 293.67 758.589 293.79C758.449 293.93 758.289 294 758.109 294H755.319C755.139 294 754.989 293.93 754.869 293.79C754.729 293.67 754.659 293.52 754.659 293.34V274.08C754.659 273.9 754.729 273.74 754.869 273.6C754.989 273.48 755.139 273.42 755.319 273.42H758.109L758.319 273.45C758.419 273.47 758.519 273.52 758.619 273.6C758.819 273.7 758.969 273.83 759.069 273.99L762.909 280.62L766.749 273.99C766.849 273.83 766.989 273.7 767.169 273.6L767.409 273.48C767.489 273.44 767.579 273.42 767.679 273.42H770.469ZM786.737 273.45C787.477 273.45 788.167 273.59 788.807 273.87C789.447 274.15 790.007 274.53 790.487 275.01C790.967 275.49 791.347 276.05 791.627 276.69C791.907 277.33 792.047 278.01 792.047 278.73V288.72C792.047 289.44 791.907 290.12 791.627 290.76C791.347 291.4 790.967 291.96 790.487 292.44C790.007 292.92 789.447 293.3 788.807 293.58C788.167 293.86 787.477 294 786.737 294H780.887C780.147 294 779.457 293.86 778.817 293.58C778.177 293.3 777.617 292.92 777.137 292.44C776.657 291.96 776.277 291.4 775.997 290.76C775.717 290.12 775.577 289.44 775.577 288.72V278.73C775.577 278.01 775.717 277.33 775.997 276.69C776.277 276.05 776.657 275.49 777.137 275.01C777.617 274.53 778.177 274.15 778.817 273.87C779.457 273.59 780.147 273.45 780.887 273.45H786.737ZM787.937 278.73C787.937 278.39 787.817 278.11 787.577 277.89C787.357 277.67 787.077 277.56 786.737 277.56H780.887C780.547 277.56 780.257 277.67 780.017 277.89C779.797 278.11 779.687 278.39 779.687 278.73V288.72C779.687 289.06 779.797 289.34 780.017 289.56C780.257 289.78 780.547 289.89 780.887 289.89H786.737C787.077 289.89 787.357 289.78 787.577 289.56C787.817 289.34 787.937 289.06 787.937 288.72V278.73ZM812.965 278.88C812.965 279.06 812.915 279.26 812.815 279.48C812.715 279.68 812.595 279.84 812.455 279.96L807.955 283.71L812.455 287.49C812.595 287.59 812.715 287.75 812.815 287.97C812.915 288.17 812.965 288.36 812.965 288.54V293.37C812.965 293.53 812.905 293.67 812.785 293.79C812.645 293.93 812.485 294 812.305 294H809.485C809.305 294 809.155 293.93 809.035 293.79C808.895 293.67 808.825 293.53 808.825 293.37V290.49C808.825 290.31 808.785 290.11 808.705 289.89C808.605 289.69 808.485 289.53 808.345 289.41L806.785 288.12V293.34C806.785 293.52 806.725 293.67 806.605 293.79C806.465 293.93 806.305 294 806.125 294H803.335C803.155 294 802.995 293.93 802.855 293.79C802.735 293.67 802.675 293.52 802.675 293.34V288.12L801.115 289.41C800.975 289.53 800.855 289.69 800.755 289.89C800.655 290.11 800.605 290.31 800.605 290.49V293.37C800.605 293.53 800.545 293.67 800.425 293.79C800.305 293.93 800.155 294 799.975 294H797.155C796.975 294 796.825 293.93 796.705 293.79C796.565 293.67 796.495 293.53 796.495 293.37V288.54C796.495 288.36 796.545 288.17 796.645 287.97C796.725 287.75 796.845 287.59 797.005 287.49L801.505 283.71L797.005 279.96C796.845 279.84 796.725 279.68 796.645 279.48C796.545 279.26 796.495 279.06 796.495 278.88V274.08C796.495 273.9 796.565 273.74 796.705 273.6C796.825 273.48 796.975 273.42 797.155 273.42H799.975C800.155 273.42 800.305 273.48 800.425 273.6C800.545 273.74 800.605 273.9 800.605 274.08V276.96C800.605 277.14 800.655 277.33 800.755 277.53C800.855 277.75 800.975 277.92 801.115 278.04L802.675 279.33V274.08C802.675 273.9 802.735 273.74 802.855 273.6C802.995 273.48 803.155 273.42 803.335 273.42H806.125C806.305 273.42 806.465 273.48 806.605 273.6C806.725 273.74 806.785 273.9 806.785 274.08V279.33L808.345 278.04C808.485 277.92 808.605 277.75 808.705 277.53C808.785 277.33 808.825 277.14 808.825 276.96V274.08C808.825 273.9 808.895 273.74 809.035 273.6C809.155 273.48 809.305 273.42 809.485 273.42H812.305C812.485 273.42 812.645 273.48 812.785 273.6C812.905 273.74 812.965 273.9 812.965 274.08V278.88ZM833.553 276.9C833.553 277.08 833.493 277.23 833.373 277.35C833.253 277.47 833.103 277.53 832.923 277.53H821.823V281.67H831.873C832.053 281.67 832.203 281.73 832.323 281.85C832.463 281.97 832.533 282.12 832.533 282.3V285.12C832.533 285.3 832.463 285.46 832.323 285.6C832.203 285.72 832.053 285.78 831.873 285.78H821.823V289.89H832.923C833.103 289.89 833.253 289.96 833.373 290.1C833.493 290.22 833.553 290.37 833.553 290.55V293.34C833.553 293.52 833.493 293.68 833.373 293.82C833.253 293.94 833.103 294 832.923 294H818.343C818.163 294 818.013 293.94 817.893 293.82C817.773 293.68 817.713 293.52 817.713 293.34V274.08C817.713 273.9 817.773 273.75 817.893 273.63C818.013 273.49 818.163 273.42 818.343 273.42H832.923C833.103 273.42 833.253 273.49 833.373 273.63C833.493 273.75 833.553 273.9 833.553 274.08V276.9ZM854.112 273.42C854.292 273.42 854.442 273.49 854.562 273.63C854.702 273.75 854.772 273.9 854.772 274.08V276.9C854.772 277.08 854.702 277.23 854.562 277.35C854.442 277.47 854.292 277.53 854.112 277.53H848.592V293.34C848.592 293.52 848.522 293.68 848.382 293.82C848.262 293.94 848.112 294 847.932 294H845.112C844.932 294 844.782 293.94 844.662 293.82C844.542 293.68 844.482 293.52 844.482 293.34V277.53H838.962C838.782 277.53 838.622 277.47 838.482 277.35C838.362 277.23 838.302 277.08 838.302 276.9V274.08C838.302 273.9 838.362 273.75 838.482 273.63C838.622 273.49 838.782 273.42 838.962 273.42H854.112ZM80.6459 307.42C80.8259 307.42 80.9759 307.48 81.0959 307.6C81.2159 307.74 81.2759 307.9 81.2759 308.08V322.81C81.2559 323.51 81.1159 324.16 80.8559 324.76C80.5759 325.4 80.1959 325.96 79.7159 326.44C79.2359 326.92 78.6659 327.3 78.0059 327.58C77.3659 327.86 76.6859 328 75.9659 328H70.1159C69.3759 328 68.6859 327.86 68.0459 327.58C67.4059 327.3 66.8459 326.92 66.3659 326.44C65.8859 325.96 65.5059 325.4 65.2259 324.76C64.9459 324.12 64.8059 323.43 64.8059 322.69V322.48C64.8059 322.3 64.8759 322.15 65.0159 322.03C65.1359 321.89 65.2859 321.82 65.4659 321.82H68.2559C68.4359 321.82 68.5959 321.89 68.7359 322.03C68.8559 322.15 68.9159 322.3 68.9159 322.48V322.69C68.9159 323.03 69.0359 323.31 69.2759 323.53C69.4959 323.77 69.7759 323.89 70.1159 323.89H75.9659C76.3059 323.89 76.5859 323.77 76.8059 323.53C77.0259 323.31 77.1359 323.03 77.1359 322.69V319.78H70.1159C69.3759 319.78 68.6859 319.64 68.0459 319.36C67.4059 319.08 66.8459 318.7 66.3659 318.22C65.8859 317.74 65.5059 317.18 65.2259 316.54C64.9459 315.88 64.8059 315.19 64.8059 314.47V308.02C64.8059 307.86 64.8759 307.72 65.0159 307.6C65.1359 307.48 65.2859 307.42 65.4659 307.42H68.2859C68.4659 307.42 68.6159 307.48 68.7359 307.6C68.8559 307.72 68.9159 307.86 68.9159 308.02V314.47C68.9159 314.81 69.0359 315.09 69.2759 315.31C69.4959 315.55 69.7759 315.67 70.1159 315.67H77.1359V314.92H77.1659V308.08C77.1659 307.9 77.2259 307.74 77.3459 307.6C77.4859 307.48 77.6459 307.42 77.8259 307.42H80.6459ZM101.954 327.43C102.054 327.59 102.064 327.73 101.984 327.85C101.924 327.95 101.804 328 101.624 328H98.2039C98.0239 328 97.8439 327.95 97.6639 327.85C97.4839 327.73 97.3439 327.59 97.2439 327.43L92.8939 319.78H89.9839V327.34C89.9839 327.52 89.9139 327.68 89.7739 327.82C89.6539 327.94 89.5039 328 89.3239 328H86.5039C86.3239 328 86.1739 327.94 86.0539 327.82C85.9339 327.68 85.8739 327.52 85.8739 327.34V308.08C85.8739 307.9 85.9339 307.75 86.0539 307.63C86.1739 307.49 86.3239 307.42 86.5039 307.42H89.3239C89.5039 307.42 89.6539 307.49 89.7739 307.63C89.9139 307.75 89.9839 307.9 89.9839 308.08V315.67H92.8939L97.2439 307.99C97.3439 307.83 97.4839 307.7 97.6639 307.6C97.8439 307.48 98.0239 307.42 98.2039 307.42H101.624C101.804 307.42 101.924 307.48 101.984 307.6C102.064 307.7 102.054 307.83 101.954 307.99L96.4639 317.71L101.954 327.43ZM117.802 307.42C118.542 307.42 119.232 307.56 119.872 307.84C120.512 308.12 121.072 308.5 121.552 308.98C122.032 309.46 122.412 310.02 122.692 310.66C122.972 311.3 123.112 311.99 123.112 312.73V314.47C123.112 315.19 122.972 315.88 122.692 316.54C122.412 317.18 122.032 317.74 121.552 318.22C121.072 318.7 120.512 319.08 119.872 319.36C119.232 319.64 118.542 319.78 117.802 319.78H110.752V327.34C110.752 327.52 110.692 327.68 110.572 327.82C110.452 327.94 110.302 328 110.122 328H107.302C107.122 328 106.962 327.94 106.822 327.82C106.702 327.68 106.642 327.52 106.642 327.34V308.08C106.642 307.9 106.702 307.75 106.822 307.63C106.962 307.49 107.122 307.42 107.302 307.42H117.802ZM119.002 312.73C119.002 312.39 118.882 312.11 118.642 311.89C118.422 311.65 118.142 311.53 117.802 311.53H110.752V315.67H117.802C118.142 315.67 118.422 315.56 118.642 315.34C118.882 315.1 119.002 314.81 119.002 314.47V312.73ZM138.6 307.42C138.78 307.42 138.95 307.48 139.11 307.6C139.29 307.72 139.41 307.86 139.47 308.02L143.79 318.76C143.85 318.92 143.9 319.13 143.94 319.39C144 319.63 144.03 319.84 144.03 320.02V327.34C144.03 327.52 143.96 327.68 143.82 327.82C143.7 327.94 143.55 328 143.37 328H140.55C140.37 328 140.21 327.94 140.07 327.82C139.95 327.68 139.89 327.52 139.89 327.34V323.89H131.67V327.34C131.67 327.52 131.6 327.68 131.46 327.82C131.34 327.94 131.19 328 131.01 328H128.22C128.04 328 127.88 327.94 127.74 327.82C127.62 327.68 127.56 327.52 127.56 327.34V320.02C127.56 319.84 127.58 319.63 127.62 319.39C127.68 319.13 127.74 318.92 127.8 318.76L132.09 308.02C132.17 307.86 132.29 307.72 132.45 307.6C132.63 307.48 132.81 307.42 132.99 307.42H138.6ZM131.82 319.78H139.74L136.44 311.53H135.12L131.82 319.78ZM161.498 313.6C161.318 313.6 161.158 313.54 161.018 313.42C160.898 313.28 160.838 313.12 160.838 312.94V312.73C160.838 312.39 160.718 312.11 160.478 311.89C160.258 311.65 159.978 311.53 159.638 311.53H153.788C153.448 311.53 153.168 311.65 152.948 311.89C152.728 312.11 152.618 312.39 152.618 312.73V322.69C152.618 323.03 152.728 323.32 152.948 323.56C153.168 323.78 153.448 323.89 153.788 323.89H159.638C159.978 323.89 160.258 323.78 160.478 323.56C160.718 323.32 160.838 323.03 160.838 322.69V322.48C160.838 322.3 160.898 322.15 161.018 322.03C161.158 321.89 161.318 321.82 161.498 321.82H164.288C164.468 321.82 164.618 321.89 164.738 322.03C164.878 322.15 164.948 322.3 164.948 322.48V322.69C164.948 323.43 164.808 324.12 164.528 324.76C164.248 325.4 163.868 325.96 163.388 326.44C162.908 326.92 162.348 327.3 161.708 327.58C161.068 327.86 160.378 328 159.638 328H153.788C153.068 328 152.378 327.86 151.718 327.58C151.078 327.3 150.518 326.92 150.038 326.44C149.558 325.96 149.178 325.4 148.898 324.76C148.618 324.12 148.478 323.43 148.478 322.69V312.73C148.478 311.99 148.618 311.3 148.898 310.66C149.178 310.02 149.558 309.46 150.038 308.98C150.518 308.5 151.078 308.12 151.718 307.84C152.378 307.56 153.068 307.42 153.788 307.42H159.638C160.378 307.42 161.068 307.56 161.708 307.84C162.348 308.12 162.908 308.5 163.388 308.98C163.868 309.46 164.248 310.02 164.528 310.66C164.808 311.3 164.948 311.99 164.948 312.73V312.94C164.948 313.12 164.878 313.28 164.738 313.42C164.618 313.54 164.468 313.6 164.288 313.6H161.498ZM181.726 320.62L173.986 327.55C173.846 327.67 173.666 327.77 173.446 327.85C173.226 327.95 173.026 328 172.846 328H170.056C169.876 328 169.726 327.93 169.606 327.79C169.466 327.67 169.396 327.52 169.396 327.34V308.08C169.396 307.9 169.466 307.74 169.606 307.6C169.726 307.48 169.876 307.42 170.056 307.42H172.846C173.026 307.42 173.186 307.48 173.326 307.6C173.446 307.74 173.506 307.9 173.506 308.08V322.48L181.726 315.1V308.08C181.726 307.9 181.796 307.74 181.936 307.6C182.056 307.48 182.206 307.42 182.386 307.42H185.206C185.386 307.42 185.546 307.48 185.686 307.6C185.806 307.74 185.866 307.9 185.866 308.08V327.34C185.866 327.52 185.806 327.67 185.686 327.79C185.546 327.93 185.386 328 185.206 328H182.386C182.206 328 182.056 327.93 181.936 327.79C181.796 327.67 181.726 327.52 181.726 327.34V320.62ZM206.124 307.42C206.304 307.42 206.454 307.49 206.574 307.63C206.714 307.75 206.784 307.9 206.784 308.08V310.9C206.784 311.08 206.714 311.23 206.574 311.35C206.454 311.47 206.304 311.53 206.124 311.53H200.604V327.34C200.604 327.52 200.534 327.68 200.394 327.82C200.274 327.94 200.124 328 199.944 328H197.124C196.944 328 196.794 327.94 196.674 327.82C196.554 327.68 196.494 327.52 196.494 327.34V311.53H190.974C190.794 311.53 190.634 311.47 190.494 311.35C190.374 311.23 190.314 311.08 190.314 310.9V308.08C190.314 307.9 190.374 307.75 190.494 307.63C190.634 307.49 190.794 307.42 190.974 307.42H206.124ZM223.592 320.95C223.592 320.61 223.482 320.33 223.262 320.11C223.022 319.87 222.732 319.75 222.392 319.75H215.342V323.89H222.392C222.732 323.89 223.022 323.77 223.262 323.53C223.482 323.31 223.592 323.03 223.592 322.69V320.95ZM226.142 317.2C226.622 317.68 227.002 318.24 227.282 318.88C227.562 319.54 227.702 320.23 227.702 320.95V322.69C227.702 323.43 227.562 324.12 227.282 324.76C227.002 325.4 226.622 325.96 226.142 326.44C225.662 326.92 225.102 327.3 224.462 327.58C223.822 327.86 223.132 328 222.392 328H211.892C211.712 328 211.562 327.93 211.442 327.79C211.302 327.67 211.232 327.52 211.232 327.34V308.08C211.232 307.9 211.302 307.74 211.442 307.6C211.562 307.48 211.712 307.42 211.892 307.42H214.712C214.892 307.42 215.042 307.48 215.162 307.6C215.282 307.74 215.342 307.9 215.342 308.08V315.64H222.392C223.132 315.64 223.822 315.78 224.462 316.06C225.102 316.34 225.662 316.72 226.142 317.2ZM264.198 307.42C264.918 307.42 265.598 307.56 266.238 307.84C266.878 308.12 267.438 308.5 267.918 308.98C268.398 309.46 268.778 310.02 269.058 310.66C269.338 311.3 269.478 311.99 269.478 312.73V314.47C269.478 315.09 269.378 315.67 269.178 316.21C268.978 316.75 268.708 317.25 268.368 317.71C268.708 318.17 268.978 318.67 269.178 319.21C269.378 319.75 269.478 320.33 269.478 320.95V322.69C269.478 323.43 269.338 324.12 269.058 324.76C268.778 325.4 268.398 325.96 267.918 326.44C267.438 326.92 266.878 327.3 266.238 327.58C265.598 327.86 264.918 328 264.198 328H253.668C253.488 328 253.338 327.94 253.218 327.82C253.098 327.68 253.038 327.52 253.038 327.34V308.08C253.038 307.9 253.098 307.75 253.218 307.63C253.338 307.49 253.488 307.42 253.668 307.42H264.198ZM257.148 315.64H264.198C264.518 315.64 264.788 315.53 265.008 315.31C265.248 315.09 265.368 314.81 265.368 314.47V312.73C265.368 312.39 265.248 312.11 265.008 311.89C264.788 311.65 264.518 311.53 264.198 311.53H257.148V315.64ZM265.368 320.95C265.368 320.61 265.248 320.33 265.008 320.11C264.788 319.89 264.518 319.78 264.198 319.78H257.148V323.89H264.198C264.518 323.89 264.788 323.78 265.008 323.56C265.248 323.32 265.368 323.03 265.368 322.69V320.95ZM284.967 307.42C285.147 307.42 285.317 307.48 285.477 307.6C285.657 307.72 285.777 307.86 285.837 308.02L290.157 318.76C290.217 318.92 290.267 319.13 290.307 319.39C290.367 319.63 290.397 319.84 290.397 320.02V327.34C290.397 327.52 290.327 327.68 290.187 327.82C290.067 327.94 289.917 328 289.737 328H286.917C286.737 328 286.577 327.94 286.437 327.82C286.317 327.68 286.257 327.52 286.257 327.34V323.89H278.037V327.34C278.037 327.52 277.967 327.68 277.827 327.82C277.707 327.94 277.557 328 277.377 328H274.587C274.407 328 274.247 327.94 274.107 327.82C273.987 327.68 273.927 327.52 273.927 327.34V320.02C273.927 319.84 273.947 319.63 273.987 319.39C274.047 319.13 274.107 318.92 274.167 318.76L278.457 308.02C278.537 307.86 278.657 307.72 278.817 307.6C278.997 307.48 279.177 307.42 279.357 307.42H284.967ZM278.187 319.78H286.107L282.807 311.53H281.487L278.187 319.78ZM310.655 307.42C310.835 307.42 310.995 307.48 311.135 307.6C311.255 307.74 311.315 307.9 311.315 308.08V327.34C311.315 327.52 311.255 327.67 311.135 327.79C310.995 327.93 310.835 328 310.655 328H295.505C295.325 328 295.175 327.93 295.055 327.79C294.915 327.67 294.845 327.52 294.845 327.34V308.08C294.845 307.9 294.915 307.74 295.055 307.6C295.175 307.48 295.325 307.42 295.505 307.42H298.325C298.505 307.42 298.665 307.48 298.805 307.6C298.925 307.74 298.985 307.9 298.985 308.08V323.89H301.025V314.44C301.025 314.26 301.095 314.1 301.235 313.96C301.355 313.84 301.505 313.78 301.685 313.78H304.475C304.655 313.78 304.815 313.84 304.955 313.96C305.075 314.1 305.135 314.26 305.135 314.44V323.89H307.175V308.08C307.175 307.9 307.235 307.74 307.355 307.6C307.495 307.48 307.655 307.42 307.835 307.42H310.655ZM348.982 320.62L341.242 327.55C341.102 327.67 340.922 327.77 340.702 327.85C340.482 327.95 340.282 328 340.102 328H337.312C337.132 328 336.982 327.93 336.862 327.79C336.722 327.67 336.652 327.52 336.652 327.34V308.08C336.652 307.9 336.722 307.74 336.862 307.6C336.982 307.48 337.132 307.42 337.312 307.42H340.102C340.282 307.42 340.442 307.48 340.582 307.6C340.702 307.74 340.762 307.9 340.762 308.08V322.48L348.982 315.1V308.08C348.982 307.9 349.052 307.74 349.192 307.6C349.312 307.48 349.462 307.42 349.642 307.42H352.462C352.642 307.42 352.802 307.48 352.942 307.6C353.062 307.74 353.122 307.9 353.122 308.08V327.34C353.122 327.52 353.062 327.67 352.942 327.79C352.802 327.93 352.642 328 352.462 328H349.642C349.462 328 349.312 327.93 349.192 327.79C349.052 327.67 348.982 327.52 348.982 327.34V320.62ZM369.9 308.08C369.9 307.9 369.96 307.75 370.08 307.63C370.22 307.49 370.38 307.42 370.56 307.42H373.38C373.56 307.42 373.71 307.49 373.83 307.63C373.95 307.75 374.01 307.9 374.01 308.08V327.34C374.01 327.52 373.95 327.68 373.83 327.82C373.71 327.94 373.56 328 373.38 328H370.56C370.38 328 370.22 327.94 370.08 327.82C369.96 327.68 369.9 327.52 369.9 327.34V319.78H361.68V327.34C361.68 327.52 361.61 327.68 361.47 327.82C361.35 327.94 361.2 328 361.02 328H358.2C358.02 328 357.87 327.94 357.75 327.82C357.63 327.68 357.57 327.52 357.57 327.34V308.08C357.57 307.9 357.63 307.75 357.75 307.63C357.87 307.49 358.02 307.42 358.2 307.42H361.02C361.2 307.42 361.35 307.49 361.47 307.63C361.61 307.75 361.68 307.9 361.68 308.08V315.67H369.9V308.08ZM394.268 307.42C394.448 307.42 394.598 307.49 394.718 307.63C394.858 307.75 394.928 307.9 394.928 308.08V310.9C394.928 311.08 394.858 311.23 394.718 311.35C394.598 311.47 394.448 311.53 394.268 311.53H388.748V327.34C388.748 327.52 388.678 327.68 388.538 327.82C388.418 327.94 388.268 328 388.088 328H385.268C385.088 328 384.938 327.94 384.818 327.82C384.698 327.68 384.638 327.52 384.638 327.34V311.53H379.118C378.938 311.53 378.778 311.47 378.638 311.35C378.518 311.23 378.458 311.08 378.458 310.9V308.08C378.458 307.9 378.518 307.75 378.638 307.63C378.778 307.49 378.938 307.42 379.118 307.42H394.268ZM415.516 310.9C415.516 311.08 415.456 311.23 415.336 311.35C415.216 311.47 415.066 311.53 414.886 311.53H403.786V315.67H413.836C414.016 315.67 414.166 315.73 414.286 315.85C414.426 315.97 414.496 316.12 414.496 316.3V319.12C414.496 319.3 414.426 319.46 414.286 319.6C414.166 319.72 414.016 319.78 413.836 319.78H403.786V323.89H414.886C415.066 323.89 415.216 323.96 415.336 324.1C415.456 324.22 415.516 324.37 415.516 324.55V327.34C415.516 327.52 415.456 327.68 415.336 327.82C415.216 327.94 415.066 328 414.886 328H400.306C400.126 328 399.976 327.94 399.856 327.82C399.736 327.68 399.676 327.52 399.676 327.34V308.08C399.676 307.9 399.736 307.75 399.856 307.63C399.976 307.49 400.126 307.42 400.306 307.42H414.886C415.066 307.42 415.216 307.49 415.336 307.63C415.456 307.75 415.516 307.9 415.516 308.08V310.9ZM431.425 307.42C432.165 307.42 432.855 307.56 433.495 307.84C434.135 308.12 434.695 308.5 435.175 308.98C435.655 309.46 436.035 310.02 436.315 310.66C436.595 311.3 436.735 311.99 436.735 312.73V314.47C436.735 315.19 436.595 315.88 436.315 316.54C436.035 317.18 435.655 317.74 435.175 318.22C434.695 318.7 434.135 319.08 433.495 319.36C432.855 319.64 432.165 319.78 431.425 319.78H424.375V327.34C424.375 327.52 424.315 327.68 424.195 327.82C424.075 327.94 423.925 328 423.745 328H420.925C420.745 328 420.585 327.94 420.445 327.82C420.325 327.68 420.265 327.52 420.265 327.34V308.08C420.265 307.9 420.325 307.75 420.445 307.63C420.585 307.49 420.745 307.42 420.925 307.42H431.425ZM432.625 312.73C432.625 312.39 432.505 312.11 432.265 311.89C432.045 311.65 431.765 311.53 431.425 311.53H424.375V315.67H431.425C431.765 315.67 432.045 315.56 432.265 315.34C432.505 315.1 432.625 314.81 432.625 314.47V312.73ZM453.543 320.95C453.543 320.61 453.433 320.33 453.213 320.11C452.973 319.87 452.683 319.75 452.343 319.75H445.293V323.89H452.343C452.683 323.89 452.973 323.77 453.213 323.53C453.433 323.31 453.543 323.03 453.543 322.69V320.95ZM456.093 317.2C456.573 317.68 456.953 318.24 457.233 318.88C457.513 319.54 457.653 320.23 457.653 320.95V322.69C457.653 323.43 457.513 324.12 457.233 324.76C456.953 325.4 456.573 325.96 456.093 326.44C455.613 326.92 455.053 327.3 454.413 327.58C453.773 327.86 453.083 328 452.343 328H441.843C441.663 328 441.513 327.93 441.393 327.79C441.253 327.67 441.183 327.52 441.183 327.34V308.08C441.183 307.9 441.253 307.74 441.393 307.6C441.513 307.48 441.663 307.42 441.843 307.42H444.663C444.843 307.42 444.993 307.48 445.113 307.6C445.233 307.74 445.293 307.9 445.293 308.08V315.64H452.343C453.083 315.64 453.773 315.78 454.413 316.06C455.053 316.34 455.613 316.72 456.093 317.2ZM478.241 310.9C478.241 311.08 478.181 311.23 478.061 311.35C477.941 311.47 477.791 311.53 477.611 311.53H466.511V315.67H476.561C476.741 315.67 476.891 315.73 477.011 315.85C477.151 315.97 477.221 316.12 477.221 316.3V319.12C477.221 319.3 477.151 319.46 477.011 319.6C476.891 319.72 476.741 319.78 476.561 319.78H466.511V323.89H477.611C477.791 323.89 477.941 323.96 478.061 324.1C478.181 324.22 478.241 324.37 478.241 324.55V327.34C478.241 327.52 478.181 327.68 478.061 327.82C477.941 327.94 477.791 328 477.611 328H463.031C462.851 328 462.701 327.94 462.581 327.82C462.461 327.68 462.401 327.52 462.401 327.34V308.08C462.401 307.9 462.461 307.75 462.581 307.63C462.701 307.49 462.851 307.42 463.031 307.42H477.611C477.791 307.42 477.941 307.49 478.061 307.63C478.181 307.75 478.241 307.9 478.241 308.08V310.9ZM494.15 307.42C494.89 307.42 495.58 307.56 496.22 307.84C496.86 308.12 497.42 308.5 497.9 308.98C498.38 309.46 498.76 310.02 499.04 310.66C499.32 311.3 499.46 311.99 499.46 312.73V314.47C499.46 315.19 499.32 315.88 499.04 316.54C498.76 317.18 498.38 317.74 497.9 318.22C497.42 318.7 496.86 319.08 496.22 319.36C495.58 319.64 494.89 319.78 494.15 319.78H487.1V327.34C487.1 327.52 487.04 327.68 486.92 327.82C486.8 327.94 486.65 328 486.47 328H483.65C483.47 328 483.31 327.94 483.17 327.82C483.05 327.68 482.99 327.52 482.99 327.34V308.08C482.99 307.9 483.05 307.75 483.17 307.63C483.31 307.49 483.47 307.42 483.65 307.42H494.15ZM495.35 312.73C495.35 312.39 495.23 312.11 494.99 311.89C494.77 311.65 494.49 311.53 494.15 311.53H487.1V315.67H494.15C494.49 315.67 494.77 315.56 494.99 315.34C495.23 315.1 495.35 314.81 495.35 314.47V312.73ZM537.126 320.62L529.386 327.55C529.246 327.67 529.066 327.77 528.846 327.85C528.626 327.95 528.426 328 528.246 328H525.456C525.276 328 525.126 327.93 525.006 327.79C524.866 327.67 524.796 327.52 524.796 327.34V308.08C524.796 307.9 524.866 307.74 525.006 307.6C525.126 307.48 525.276 307.42 525.456 307.42H528.246C528.426 307.42 528.586 307.48 528.726 307.6C528.846 307.74 528.906 307.9 528.906 308.08V322.48L537.126 315.1V308.08C537.126 307.9 537.196 307.74 537.336 307.6C537.456 307.48 537.606 307.42 537.786 307.42H540.606C540.786 307.42 540.946 307.48 541.086 307.6C541.206 307.74 541.266 307.9 541.266 308.08V327.34C541.266 327.52 541.206 327.67 541.086 327.79C540.946 327.93 540.786 328 540.606 328H537.786C537.606 328 537.456 327.93 537.336 327.79C537.196 327.67 537.126 327.52 537.126 327.34V320.62ZM556.724 307.42C556.904 307.42 557.084 307.48 557.264 307.6C557.444 307.72 557.564 307.86 557.624 308.02L561.914 318.76C561.994 318.92 562.054 319.12 562.094 319.36C562.134 319.62 562.154 319.84 562.154 320.02V327.34C562.154 327.52 562.094 327.67 561.974 327.79C561.854 327.93 561.704 328 561.524 328H558.704C558.524 328 558.374 327.93 558.254 327.79C558.114 327.67 558.044 327.52 558.044 327.34V320.8C558.044 320.62 558.024 320.41 557.984 320.17C557.944 319.93 557.884 319.73 557.804 319.57L554.594 311.53H553.274L550.064 319.57C549.984 319.73 549.924 319.93 549.884 320.17C549.844 320.41 549.824 320.62 549.824 320.8V327.34C549.824 327.52 549.764 327.67 549.644 327.79C549.504 327.93 549.344 328 549.164 328H546.344C546.164 328 546.014 327.93 545.894 327.79C545.774 327.67 545.714 327.52 545.714 327.34V320.02C545.714 319.84 545.734 319.62 545.774 319.36C545.814 319.12 545.874 318.92 545.954 318.76L550.244 308.02C550.304 307.86 550.424 307.72 550.604 307.6C550.784 307.48 550.964 307.42 551.144 307.42H556.724ZM578.933 320.62L571.193 327.55C571.053 327.67 570.873 327.77 570.653 327.85C570.433 327.95 570.233 328 570.053 328H567.263C567.083 328 566.933 327.93 566.813 327.79C566.673 327.67 566.603 327.52 566.603 327.34V308.08C566.603 307.9 566.673 307.74 566.813 307.6C566.933 307.48 567.083 307.42 567.263 307.42H570.053C570.233 307.42 570.393 307.48 570.533 307.6C570.653 307.74 570.713 307.9 570.713 308.08V322.48L578.933 315.1V308.08C578.933 307.9 579.003 307.74 579.143 307.6C579.263 307.48 579.413 307.42 579.593 307.42H582.413C582.593 307.42 582.753 307.48 582.893 307.6C583.013 307.74 583.073 307.9 583.073 308.08V327.34C583.073 327.52 583.013 327.67 582.893 327.79C582.753 327.93 582.593 328 582.413 328H579.593C579.413 328 579.263 327.93 579.143 327.79C579.003 327.67 578.933 327.52 578.933 327.34V320.62ZM619.269 323.89V311.53H615.189C614.849 311.53 614.569 311.64 614.349 311.86C614.129 312.1 614.019 312.39 614.019 312.73V323.89H619.269ZM624.219 323.89C624.399 323.89 624.549 323.95 624.669 324.07C624.789 324.21 624.849 324.37 624.849 324.55V330.22C624.849 330.4 624.789 330.55 624.669 330.67C624.529 330.81 624.369 330.88 624.189 330.88H621.369C621.189 330.88 621.039 330.81 620.919 330.67C620.799 330.55 620.739 330.4 620.739 330.22V328H612.519V330.22C612.519 330.4 612.459 330.55 612.339 330.67C612.199 330.81 612.039 330.88 611.859 330.88H609.039C608.859 330.88 608.709 330.81 608.589 330.67C608.469 330.55 608.409 330.4 608.409 330.22V324.55C608.409 324.37 608.469 324.21 608.589 324.07C608.709 323.95 608.859 323.89 609.039 323.89H609.879V312.73C609.879 311.99 610.019 311.3 610.299 310.66C610.579 310.02 610.959 309.46 611.439 308.98C611.919 308.5 612.489 308.12 613.149 307.84C613.789 307.56 614.469 307.42 615.189 307.42H622.749C622.929 307.42 623.079 307.48 623.199 307.6C623.319 307.74 623.379 307.9 623.379 308.08V323.89H624.219ZM640.338 307.42C640.518 307.42 640.688 307.48 640.848 307.6C641.028 307.72 641.148 307.86 641.208 308.02L645.528 318.76C645.588 318.92 645.638 319.13 645.678 319.39C645.738 319.63 645.768 319.84 645.768 320.02V327.34C645.768 327.52 645.698 327.68 645.558 327.82C645.438 327.94 645.288 328 645.108 328H642.288C642.108 328 641.948 327.94 641.808 327.82C641.688 327.68 641.628 327.52 641.628 327.34V323.89H633.408V327.34C633.408 327.52 633.338 327.68 633.198 327.82C633.078 327.94 632.928 328 632.748 328H629.958C629.778 328 629.618 327.94 629.478 327.82C629.358 327.68 629.298 327.52 629.298 327.34V320.02C629.298 319.84 629.318 319.63 629.358 319.39C629.418 319.13 629.478 318.92 629.538 318.76L633.828 308.02C633.908 307.86 634.028 307.72 634.188 307.6C634.368 307.48 634.548 307.42 634.728 307.42H640.338ZM633.558 319.78H641.478L638.178 311.53H636.858L633.558 319.78ZM666.686 312.88C666.686 313.06 666.636 313.26 666.536 313.48C666.436 313.68 666.316 313.84 666.176 313.96L661.676 317.71L666.176 321.49C666.316 321.59 666.436 321.75 666.536 321.97C666.636 322.17 666.686 322.36 666.686 322.54V327.37C666.686 327.53 666.626 327.67 666.506 327.79C666.366 327.93 666.206 328 666.026 328H663.206C663.026 328 662.876 327.93 662.756 327.79C662.616 327.67 662.546 327.53 662.546 327.37V324.49C662.546 324.31 662.506 324.11 662.426 323.89C662.326 323.69 662.206 323.53 662.066 323.41L660.506 322.12V327.34C660.506 327.52 660.446 327.67 660.326 327.79C660.186 327.93 660.026 328 659.846 328H657.056C656.876 328 656.716 327.93 656.576 327.79C656.456 327.67 656.396 327.52 656.396 327.34V322.12L654.836 323.41C654.696 323.53 654.576 323.69 654.476 323.89C654.376 324.11 654.326 324.31 654.326 324.49V327.37C654.326 327.53 654.266 327.67 654.146 327.79C654.026 327.93 653.876 328 653.696 328H650.876C650.696 328 650.546 327.93 650.426 327.79C650.286 327.67 650.216 327.53 650.216 327.37V322.54C650.216 322.36 650.266 322.17 650.366 321.97C650.446 321.75 650.566 321.59 650.726 321.49L655.226 317.71L650.726 313.96C650.566 313.84 650.446 313.68 650.366 313.48C650.266 313.26 650.216 313.06 650.216 312.88V308.08C650.216 307.9 650.286 307.74 650.426 307.6C650.546 307.48 650.696 307.42 650.876 307.42H653.696C653.876 307.42 654.026 307.48 654.146 307.6C654.266 307.74 654.326 307.9 654.326 308.08V310.96C654.326 311.14 654.376 311.33 654.476 311.53C654.576 311.75 654.696 311.92 654.836 312.04L656.396 313.33V308.08C656.396 307.9 656.456 307.74 656.576 307.6C656.716 307.48 656.876 307.42 657.056 307.42H659.846C660.026 307.42 660.186 307.48 660.326 307.6C660.446 307.74 660.506 307.9 660.506 308.08V313.33L662.066 312.04C662.206 311.92 662.326 311.75 662.426 311.53C662.506 311.33 662.546 311.14 662.546 310.96V308.08C662.546 307.9 662.616 307.74 662.756 307.6C662.876 307.48 663.026 307.42 663.206 307.42H666.026C666.206 307.42 666.366 307.48 666.506 307.6C666.626 307.74 666.686 307.9 666.686 308.08V312.88ZM687.274 310.9C687.274 311.08 687.214 311.23 687.094 311.35C686.974 311.47 686.824 311.53 686.644 311.53H675.544V315.67H685.594C685.774 315.67 685.924 315.73 686.044 315.85C686.184 315.97 686.254 316.12 686.254 316.3V319.12C686.254 319.3 686.184 319.46 686.044 319.6C685.924 319.72 685.774 319.78 685.594 319.78H675.544V323.89H686.644C686.824 323.89 686.974 323.96 687.094 324.1C687.214 324.22 687.274 324.37 687.274 324.55V327.34C687.274 327.52 687.214 327.68 687.094 327.82C686.974 327.94 686.824 328 686.644 328H672.064C671.884 328 671.734 327.94 671.614 327.82C671.494 327.68 671.434 327.52 671.434 327.34V308.08C671.434 307.9 671.494 307.75 671.614 307.63C671.734 307.49 671.884 307.42 672.064 307.42H686.644C686.824 307.42 686.974 307.49 687.094 307.63C687.214 307.75 687.274 307.9 687.274 308.08V310.9ZM724.071 307.42C724.791 307.42 725.471 307.56 726.111 307.84C726.751 308.12 727.311 308.5 727.791 308.98C728.271 309.46 728.651 310.02 728.931 310.66C729.211 311.3 729.351 311.99 729.351 312.73V314.47C729.351 315.09 729.251 315.67 729.051 316.21C728.851 316.75 728.581 317.25 728.241 317.71C728.581 318.17 728.851 318.67 729.051 319.21C729.251 319.75 729.351 320.33 729.351 320.95V322.69C729.351 323.43 729.211 324.12 728.931 324.76C728.651 325.4 728.271 325.96 727.791 326.44C727.311 326.92 726.751 327.3 726.111 327.58C725.471 327.86 724.791 328 724.071 328H713.541C713.361 328 713.211 327.94 713.091 327.82C712.971 327.68 712.911 327.52 712.911 327.34V308.08C712.911 307.9 712.971 307.75 713.091 307.63C713.211 307.49 713.361 307.42 713.541 307.42H724.071ZM717.021 315.64H724.071C724.391 315.64 724.661 315.53 724.881 315.31C725.121 315.09 725.241 314.81 725.241 314.47V312.73C725.241 312.39 725.121 312.11 724.881 311.89C724.661 311.65 724.391 311.53 724.071 311.53H717.021V315.64ZM725.241 320.95C725.241 320.61 725.121 320.33 724.881 320.11C724.661 319.89 724.391 319.78 724.071 319.78H717.021V323.89H724.071C724.391 323.89 724.661 323.78 724.881 323.56C725.121 323.32 725.241 323.03 725.241 322.69V320.95ZM746.13 308.08C746.13 307.9 746.19 307.75 746.31 307.63C746.45 307.49 746.61 307.42 746.79 307.42H749.61C749.79 307.42 749.94 307.49 750.06 307.63C750.18 307.75 750.24 307.9 750.24 308.08V327.34C750.24 327.52 750.18 327.68 750.06 327.82C749.94 327.94 749.79 328 749.61 328H746.79C746.61 328 746.45 327.94 746.31 327.82C746.19 327.68 746.13 327.52 746.13 327.34V319.78H737.91V327.34C737.91 327.52 737.84 327.68 737.7 327.82C737.58 327.94 737.43 328 737.25 328H734.43C734.25 328 734.1 327.94 733.98 327.82C733.86 327.68 733.8 327.52 733.8 327.34V308.08C733.8 307.9 733.86 307.75 733.98 307.63C734.1 307.49 734.25 307.42 734.43 307.42H737.25C737.43 307.42 737.58 307.49 737.7 307.63C737.84 307.75 737.91 307.9 737.91 308.08V315.67H746.13V308.08ZM770.829 310.9C770.829 311.08 770.769 311.23 770.649 311.35C770.529 311.47 770.379 311.53 770.199 311.53H759.099V315.67H769.149C769.329 315.67 769.479 315.73 769.599 315.85C769.739 315.97 769.809 316.12 769.809 316.3V319.12C769.809 319.3 769.739 319.46 769.599 319.6C769.479 319.72 769.329 319.78 769.149 319.78H759.099V323.89H770.199C770.379 323.89 770.529 323.96 770.649 324.1C770.769 324.22 770.829 324.37 770.829 324.55V327.34C770.829 327.52 770.769 327.68 770.649 327.82C770.529 327.94 770.379 328 770.199 328H755.619C755.439 328 755.289 327.94 755.169 327.82C755.049 327.68 754.989 327.52 754.989 327.34V308.08C754.989 307.9 755.049 307.75 755.169 307.63C755.289 307.49 755.439 307.42 755.619 307.42H770.199C770.379 307.42 770.529 307.49 770.649 307.63C770.769 307.75 770.829 307.9 770.829 308.08V310.9ZM791.387 307.42C791.567 307.42 791.727 307.48 791.867 307.6C791.987 307.74 792.047 307.9 792.047 308.08V327.34C792.047 327.52 791.987 327.67 791.867 327.79C791.727 327.93 791.567 328 791.387 328H776.237C776.057 328 775.907 327.93 775.787 327.79C775.647 327.67 775.577 327.52 775.577 327.34V308.08C775.577 307.9 775.647 307.74 775.787 307.6C775.907 307.48 776.057 307.42 776.237 307.42H779.057C779.237 307.42 779.397 307.48 779.537 307.6C779.657 307.74 779.717 307.9 779.717 308.08V323.89H781.757V314.44C781.757 314.26 781.827 314.1 781.967 313.96C782.087 313.84 782.237 313.78 782.417 313.78H785.207C785.387 313.78 785.547 313.84 785.687 313.96C785.807 314.1 785.867 314.26 785.867 314.44V323.89H787.907V308.08C787.907 307.9 787.967 307.74 788.087 307.6C788.227 307.48 788.387 307.42 788.567 307.42H791.387ZM808.825 308.08C808.825 307.9 808.885 307.75 809.005 307.63C809.145 307.49 809.305 307.42 809.485 307.42H812.305C812.485 307.42 812.635 307.49 812.755 307.63C812.875 307.75 812.935 307.9 812.935 308.08V327.34C812.935 327.52 812.875 327.68 812.755 327.82C812.635 327.94 812.485 328 812.305 328H809.485C809.305 328 809.145 327.94 809.005 327.82C808.885 327.68 808.825 327.52 808.825 327.34V319.78H800.605V327.34C800.605 327.52 800.535 327.68 800.395 327.82C800.275 327.94 800.125 328 799.945 328H797.125C796.945 328 796.795 327.94 796.675 327.82C796.555 327.68 796.495 327.52 796.495 327.34V308.08C796.495 307.9 796.555 307.75 796.675 307.63C796.795 307.49 796.945 307.42 797.125 307.42H799.945C800.125 307.42 800.275 307.49 800.395 307.63C800.535 307.75 800.605 307.9 800.605 308.08V315.67H808.825V308.08ZM829.744 312.7C829.744 312.36 829.634 312.08 829.414 311.86C829.174 311.64 828.884 311.53 828.544 311.53H828.484C828.144 311.53 827.854 311.64 827.614 311.86C827.394 312.08 827.284 312.36 827.284 312.7V322.69C827.284 323.03 827.394 323.31 827.614 323.53C827.854 323.75 828.144 323.86 828.484 323.86H828.544C828.884 323.86 829.174 323.75 829.414 323.53C829.634 323.31 829.744 323.03 829.744 322.69V312.7ZM832.294 308.98C832.774 309.46 833.154 310.02 833.434 310.66C833.714 311.3 833.854 311.98 833.854 312.7V322.69C833.854 323.41 833.714 324.09 833.434 324.73C833.154 325.37 832.774 325.93 832.294 326.41C831.814 326.89 831.254 327.27 830.614 327.55C829.974 327.83 829.294 327.97 828.574 327.97H828.454C827.714 327.97 827.034 327.83 826.414 327.55C825.774 327.27 825.214 326.89 824.734 326.41C824.254 325.93 823.874 325.37 823.594 324.73C823.314 324.09 823.174 323.41 823.174 322.69V319.75H821.494V327.34C821.494 327.52 821.434 327.67 821.314 327.79C821.174 327.93 821.014 328 820.834 328H818.044C817.864 328 817.704 327.93 817.564 327.79C817.444 327.67 817.384 327.52 817.384 327.34V308.08C817.384 307.9 817.444 307.74 817.564 307.6C817.704 307.48 817.864 307.42 818.044 307.42H820.834C821.014 307.42 821.174 307.48 821.314 307.6C821.434 307.74 821.494 307.9 821.494 308.08V315.64H823.174V312.7C823.174 311.98 823.314 311.3 823.594 310.66C823.874 310.02 824.254 309.46 824.734 308.98C825.214 308.5 825.774 308.12 826.414 307.84C827.034 307.56 827.714 307.42 828.454 307.42H828.574C829.294 307.42 829.974 307.56 830.614 307.84C831.254 308.12 831.814 308.5 832.294 308.98ZM850.662 312.7C850.662 312.36 850.552 312.08 850.332 311.86C850.092 311.64 849.802 311.53 849.462 311.53H849.402C849.062 311.53 848.772 311.64 848.532 311.86C848.312 312.08 848.202 312.36 848.202 312.7V322.69C848.202 323.03 848.312 323.31 848.532 323.53C848.772 323.75 849.062 323.86 849.402 323.86H849.462C849.802 323.86 850.092 323.75 850.332 323.53C850.552 323.31 850.662 323.03 850.662 322.69V312.7ZM853.212 308.98C853.692 309.46 854.072 310.02 854.352 310.66C854.632 311.3 854.772 311.98 854.772 312.7V322.69C854.772 323.41 854.632 324.09 854.352 324.73C854.072 325.37 853.692 325.93 853.212 326.41C852.732 326.89 852.172 327.27 851.532 327.55C850.892 327.83 850.212 327.97 849.492 327.97H849.372C848.632 327.97 847.952 327.83 847.332 327.55C846.692 327.27 846.132 326.89 845.652 326.41C845.172 325.93 844.792 325.37 844.512 324.73C844.232 324.09 844.092 323.41 844.092 322.69V319.75H842.412V327.34C842.412 327.52 842.352 327.67 842.232 327.79C842.092 327.93 841.932 328 841.752 328H838.962C838.782 328 838.622 327.93 838.482 327.79C838.362 327.67 838.302 327.52 838.302 327.34V308.08C838.302 307.9 838.362 307.74 838.482 307.6C838.622 307.48 838.782 307.42 838.962 307.42H841.752C841.932 307.42 842.092 307.48 842.232 307.6C842.352 307.74 842.412 307.9 842.412 308.08V315.64H844.092V312.7C844.092 311.98 844.232 311.3 844.512 310.66C844.792 310.02 845.172 309.46 845.652 308.98C846.132 308.5 846.692 308.12 847.332 307.84C847.952 307.56 848.632 307.42 849.372 307.42H849.492C850.212 307.42 850.892 307.56 851.532 307.84C852.172 308.12 852.732 308.5 853.212 308.98ZM579.506 347.6C579.326 347.6 579.166 347.54 579.026 347.42C578.906 347.28 578.846 347.12 578.846 346.94V346.73C578.846 346.39 578.726 346.11 578.486 345.89C578.266 345.65 577.986 345.53 577.646 345.53H571.796C571.456 345.53 571.176 345.65 570.956 345.89C570.736 346.11 570.626 346.39 570.626 346.73V356.69C570.626 357.03 570.736 357.32 570.956 357.56C571.176 357.78 571.456 357.89 571.796 357.89H577.646C577.986 357.89 578.266 357.78 578.486 357.56C578.726 357.32 578.846 357.03 578.846 356.69V356.48C578.846 356.3 578.906 356.15 579.026 356.03C579.166 355.89 579.326 355.82 579.506 355.82H582.296C582.476 355.82 582.626 355.89 582.746 356.03C582.886 356.15 582.956 356.3 582.956 356.48V356.69C582.956 357.43 582.816 358.12 582.536 358.76C582.256 359.4 581.876 359.96 581.396 360.44C580.916 360.92 580.356 361.3 579.716 361.58C579.076 361.86 578.386 362 577.646 362H571.796C571.076 362 570.386 361.86 569.726 361.58C569.086 361.3 568.526 360.92 568.046 360.44C567.566 359.96 567.186 359.4 566.906 358.76C566.626 358.12 566.486 357.43 566.486 356.69V346.73C566.486 345.99 566.626 345.3 566.906 344.66C567.186 344.02 567.566 343.46 568.046 342.98C568.526 342.5 569.086 342.12 569.726 341.84C570.386 341.56 571.076 341.42 571.796 341.42H577.646C578.386 341.42 579.076 341.56 579.716 341.84C580.356 342.12 580.916 342.5 581.396 342.98C581.876 343.46 582.256 344.02 582.536 344.66C582.816 345.3 582.956 345.99 582.956 346.73V346.94C582.956 347.12 582.886 347.28 582.746 347.42C582.626 347.54 582.476 347.6 582.296 347.6H579.506ZM603.214 341.42C603.394 341.42 603.544 341.49 603.664 341.63C603.804 341.75 603.874 341.9 603.874 342.08V344.9C603.874 345.08 603.804 345.23 603.664 345.35C603.544 345.47 603.394 345.53 603.214 345.53H597.694V361.34C597.694 361.52 597.624 361.68 597.484 361.82C597.364 361.94 597.214 362 597.034 362H594.214C594.034 362 593.884 361.94 593.764 361.82C593.644 361.68 593.584 361.52 593.584 361.34V345.53H588.064C587.884 345.53 587.724 345.47 587.584 345.35C587.464 345.23 587.404 345.08 587.404 344.9V342.08C587.404 341.9 587.464 341.75 587.584 341.63C587.724 341.49 587.884 341.42 588.064 341.42H603.214ZM619.482 341.45C620.222 341.45 620.912 341.59 621.552 341.87C622.192 342.15 622.752 342.53 623.232 343.01C623.712 343.49 624.092 344.05 624.372 344.69C624.652 345.33 624.792 346.01 624.792 346.73V356.72C624.792 357.44 624.652 358.12 624.372 358.76C624.092 359.4 623.712 359.96 623.232 360.44C622.752 360.92 622.192 361.3 621.552 361.58C620.912 361.86 620.222 362 619.482 362H613.632C612.892 362 612.202 361.86 611.562 361.58C610.922 361.3 610.362 360.92 609.882 360.44C609.402 359.96 609.022 359.4 608.742 358.76C608.462 358.12 608.322 357.44 608.322 356.72V346.73C608.322 346.01 608.462 345.33 608.742 344.69C609.022 344.05 609.402 343.49 609.882 343.01C610.362 342.53 610.922 342.15 611.562 341.87C612.202 341.59 612.892 341.45 613.632 341.45H619.482ZM620.682 346.73C620.682 346.39 620.562 346.11 620.322 345.89C620.102 345.67 619.822 345.56 619.482 345.56H613.632C613.292 345.56 613.002 345.67 612.762 345.89C612.542 346.11 612.432 346.39 612.432 346.73V356.72C612.432 357.06 612.542 357.34 612.762 357.56C613.002 357.78 613.292 357.89 613.632 357.89H619.482C619.822 357.89 620.102 357.78 620.322 357.56C620.562 357.34 620.682 357.06 620.682 356.72V346.73ZM640.4 341.42C641.14 341.42 641.83 341.56 642.47 341.84C643.11 342.12 643.67 342.5 644.15 342.98C644.63 343.46 645.01 344.02 645.29 344.66C645.57 345.3 645.71 345.99 645.71 346.73V348.47C645.71 349.19 645.57 349.88 645.29 350.54C645.01 351.18 644.63 351.74 644.15 352.22C643.67 352.7 643.11 353.08 642.47 353.36C641.83 353.64 641.14 353.78 640.4 353.78H633.35V361.34C633.35 361.52 633.29 361.68 633.17 361.82C633.05 361.94 632.9 362 632.72 362H629.9C629.72 362 629.56 361.94 629.42 361.82C629.3 361.68 629.24 361.52 629.24 361.34V342.08C629.24 341.9 629.3 341.75 629.42 341.63C629.56 341.49 629.72 341.42 629.9 341.42H640.4ZM641.6 346.73C641.6 346.39 641.48 346.11 641.24 345.89C641.02 345.65 640.74 345.53 640.4 345.53H633.35V349.67H640.4C640.74 349.67 641.02 349.56 641.24 349.34C641.48 349.1 641.6 348.81 641.6 348.47V346.73ZM661.318 341.45C662.058 341.45 662.748 341.59 663.388 341.87C664.028 342.15 664.588 342.53 665.068 343.01C665.548 343.49 665.928 344.05 666.208 344.69C666.488 345.33 666.628 346.01 666.628 346.73V356.72C666.628 357.44 666.488 358.12 666.208 358.76C665.928 359.4 665.548 359.96 665.068 360.44C664.588 360.92 664.028 361.3 663.388 361.58C662.748 361.86 662.058 362 661.318 362H655.468C654.728 362 654.038 361.86 653.398 361.58C652.758 361.3 652.198 360.92 651.718 360.44C651.238 359.96 650.858 359.4 650.578 358.76C650.298 358.12 650.158 357.44 650.158 356.72V346.73C650.158 346.01 650.298 345.33 650.578 344.69C650.858 344.05 651.238 343.49 651.718 343.01C652.198 342.53 652.758 342.15 653.398 341.87C654.038 341.59 654.728 341.45 655.468 341.45H661.318ZM662.518 346.73C662.518 346.39 662.398 346.11 662.158 345.89C661.938 345.67 661.658 345.56 661.318 345.56H655.468C655.128 345.56 654.838 345.67 654.598 345.89C654.378 346.11 654.268 346.39 654.268 346.73V356.72C654.268 357.06 654.378 357.34 654.598 357.56C654.838 357.78 655.128 357.89 655.468 357.89H661.318C661.658 357.89 661.938 357.78 662.158 357.56C662.398 357.34 662.518 357.06 662.518 356.72V346.73ZM683.405 342.08C683.405 341.9 683.465 341.75 683.585 341.63C683.725 341.49 683.885 341.42 684.065 341.42H686.885C687.065 341.42 687.215 341.49 687.335 341.63C687.455 341.75 687.515 341.9 687.515 342.08V361.34C687.515 361.52 687.455 361.68 687.335 361.82C687.215 361.94 687.065 362 686.885 362H684.065C683.885 362 683.725 361.94 683.585 361.82C683.465 361.68 683.405 361.52 683.405 361.34V353.78H675.185V361.34C675.185 361.52 675.115 361.68 674.975 361.82C674.855 361.94 674.705 362 674.525 362H671.705C671.525 362 671.375 361.94 671.255 361.82C671.135 361.68 671.075 361.52 671.075 361.34V342.08C671.075 341.9 671.135 341.75 671.255 341.63C671.375 341.49 671.525 341.42 671.705 341.42H674.525C674.705 341.42 674.855 341.49 674.975 341.63C675.115 341.75 675.185 341.9 675.185 342.08V349.67H683.405V342.08ZM707.804 341.42C707.984 341.42 708.134 341.48 708.254 341.6C708.374 341.74 708.434 341.9 708.434 342.08V356.81C708.414 357.51 708.274 358.16 708.014 358.76C707.734 359.4 707.354 359.96 706.874 360.44C706.394 360.92 705.824 361.3 705.164 361.58C704.524 361.86 703.844 362 703.124 362H697.274C696.534 362 695.844 361.86 695.204 361.58C694.564 361.3 694.004 360.92 693.524 360.44C693.044 359.96 692.664 359.4 692.384 358.76C692.104 358.12 691.964 357.43 691.964 356.69V356.48C691.964 356.3 692.034 356.15 692.174 356.03C692.294 355.89 692.444 355.82 692.624 355.82H695.414C695.594 355.82 695.754 355.89 695.894 356.03C696.014 356.15 696.074 356.3 696.074 356.48V356.69C696.074 357.03 696.194 357.31 696.434 357.53C696.654 357.77 696.934 357.89 697.274 357.89H703.124C703.464 357.89 703.744 357.77 703.964 357.53C704.184 357.31 704.294 357.03 704.294 356.69V353.78H697.274C696.534 353.78 695.844 353.64 695.204 353.36C694.564 353.08 694.004 352.7 693.524 352.22C693.044 351.74 692.664 351.18 692.384 350.54C692.104 349.88 691.964 349.19 691.964 348.47V342.02C691.964 341.86 692.034 341.72 692.174 341.6C692.294 341.48 692.444 341.42 692.624 341.42H695.444C695.624 341.42 695.774 341.48 695.894 341.6C696.014 341.72 696.074 341.86 696.074 342.02V348.47C696.074 348.81 696.194 349.09 696.434 349.31C696.654 349.55 696.934 349.67 697.274 349.67H704.294V348.92H704.324V342.08C704.324 341.9 704.384 341.74 704.504 341.6C704.644 341.48 704.804 341.42 704.984 341.42H707.804ZM750.241 348.47C750.241 349.09 750.141 349.68 749.941 350.24C749.741 350.78 749.471 351.28 749.131 351.74C749.471 352.18 749.741 352.68 749.941 353.24C750.141 353.78 750.241 354.36 750.241 354.98V356.72C750.241 357.44 750.101 358.12 749.821 358.76C749.541 359.4 749.161 359.96 748.681 360.44C748.201 360.92 747.631 361.3 746.971 361.58C746.331 361.86 745.651 362 744.931 362H739.081C738.341 362 737.651 361.86 737.011 361.58C736.371 361.3 735.811 360.92 735.331 360.44C734.851 359.96 734.471 359.4 734.191 358.76C733.911 358.12 733.771 357.44 733.771 356.72V356.48C733.771 356.3 733.831 356.15 733.951 356.03C734.091 355.91 734.251 355.85 734.431 355.85H737.221C737.401 355.85 737.551 355.91 737.671 356.03C737.811 356.15 737.881 356.3 737.881 356.48V356.72C737.881 357.06 737.991 357.34 738.211 357.56C738.451 357.78 738.741 357.89 739.081 357.89H744.931C745.271 357.89 745.551 357.78 745.771 357.56C745.991 357.34 746.101 357.06 746.101 356.72V354.98C746.101 354.64 745.991 354.36 745.771 354.14C745.551 353.9 745.271 353.78 744.931 353.78H738.541C738.361 353.78 738.201 353.72 738.061 353.6C737.941 353.46 737.881 353.3 737.881 353.12V350.33C737.881 350.15 737.941 350 738.061 349.88C738.201 349.74 738.361 349.67 738.541 349.67H744.931C745.271 349.67 745.551 349.56 745.771 349.34C745.991 349.1 746.101 348.81 746.101 348.47V346.73C746.101 346.39 745.991 346.11 745.771 345.89C745.551 345.67 745.271 345.56 744.931 345.56H739.081C738.741 345.56 738.451 345.67 738.211 345.89C737.991 346.11 737.881 346.39 737.881 346.73V346.97C737.881 347.15 737.811 347.3 737.671 347.42C737.551 347.54 737.401 347.6 737.221 347.6H734.431C734.251 347.6 734.091 347.54 733.951 347.42C733.831 347.3 733.771 347.15 733.771 346.97V346.73C733.771 346.01 733.911 345.33 734.191 344.69C734.471 344.05 734.851 343.49 735.331 343.01C735.811 342.53 736.371 342.15 737.011 341.87C737.651 341.59 738.341 341.45 739.081 341.45H744.931C745.651 341.45 746.331 341.59 746.971 341.87C747.631 342.15 748.201 342.53 748.681 343.01C749.161 343.49 749.541 344.05 749.821 344.69C750.101 345.33 750.241 346.01 750.241 346.73V348.47ZM765.549 357.89V345.53H761.469C761.129 345.53 760.849 345.64 760.629 345.86C760.409 346.1 760.299 346.39 760.299 346.73V357.89H765.549ZM770.499 357.89C770.679 357.89 770.829 357.95 770.949 358.07C771.069 358.21 771.129 358.37 771.129 358.55V364.22C771.129 364.4 771.069 364.55 770.949 364.67C770.809 364.81 770.649 364.88 770.469 364.88H767.649C767.469 364.88 767.319 364.81 767.199 364.67C767.079 364.55 767.019 364.4 767.019 364.22V362H758.799V364.22C758.799 364.4 758.739 364.55 758.619 364.67C758.479 364.81 758.319 364.88 758.139 364.88H755.319C755.139 364.88 754.989 364.81 754.869 364.67C754.749 364.55 754.689 364.4 754.689 364.22V358.55C754.689 358.37 754.749 358.21 754.869 358.07C754.989 357.95 755.139 357.89 755.319 357.89H756.159V346.73C756.159 345.99 756.299 345.3 756.579 344.66C756.859 344.02 757.239 343.46 757.719 342.98C758.199 342.5 758.769 342.12 759.429 341.84C760.069 341.56 760.749 341.42 761.469 341.42H769.029C769.209 341.42 769.359 341.48 769.479 341.6C769.599 341.74 769.659 341.9 769.659 342.08V357.89H770.499ZM786.617 341.42C786.797 341.42 786.967 341.48 787.127 341.6C787.307 341.72 787.427 341.86 787.487 342.02L791.807 352.76C791.867 352.92 791.917 353.13 791.957 353.39C792.017 353.63 792.047 353.84 792.047 354.02V361.34C792.047 361.52 791.977 361.68 791.837 361.82C791.717 361.94 791.567 362 791.387 362H788.567C788.387 362 788.227 361.94 788.087 361.82C787.967 361.68 787.907 361.52 787.907 361.34V357.89H779.687V361.34C779.687 361.52 779.617 361.68 779.477 361.82C779.357 361.94 779.207 362 779.027 362H776.237C776.057 362 775.897 361.94 775.757 361.82C775.637 361.68 775.577 361.52 775.577 361.34V354.02C775.577 353.84 775.597 353.63 775.637 353.39C775.697 353.13 775.757 352.92 775.817 352.76L780.107 342.02C780.187 341.86 780.307 341.72 780.467 341.6C780.647 341.48 780.827 341.42 781.007 341.42H786.617ZM779.837 353.78H787.757L784.457 345.53H783.137L779.837 353.78ZM808.825 342.08C808.825 341.9 808.885 341.75 809.005 341.63C809.145 341.49 809.305 341.42 809.485 341.42H812.305C812.485 341.42 812.635 341.49 812.755 341.63C812.875 341.75 812.935 341.9 812.935 342.08V361.34C812.935 361.52 812.875 361.68 812.755 361.82C812.635 361.94 812.485 362 812.305 362H809.485C809.305 362 809.145 361.94 809.005 361.82C808.885 361.68 808.825 361.52 808.825 361.34V353.78H800.605V361.34C800.605 361.52 800.535 361.68 800.395 361.82C800.275 361.94 800.125 362 799.945 362H797.125C796.945 362 796.795 361.94 796.675 361.82C796.555 361.68 796.495 361.52 796.495 361.34V342.08C796.495 341.9 796.555 341.75 796.675 341.63C796.795 341.49 796.945 341.42 797.125 341.42H799.945C800.125 341.42 800.275 341.49 800.395 341.63C800.535 341.75 800.605 341.9 800.605 342.08V349.67H808.825V342.08ZM829.714 354.62L821.974 361.55C821.834 361.67 821.654 361.77 821.434 361.85C821.214 361.95 821.014 362 820.834 362H818.044C817.864 362 817.714 361.93 817.594 361.79C817.454 361.67 817.384 361.52 817.384 361.34V342.08C817.384 341.9 817.454 341.74 817.594 341.6C817.714 341.48 817.864 341.42 818.044 341.42H820.834C821.014 341.42 821.174 341.48 821.314 341.6C821.434 341.74 821.494 341.9 821.494 342.08V356.48L829.714 349.1V342.08C829.714 341.9 829.784 341.74 829.924 341.6C830.044 341.48 830.194 341.42 830.374 341.42H833.194C833.374 341.42 833.534 341.48 833.674 341.6C833.794 341.74 833.854 341.9 833.854 342.08V361.34C833.854 361.52 833.794 361.67 833.674 361.79C833.534 361.93 833.374 362 833.194 362H830.374C830.194 362 830.044 361.93 829.924 361.79C829.784 361.67 829.714 361.52 829.714 361.34V354.62ZM842.412 348.47C842.412 348.81 842.532 349.09 842.772 349.31C842.992 349.55 843.272 349.67 843.612 349.67H850.632V345.53H843.612C843.272 345.53 842.992 345.64 842.772 345.86C842.532 346.1 842.412 346.39 842.412 346.73V348.47ZM842.142 353.57C841.582 353.41 841.072 353.17 840.612 352.85C840.132 352.53 839.722 352.15 839.382 351.71C839.042 351.25 838.782 350.74 838.602 350.18C838.402 349.64 838.302 349.07 838.302 348.47V346.73C838.302 345.99 838.442 345.3 838.722 344.66C839.002 344.02 839.382 343.46 839.862 342.98C840.342 342.5 840.902 342.12 841.542 341.84C842.182 341.56 842.872 341.42 843.612 341.42H854.112C854.292 341.42 854.452 341.48 854.592 341.6C854.712 341.74 854.772 341.9 854.772 342.08V361.34C854.772 361.52 854.712 361.67 854.592 361.79C854.452 361.93 854.292 362 854.112 362H851.292C851.112 362 850.952 361.93 850.812 361.79C850.692 361.67 850.632 361.52 850.632 361.34V353.78H846.552L843.102 361.4C843.022 361.56 842.892 361.7 842.712 361.82C842.552 361.94 842.382 362 842.202 362H838.992C838.812 362 838.682 361.94 838.602 361.82C838.522 361.7 838.522 361.56 838.602 361.4L842.142 353.57Z" fill="white"/>
</svg>
