<svg width="858" height="398" viewBox="0 0 858 398" fill="none" xmlns="http://www.w3.org/2000/svg">
<g clip-path="url(#clip0_2420_292)">
<g style="mix-blend-mode:luminosity" opacity="0.7">
<rect y="45" width="858" height="263" fill="#E8E8E8"/>
</g>
<path d="M18.1941 307.43C18.2941 307.59 18.3041 307.73 18.2241 307.85C18.1641 307.95 18.0441 308 17.8641 308H14.4441C14.2641 308 14.0841 307.95 13.9041 307.85C13.7241 307.73 13.5841 307.59 13.4841 307.43L9.13414 299.78H6.22414V307.34C6.22414 307.52 6.15414 307.68 6.01414 307.82C5.89414 307.94 5.74414 308 5.56414 308H2.74414C2.56414 308 2.41414 307.94 2.29414 307.82C2.17414 307.68 2.11414 307.52 2.11414 307.34V288.08C2.11414 287.9 2.17414 287.75 2.29414 287.63C2.41414 287.49 2.56414 287.42 2.74414 287.42H5.56414C5.74414 287.42 5.89414 287.49 6.01414 287.63C6.15414 287.75 6.22414 287.9 6.22414 288.08V295.67H9.13414L13.4841 287.99C13.5841 287.83 13.7241 287.7 13.9041 287.6C14.0841 287.48 14.2641 287.42 14.4441 287.42H17.8641C18.0441 287.42 18.1641 287.48 18.2241 287.6C18.3041 287.7 18.2941 287.83 18.1941 287.99L12.7041 297.71L18.1941 307.43ZM34.0421 287.42C34.7821 287.42 35.4721 287.56 36.1121 287.84C36.7521 288.12 37.3121 288.5 37.7921 288.98C38.2721 289.46 38.6521 290.02 38.9321 290.66C39.2121 291.3 39.3521 291.99 39.3521 292.73V294.47C39.3521 295.19 39.2121 295.88 38.9321 296.54C38.6521 297.18 38.2721 297.74 37.7921 298.22C37.3121 298.7 36.7521 299.08 36.1121 299.36C35.4721 299.64 34.7821 299.78 34.0421 299.78H26.9921V307.34C26.9921 307.52 26.9321 307.68 26.8121 307.82C26.6921 307.94 26.5421 308 26.3621 308H23.5421C23.3621 308 23.2021 307.94 23.0621 307.82C22.9421 307.68 22.8821 307.52 22.8821 307.34V288.08C22.8821 287.9 22.9421 287.75 23.0621 287.63C23.2021 287.49 23.3621 287.42 23.5421 287.42H34.0421ZM35.2421 292.73C35.2421 292.39 35.1221 292.11 34.8821 291.89C34.6621 291.65 34.3821 291.53 34.0421 291.53H26.9921V295.67H34.0421C34.3821 295.67 34.6621 295.56 34.8821 295.34C35.1221 295.1 35.2421 294.81 35.2421 294.47V292.73ZM59.6401 287.42C59.8201 287.42 59.9701 287.48 60.0901 287.6C60.2101 287.74 60.2701 287.9 60.2701 288.08V302.81C60.2501 303.51 60.1101 304.16 59.8501 304.76C59.5701 305.4 59.1901 305.96 58.7101 306.44C58.2301 306.92 57.6601 307.3 57.0001 307.58C56.3601 307.86 55.6801 308 54.9601 308H49.1101C48.3701 308 47.6801 307.86 47.0401 307.58C46.4001 307.3 45.8401 306.92 45.3601 306.44C44.8801 305.96 44.5001 305.4 44.2201 304.76C43.9401 304.12 43.8001 303.43 43.8001 302.69V302.48C43.8001 302.3 43.8701 302.15 44.0101 302.03C44.1301 301.89 44.2801 301.82 44.4601 301.82H47.2501C47.4301 301.82 47.5901 301.89 47.7301 302.03C47.8501 302.15 47.9101 302.3 47.9101 302.48V302.69C47.9101 303.03 48.0301 303.31 48.2701 303.53C48.4901 303.77 48.7701 303.89 49.1101 303.89H54.9601C55.3001 303.89 55.5801 303.77 55.8001 303.53C56.0201 303.31 56.1301 303.03 56.1301 302.69V299.78H49.1101C48.3701 299.78 47.6801 299.64 47.0401 299.36C46.4001 299.08 45.8401 298.7 45.3601 298.22C44.8801 297.74 44.5001 297.18 44.2201 296.54C43.9401 295.88 43.8001 295.19 43.8001 294.47V288.02C43.8001 287.86 43.8701 287.72 44.0101 287.6C44.1301 287.48 44.2801 287.42 44.4601 287.42H47.2801C47.4601 287.42 47.6101 287.48 47.7301 287.6C47.8501 287.72 47.9101 287.86 47.9101 288.02V294.47C47.9101 294.81 48.0301 295.09 48.2701 295.31C48.4901 295.55 48.7701 295.67 49.1101 295.67H56.1301V294.92H56.1601V288.08C56.1601 287.9 56.2201 287.74 56.3401 287.6C56.4801 287.48 56.6401 287.42 56.8201 287.42H59.6401ZM80.528 287.42C80.708 287.42 80.858 287.49 80.978 287.63C81.118 287.75 81.188 287.9 81.188 288.08V290.9C81.188 291.08 81.118 291.23 80.978 291.35C80.858 291.47 80.708 291.53 80.528 291.53H75.008V307.34C75.008 307.52 74.938 307.68 74.798 307.82C74.678 307.94 74.528 308 74.348 308H71.528C71.348 308 71.198 307.94 71.078 307.82C70.958 307.68 70.898 307.52 70.898 307.34V291.53H65.378C65.198 291.53 65.038 291.47 64.898 291.35C64.778 291.23 64.718 291.08 64.718 290.9V288.08C64.718 287.9 64.778 287.75 64.898 287.63C65.038 287.49 65.198 287.42 65.378 287.42H80.528ZM96.796 287.45C97.536 287.45 98.226 287.59 98.866 287.87C99.506 288.15 100.066 288.53 100.546 289.01C101.026 289.49 101.406 290.05 101.686 290.69C101.966 291.33 102.106 292.01 102.106 292.73V302.72C102.106 303.44 101.966 304.12 101.686 304.76C101.406 305.4 101.026 305.96 100.546 306.44C100.066 306.92 99.506 307.3 98.866 307.58C98.226 307.86 97.536 308 96.796 308H90.946C90.206 308 89.516 307.86 88.876 307.58C88.236 307.3 87.676 306.92 87.196 306.44C86.716 305.96 86.336 305.4 86.056 304.76C85.776 304.12 85.636 303.44 85.636 302.72V292.73C85.636 292.01 85.776 291.33 86.056 290.69C86.336 290.05 86.716 289.49 87.196 289.01C87.676 288.53 88.236 288.15 88.876 287.87C89.516 287.59 90.206 287.45 90.946 287.45H96.796ZM97.996 292.73C97.996 292.39 97.876 292.11 97.636 291.89C97.416 291.67 97.136 291.56 96.796 291.56H90.946C90.606 291.56 90.316 291.67 90.076 291.89C89.856 292.11 89.746 292.39 89.746 292.73V302.72C89.746 303.06 89.856 303.34 90.076 303.56C90.316 303.78 90.606 303.89 90.946 303.89H96.796C97.136 303.89 97.416 303.78 97.636 303.56C97.876 303.34 97.996 303.06 97.996 302.72V292.73ZM109.284 281.69C109.144 281.57 109.094 281.47 109.134 281.39C109.174 281.29 109.284 281.24 109.464 281.24H112.104C112.284 281.24 112.484 281.29 112.704 281.39C112.904 281.47 113.074 281.58 113.214 281.72L114.804 283.28L116.364 281.72C116.504 281.58 116.684 281.47 116.904 281.39C117.104 281.29 117.294 281.24 117.474 281.24H120.084C120.264 281.24 120.374 281.29 120.414 281.39C120.454 281.47 120.404 281.57 120.264 281.69L116.934 284.9C116.794 285.04 116.614 285.16 116.394 285.26C116.194 285.34 116.004 285.38 115.824 285.38H113.754C113.574 285.38 113.374 285.34 113.154 285.26C112.954 285.16 112.784 285.05 112.644 284.93L109.284 281.69ZM122.364 287.42C122.544 287.42 122.704 287.48 122.844 287.6C122.964 287.74 123.024 287.9 123.024 288.08V307.34C123.024 307.52 122.964 307.67 122.844 307.79C122.704 307.93 122.544 308 122.364 308H119.544C119.364 308 119.214 307.93 119.094 307.79C118.954 307.67 118.884 307.52 118.884 307.34V300.62L111.144 307.55C111.004 307.67 110.824 307.77 110.604 307.85C110.384 307.95 110.184 308 110.004 308H107.214C107.034 308 106.884 307.93 106.764 307.79C106.624 307.67 106.554 307.52 106.554 307.34V288.08C106.554 287.9 106.624 287.74 106.764 287.6C106.884 287.48 107.034 287.42 107.214 287.42H110.004C110.184 287.42 110.344 287.48 110.484 287.6C110.604 287.74 110.664 287.9 110.664 288.08V302.48L118.884 295.1V288.08C118.884 287.9 118.954 287.74 119.094 287.6C119.214 287.48 119.364 287.42 119.544 287.42H122.364ZM161.381 293.6C161.201 293.6 161.041 293.54 160.901 293.42C160.781 293.28 160.721 293.12 160.721 292.94V292.73C160.721 292.39 160.601 292.11 160.361 291.89C160.141 291.65 159.861 291.53 159.521 291.53H153.671C153.331 291.53 153.051 291.65 152.831 291.89C152.611 292.11 152.501 292.39 152.501 292.73V302.69C152.501 303.03 152.611 303.32 152.831 303.56C153.051 303.78 153.331 303.89 153.671 303.89H159.521C159.861 303.89 160.141 303.78 160.361 303.56C160.601 303.32 160.721 303.03 160.721 302.69V302.48C160.721 302.3 160.781 302.15 160.901 302.03C161.041 301.89 161.201 301.82 161.381 301.82H164.171C164.351 301.82 164.501 301.89 164.621 302.03C164.761 302.15 164.831 302.3 164.831 302.48V302.69C164.831 303.43 164.691 304.12 164.411 304.76C164.131 305.4 163.751 305.96 163.271 306.44C162.791 306.92 162.231 307.3 161.591 307.58C160.951 307.86 160.261 308 159.521 308H153.671C152.951 308 152.261 307.86 151.601 307.58C150.961 307.3 150.401 306.92 149.921 306.44C149.441 305.96 149.061 305.4 148.781 304.76C148.501 304.12 148.361 303.43 148.361 302.69V292.73C148.361 291.99 148.501 291.3 148.781 290.66C149.061 290.02 149.441 289.46 149.921 288.98C150.401 288.5 150.961 288.12 151.601 287.84C152.261 287.56 152.951 287.42 153.671 287.42H159.521C160.261 287.42 160.951 287.56 161.591 287.84C162.231 288.12 162.791 288.5 163.271 288.98C163.751 289.46 164.131 290.02 164.411 290.66C164.691 291.3 164.831 291.99 164.831 292.73V292.94C164.831 293.12 164.761 293.28 164.621 293.42C164.501 293.54 164.351 293.6 164.171 293.6H161.381ZM180.439 287.45C181.179 287.45 181.869 287.59 182.509 287.87C183.149 288.15 183.709 288.53 184.189 289.01C184.669 289.49 185.049 290.05 185.329 290.69C185.609 291.33 185.749 292.01 185.749 292.73V302.72C185.749 303.44 185.609 304.12 185.329 304.76C185.049 305.4 184.669 305.96 184.189 306.44C183.709 306.92 183.149 307.3 182.509 307.58C181.869 307.86 181.179 308 180.439 308H174.589C173.849 308 173.159 307.86 172.519 307.58C171.879 307.3 171.319 306.92 170.839 306.44C170.359 305.96 169.979 305.4 169.699 304.76C169.419 304.12 169.279 303.44 169.279 302.72V292.73C169.279 292.01 169.419 291.33 169.699 290.69C169.979 290.05 170.359 289.49 170.839 289.01C171.319 288.53 171.879 288.15 172.519 287.87C173.159 287.59 173.849 287.45 174.589 287.45H180.439ZM181.639 292.73C181.639 292.39 181.519 292.11 181.279 291.89C181.059 291.67 180.779 291.56 180.439 291.56H174.589C174.249 291.56 173.959 291.67 173.719 291.89C173.499 292.11 173.389 292.39 173.389 292.73V302.72C173.389 303.06 173.499 303.34 173.719 303.56C173.959 303.78 174.249 303.89 174.589 303.89H180.439C180.779 303.89 181.059 303.78 181.279 303.56C181.519 303.34 181.639 303.06 181.639 302.72V292.73ZM201.357 287.42C202.077 287.42 202.757 287.56 203.397 287.84C204.037 288.12 204.597 288.5 205.077 288.98C205.557 289.46 205.937 290.02 206.217 290.66C206.497 291.3 206.637 291.99 206.637 292.73V294.47C206.637 295.09 206.537 295.67 206.337 296.21C206.137 296.75 205.867 297.25 205.527 297.71C205.867 298.17 206.137 298.67 206.337 299.21C206.537 299.75 206.637 300.33 206.637 300.95V302.69C206.637 303.43 206.497 304.12 206.217 304.76C205.937 305.4 205.557 305.96 205.077 306.44C204.597 306.92 204.037 307.3 203.397 307.58C202.757 307.86 202.077 308 201.357 308H190.827C190.647 308 190.497 307.94 190.377 307.82C190.257 307.68 190.197 307.52 190.197 307.34V288.08C190.197 287.9 190.257 287.75 190.377 287.63C190.497 287.49 190.647 287.42 190.827 287.42H201.357ZM194.307 295.64H201.357C201.677 295.64 201.947 295.53 202.167 295.31C202.407 295.09 202.527 294.81 202.527 294.47V292.73C202.527 292.39 202.407 292.11 202.167 291.89C201.947 291.65 201.677 291.53 201.357 291.53H194.307V295.64ZM202.527 300.95C202.527 300.61 202.407 300.33 202.167 300.11C201.947 299.89 201.677 299.78 201.357 299.78H194.307V303.89H201.357C201.677 303.89 201.947 303.78 202.167 303.56C202.407 303.32 202.527 303.03 202.527 302.69V300.95ZM222.245 287.42C222.985 287.42 223.675 287.56 224.315 287.84C224.955 288.12 225.515 288.5 225.995 288.98C226.475 289.46 226.855 290.02 227.135 290.66C227.415 291.3 227.555 291.99 227.555 292.73V294.47C227.555 295.19 227.415 295.88 227.135 296.54C226.855 297.18 226.475 297.74 225.995 298.22C225.515 298.7 224.955 299.08 224.315 299.36C223.675 299.64 222.985 299.78 222.245 299.78H215.195V307.34C215.195 307.52 215.135 307.68 215.015 307.82C214.895 307.94 214.745 308 214.565 308H211.745C211.565 308 211.405 307.94 211.265 307.82C211.145 307.68 211.085 307.52 211.085 307.34V288.08C211.085 287.9 211.145 287.75 211.265 287.63C211.405 287.49 211.565 287.42 211.745 287.42H222.245ZM223.445 292.73C223.445 292.39 223.325 292.11 223.085 291.89C222.865 291.65 222.585 291.53 222.245 291.53H215.195V295.67H222.245C222.585 295.67 222.865 295.56 223.085 295.34C223.325 295.1 223.445 294.81 223.445 294.47V292.73ZM248.143 290.9C248.143 291.08 248.083 291.23 247.963 291.35C247.843 291.47 247.693 291.53 247.513 291.53H236.413V295.67H246.463C246.643 295.67 246.793 295.73 246.913 295.85C247.053 295.97 247.123 296.12 247.123 296.3V299.12C247.123 299.3 247.053 299.46 246.913 299.6C246.793 299.72 246.643 299.78 246.463 299.78H236.413V303.89H247.513C247.693 303.89 247.843 303.96 247.963 304.1C248.083 304.22 248.143 304.37 248.143 304.55V307.34C248.143 307.52 248.083 307.68 247.963 307.82C247.843 307.94 247.693 308 247.513 308H232.933C232.753 308 232.603 307.94 232.483 307.82C232.363 307.68 232.303 307.52 232.303 307.34V288.08C232.303 287.9 232.363 287.75 232.483 287.63C232.603 287.49 232.753 287.42 232.933 287.42H247.513C247.693 287.42 247.843 287.49 247.963 287.63C248.083 287.75 248.143 287.9 248.143 288.08V290.9ZM268.702 287.42C268.882 287.42 269.042 287.48 269.182 287.6C269.302 287.74 269.362 287.9 269.362 288.08V307.34C269.362 307.52 269.302 307.67 269.182 307.79C269.042 307.93 268.882 308 268.702 308H265.912C265.732 308 265.582 307.93 265.462 307.79C265.322 307.67 265.252 307.52 265.252 307.34V294.53L262.792 298.43C262.692 298.59 262.552 298.73 262.372 298.85C262.172 298.95 261.982 299 261.802 299H260.482C260.302 299 260.112 298.95 259.912 298.85C259.732 298.73 259.592 298.59 259.492 298.43L257.002 294.5V307.34C257.002 307.52 256.942 307.67 256.822 307.79C256.682 307.93 256.522 308 256.342 308H253.552C253.372 308 253.222 307.93 253.102 307.79C252.962 307.67 252.892 307.52 252.892 307.34V288.08C252.892 287.9 252.962 287.74 253.102 287.6C253.222 287.48 253.372 287.42 253.552 287.42H256.342L256.552 287.45C256.652 287.47 256.752 287.52 256.852 287.6C257.052 287.7 257.202 287.83 257.302 287.99L261.142 294.62L264.982 287.99C265.082 287.83 265.222 287.7 265.402 287.6L265.642 287.48C265.722 287.44 265.812 287.42 265.912 287.42H268.702ZM289.95 290.9C289.95 291.08 289.89 291.23 289.77 291.35C289.65 291.47 289.5 291.53 289.32 291.53H278.22V295.67H288.27C288.45 295.67 288.6 295.73 288.72 295.85C288.86 295.97 288.93 296.12 288.93 296.3V299.12C288.93 299.3 288.86 299.46 288.72 299.6C288.6 299.72 288.45 299.78 288.27 299.78H278.22V303.89H289.32C289.5 303.89 289.65 303.96 289.77 304.1C289.89 304.22 289.95 304.37 289.95 304.55V307.34C289.95 307.52 289.89 307.68 289.77 307.82C289.65 307.94 289.5 308 289.32 308H274.74C274.56 308 274.41 307.94 274.29 307.82C274.17 307.68 274.11 307.52 274.11 307.34V288.08C274.11 287.9 274.17 287.75 274.29 287.63C274.41 287.49 274.56 287.42 274.74 287.42H289.32C289.5 287.42 289.65 287.49 289.77 287.63C289.89 287.75 289.95 287.9 289.95 288.08V290.9ZM307.029 288.08C307.029 287.9 307.089 287.75 307.209 287.63C307.349 287.49 307.509 287.42 307.689 287.42H310.509C310.689 287.42 310.839 287.49 310.959 287.63C311.079 287.75 311.139 287.9 311.139 288.08V307.34C311.139 307.52 311.079 307.68 310.959 307.82C310.839 307.94 310.689 308 310.509 308H307.689C307.509 308 307.349 307.94 307.209 307.82C307.089 307.68 307.029 307.52 307.029 307.34V299.78H298.809V307.34C298.809 307.52 298.739 307.68 298.599 307.82C298.479 307.94 298.329 308 298.149 308H295.329C295.149 308 294.999 307.94 294.879 307.82C294.759 307.68 294.699 307.52 294.699 307.34V288.08C294.699 287.9 294.759 287.75 294.879 287.63C294.999 287.49 295.149 287.42 295.329 287.42H298.149C298.329 287.42 298.479 287.49 298.599 287.63C298.739 287.75 298.809 287.9 298.809 288.08V295.67H307.029V288.08ZM327.917 288.08C327.917 287.9 327.977 287.75 328.097 287.63C328.237 287.49 328.397 287.42 328.577 287.42H331.397C331.577 287.42 331.727 287.49 331.847 287.63C331.967 287.75 332.027 287.9 332.027 288.08V307.34C332.027 307.52 331.967 307.68 331.847 307.82C331.727 307.94 331.577 308 331.397 308H328.577C328.397 308 328.237 307.94 328.097 307.82C327.977 307.68 327.917 307.52 327.917 307.34V299.78H319.697V307.34C319.697 307.52 319.627 307.68 319.487 307.82C319.367 307.94 319.217 308 319.037 308H316.217C316.037 308 315.887 307.94 315.767 307.82C315.647 307.68 315.587 307.52 315.587 307.34V288.08C315.587 287.9 315.647 287.75 315.767 287.63C315.887 287.49 316.037 287.42 316.217 287.42H319.037C319.217 287.42 319.367 287.49 319.487 287.63C319.627 287.75 319.697 287.9 319.697 288.08V295.67H327.917V288.08ZM343.886 300.95C343.886 300.61 343.776 300.33 343.556 300.11C343.316 299.87 343.026 299.75 342.686 299.75H340.586V303.89H342.686C343.026 303.89 343.316 303.77 343.556 303.53C343.776 303.31 343.886 303.03 343.886 302.69V300.95ZM344.756 296.06C345.396 296.34 345.956 296.72 346.436 297.2C346.916 297.68 347.296 298.24 347.576 298.88C347.856 299.54 347.996 300.23 347.996 300.95V302.69C347.996 303.43 347.856 304.12 347.576 304.76C347.296 305.4 346.916 305.96 346.436 306.44C345.956 306.92 345.396 307.3 344.756 307.58C344.116 307.86 343.426 308 342.686 308H337.136C336.956 308 336.806 307.93 336.686 307.79C336.546 307.67 336.476 307.52 336.476 307.34V288.08C336.476 287.9 336.546 287.74 336.686 287.6C336.806 287.48 336.956 287.42 337.136 287.42H339.956C340.136 287.42 340.286 287.48 340.406 287.6C340.526 287.74 340.586 287.9 340.586 288.08V295.64H342.686C343.426 295.64 344.116 295.78 344.756 296.06ZM352.286 287.42C352.466 287.42 352.626 287.48 352.766 287.6C352.886 287.74 352.946 287.9 352.946 288.08V307.34C352.946 307.52 352.886 307.67 352.766 307.79C352.626 307.93 352.466 308 352.286 308H349.496C349.316 308 349.156 307.93 349.016 307.79C348.896 307.67 348.836 307.52 348.836 307.34V288.08C348.836 287.9 348.896 287.74 349.016 287.6C349.156 287.48 349.316 287.42 349.496 287.42H352.286ZM360.124 281.69C359.984 281.57 359.934 281.47 359.974 281.39C360.014 281.29 360.124 281.24 360.304 281.24H362.944C363.124 281.24 363.324 281.29 363.544 281.39C363.744 281.47 363.914 281.58 364.054 281.72L365.644 283.28L367.204 281.72C367.344 281.58 367.524 281.47 367.744 281.39C367.944 281.29 368.134 281.24 368.314 281.24H370.924C371.104 281.24 371.214 281.29 371.254 281.39C371.294 281.47 371.244 281.57 371.104 281.69L367.774 284.9C367.634 285.04 367.454 285.16 367.234 285.26C367.034 285.34 366.844 285.38 366.664 285.38H364.594C364.414 285.38 364.214 285.34 363.994 285.26C363.794 285.16 363.624 285.05 363.484 284.93L360.124 281.69ZM373.204 287.42C373.384 287.42 373.544 287.48 373.684 287.6C373.804 287.74 373.864 287.9 373.864 288.08V307.34C373.864 307.52 373.804 307.67 373.684 307.79C373.544 307.93 373.384 308 373.204 308H370.384C370.204 308 370.054 307.93 369.934 307.79C369.794 307.67 369.724 307.52 369.724 307.34V300.62L361.984 307.55C361.844 307.67 361.664 307.77 361.444 307.85C361.224 307.95 361.024 308 360.844 308H358.054C357.874 308 357.724 307.93 357.604 307.79C357.464 307.67 357.394 307.52 357.394 307.34V288.08C357.394 287.9 357.464 287.74 357.604 287.6C357.724 287.48 357.874 287.42 358.054 287.42H360.844C361.024 287.42 361.184 287.48 361.324 287.6C361.444 287.74 361.504 287.9 361.504 288.08V302.48L369.724 295.1V288.08C369.724 287.9 369.794 287.74 369.934 287.6C370.054 287.48 370.204 287.42 370.384 287.42H373.204ZM411.56 300.95C411.56 300.61 411.45 300.33 411.23 300.11C410.99 299.87 410.7 299.75 410.36 299.75H403.31V303.89H410.36C410.7 303.89 410.99 303.77 411.23 303.53C411.45 303.31 411.56 303.03 411.56 302.69V300.95ZM414.11 297.2C414.59 297.68 414.97 298.24 415.25 298.88C415.53 299.54 415.67 300.23 415.67 300.95V302.69C415.67 303.43 415.53 304.12 415.25 304.76C414.97 305.4 414.59 305.96 414.11 306.44C413.63 306.92 413.07 307.3 412.43 307.58C411.79 307.86 411.1 308 410.36 308H399.86C399.68 308 399.53 307.93 399.41 307.79C399.27 307.67 399.2 307.52 399.2 307.34V288.08C399.2 287.9 399.27 287.74 399.41 287.6C399.53 287.48 399.68 287.42 399.86 287.42H413.72C413.9 287.42 414.05 287.48 414.17 287.6C414.31 287.74 414.38 287.9 414.38 288.08V290.9C414.38 291.08 414.31 291.23 414.17 291.35C414.05 291.47 413.9 291.53 413.72 291.53H403.31V295.64H410.36C411.1 295.64 411.79 295.78 412.43 296.06C413.07 296.34 413.63 296.72 414.11 297.2ZM431.158 287.42C431.338 287.42 431.508 287.48 431.668 287.6C431.848 287.72 431.968 287.86 432.028 288.02L436.348 298.76C436.408 298.92 436.458 299.13 436.498 299.39C436.558 299.63 436.588 299.84 436.588 300.02V307.34C436.588 307.52 436.518 307.68 436.378 307.82C436.258 307.94 436.108 308 435.928 308H433.108C432.928 308 432.768 307.94 432.628 307.82C432.508 307.68 432.448 307.52 432.448 307.34V303.89H424.228V307.34C424.228 307.52 424.158 307.68 424.018 307.82C423.898 307.94 423.748 308 423.568 308H420.778C420.598 308 420.438 307.94 420.298 307.82C420.178 307.68 420.118 307.52 420.118 307.34V300.02C420.118 299.84 420.138 299.63 420.178 299.39C420.238 299.13 420.298 298.92 420.358 298.76L424.648 288.02C424.728 287.86 424.848 287.72 425.008 287.6C425.188 287.48 425.368 287.42 425.548 287.42H431.158ZM424.378 299.78H432.298L428.998 291.53H427.678L424.378 299.78ZM453.366 288.08C453.366 287.9 453.426 287.75 453.546 287.63C453.686 287.49 453.846 287.42 454.026 287.42H456.846C457.026 287.42 457.176 287.49 457.296 287.63C457.416 287.75 457.476 287.9 457.476 288.08V307.34C457.476 307.52 457.416 307.68 457.296 307.82C457.176 307.94 457.026 308 456.846 308H454.026C453.846 308 453.686 307.94 453.546 307.82C453.426 307.68 453.366 307.52 453.366 307.34V299.78H445.146V307.34C445.146 307.52 445.076 307.68 444.936 307.82C444.816 307.94 444.666 308 444.486 308H441.666C441.486 308 441.336 307.94 441.216 307.82C441.096 307.68 441.036 307.52 441.036 307.34V288.08C441.036 287.9 441.096 287.75 441.216 287.63C441.336 287.49 441.486 287.42 441.666 287.42H444.486C444.666 287.42 444.816 287.49 444.936 287.63C445.076 287.75 445.146 287.9 445.146 288.08V295.67H453.366V288.08ZM474.255 288.08C474.255 287.9 474.315 287.75 474.435 287.63C474.575 287.49 474.735 287.42 474.915 287.42H477.735C477.915 287.42 478.065 287.49 478.185 287.63C478.305 287.75 478.365 287.9 478.365 288.08V307.34C478.365 307.52 478.305 307.68 478.185 307.82C478.065 307.94 477.915 308 477.735 308H474.915C474.735 308 474.575 307.94 474.435 307.82C474.315 307.68 474.255 307.52 474.255 307.34V299.78H466.035V307.34C466.035 307.52 465.965 307.68 465.825 307.82C465.705 307.94 465.555 308 465.375 308H462.555C462.375 308 462.225 307.94 462.105 307.82C461.985 307.68 461.925 307.52 461.925 307.34V288.08C461.925 287.9 461.985 287.75 462.105 287.63C462.225 287.49 462.375 287.42 462.555 287.42H465.375C465.555 287.42 465.705 287.49 465.825 287.63C465.965 287.75 466.035 287.9 466.035 288.08V295.67H474.255V288.08ZM498.954 290.9C498.954 291.08 498.894 291.23 498.774 291.35C498.654 291.47 498.504 291.53 498.324 291.53H487.224V295.67H497.274C497.454 295.67 497.604 295.73 497.724 295.85C497.864 295.97 497.934 296.12 497.934 296.3V299.12C497.934 299.3 497.864 299.46 497.724 299.6C497.604 299.72 497.454 299.78 497.274 299.78H487.224V303.89H498.324C498.504 303.89 498.654 303.96 498.774 304.1C498.894 304.22 498.954 304.37 498.954 304.55V307.34C498.954 307.52 498.894 307.68 498.774 307.82C498.654 307.94 498.504 308 498.324 308H483.744C483.564 308 483.414 307.94 483.294 307.82C483.174 307.68 483.114 307.52 483.114 307.34V288.08C483.114 287.9 483.174 287.75 483.294 287.63C483.414 287.49 483.564 287.42 483.744 287.42H498.324C498.504 287.42 498.654 287.49 498.774 287.63C498.894 287.75 498.954 287.9 498.954 288.08V290.9ZM514.862 287.42C515.602 287.42 516.292 287.56 516.932 287.84C517.572 288.12 518.132 288.5 518.612 288.98C519.092 289.46 519.472 290.02 519.752 290.66C520.032 291.3 520.172 291.99 520.172 292.73V294.47C520.172 295.19 520.032 295.88 519.752 296.54C519.472 297.18 519.092 297.74 518.612 298.22C518.132 298.7 517.572 299.08 516.932 299.36C516.292 299.64 515.602 299.78 514.862 299.78H507.812V307.34C507.812 307.52 507.752 307.68 507.632 307.82C507.512 307.94 507.362 308 507.182 308H504.362C504.182 308 504.022 307.94 503.882 307.82C503.762 307.68 503.702 307.52 503.702 307.34V288.08C503.702 287.9 503.762 287.75 503.882 287.63C504.022 287.49 504.182 287.42 504.362 287.42H514.862ZM516.062 292.73C516.062 292.39 515.942 292.11 515.702 291.89C515.482 291.65 515.202 291.53 514.862 291.53H507.812V295.67H514.862C515.202 295.67 515.482 295.56 515.702 295.34C515.942 295.1 516.062 294.81 516.062 294.47V292.73ZM531.34 304.31C531.34 304.13 531.4 303.98 531.52 303.86C531.64 303.72 531.79 303.65 531.97 303.65H534.79C534.97 303.65 535.12 303.72 535.24 303.86C535.38 303.98 535.45 304.13 535.45 304.31V307.1C535.45 307.28 535.43 307.5 535.39 307.76C535.35 308 535.31 308.21 535.27 308.39L534.4 311.24C534.36 311.42 534.25 311.57 534.07 311.69C533.91 311.81 533.74 311.87 533.56 311.87H530.77C530.59 311.87 530.45 311.81 530.35 311.69C530.27 311.57 530.25 311.42 530.29 311.24L531.13 308.39C531.19 308.21 531.24 308 531.28 307.76C531.32 307.5 531.34 307.28 531.34 307.1V304.31ZM582.657 307.43C582.757 307.59 582.767 307.73 582.687 307.85C582.627 307.95 582.507 308 582.327 308H578.907C578.727 308 578.547 307.95 578.367 307.85C578.187 307.73 578.047 307.59 577.947 307.43L573.597 299.78H570.687V307.34C570.687 307.52 570.617 307.68 570.477 307.82C570.357 307.94 570.207 308 570.027 308H567.207C567.027 308 566.877 307.94 566.757 307.82C566.637 307.68 566.577 307.52 566.577 307.34V288.08C566.577 287.9 566.637 287.75 566.757 287.63C566.877 287.49 567.027 287.42 567.207 287.42H570.027C570.207 287.42 570.357 287.49 570.477 287.63C570.617 287.75 570.687 287.9 570.687 288.08V295.67H573.597L577.947 287.99C578.047 287.83 578.187 287.7 578.367 287.6C578.547 287.48 578.727 287.42 578.907 287.42H582.327C582.507 287.42 582.627 287.48 582.687 287.6C582.767 287.7 582.757 287.83 582.657 287.99L577.167 297.71L582.657 307.43ZM598.505 287.45C599.245 287.45 599.935 287.59 600.575 287.87C601.215 288.15 601.775 288.53 602.255 289.01C602.735 289.49 603.115 290.05 603.395 290.69C603.675 291.33 603.815 292.01 603.815 292.73V302.72C603.815 303.44 603.675 304.12 603.395 304.76C603.115 305.4 602.735 305.96 602.255 306.44C601.775 306.92 601.215 307.3 600.575 307.58C599.935 307.86 599.245 308 598.505 308H592.655C591.915 308 591.225 307.86 590.585 307.58C589.945 307.3 589.385 306.92 588.905 306.44C588.425 305.96 588.045 305.4 587.765 304.76C587.485 304.12 587.345 303.44 587.345 302.72V292.73C587.345 292.01 587.485 291.33 587.765 290.69C588.045 290.05 588.425 289.49 588.905 289.01C589.385 288.53 589.945 288.15 590.585 287.87C591.225 287.59 591.915 287.45 592.655 287.45H598.505ZM599.705 292.73C599.705 292.39 599.585 292.11 599.345 291.89C599.125 291.67 598.845 291.56 598.505 291.56H592.655C592.315 291.56 592.025 291.67 591.785 291.89C591.565 292.11 591.455 292.39 591.455 292.73V302.72C591.455 303.06 591.565 303.34 591.785 303.56C592.025 303.78 592.315 303.89 592.655 303.89H598.505C598.845 303.89 599.125 303.78 599.345 303.56C599.585 303.34 599.705 303.06 599.705 302.72V292.73ZM624.073 287.42C624.253 287.42 624.403 287.49 624.523 287.63C624.663 287.75 624.733 287.9 624.733 288.08V290.9C624.733 291.08 624.663 291.23 624.523 291.35C624.403 291.47 624.253 291.53 624.073 291.53H618.553V307.34C618.553 307.52 618.483 307.68 618.343 307.82C618.223 307.94 618.073 308 617.893 308H615.073C614.893 308 614.743 307.94 614.623 307.82C614.503 307.68 614.443 307.52 614.443 307.34V291.53H608.923C608.743 291.53 608.583 291.47 608.443 291.35C608.323 291.23 608.263 291.08 608.263 290.9V288.08C608.263 287.9 608.323 287.75 608.443 287.63C608.583 287.49 608.743 287.42 608.923 287.42H624.073ZM640.341 287.45C641.081 287.45 641.771 287.59 642.411 287.87C643.051 288.15 643.611 288.53 644.091 289.01C644.571 289.49 644.951 290.05 645.231 290.69C645.511 291.33 645.651 292.01 645.651 292.73V302.72C645.651 303.44 645.511 304.12 645.231 304.76C644.951 305.4 644.571 305.96 644.091 306.44C643.611 306.92 643.051 307.3 642.411 307.58C641.771 307.86 641.081 308 640.341 308H634.491C633.751 308 633.061 307.86 632.421 307.58C631.781 307.3 631.221 306.92 630.741 306.44C630.261 305.96 629.881 305.4 629.601 304.76C629.321 304.12 629.181 303.44 629.181 302.72V292.73C629.181 292.01 629.321 291.33 629.601 290.69C629.881 290.05 630.261 289.49 630.741 289.01C631.221 288.53 631.781 288.15 632.421 287.87C633.061 287.59 633.751 287.45 634.491 287.45H640.341ZM641.541 292.73C641.541 292.39 641.421 292.11 641.181 291.89C640.961 291.67 640.681 291.56 640.341 291.56H634.491C634.151 291.56 633.861 291.67 633.621 291.89C633.401 292.11 633.291 292.39 633.291 292.73V302.72C633.291 303.06 633.401 303.34 633.621 303.56C633.861 303.78 634.151 303.89 634.491 303.89H640.341C640.681 303.89 640.961 303.78 641.181 303.56C641.421 303.34 641.541 303.06 641.541 302.72V292.73ZM661.259 287.42C661.999 287.42 662.689 287.56 663.329 287.84C663.969 288.12 664.529 288.5 665.009 288.98C665.489 289.46 665.869 290.02 666.149 290.66C666.429 291.3 666.569 291.99 666.569 292.73V294.47C666.569 295.19 666.429 295.88 666.149 296.54C665.869 297.18 665.489 297.74 665.009 298.22C664.529 298.7 663.969 299.08 663.329 299.36C662.689 299.64 661.999 299.78 661.259 299.78H654.209V307.34C654.209 307.52 654.149 307.68 654.029 307.82C653.909 307.94 653.759 308 653.579 308H650.759C650.579 308 650.419 307.94 650.279 307.82C650.159 307.68 650.099 307.52 650.099 307.34V288.08C650.099 287.9 650.159 287.75 650.279 287.63C650.419 287.49 650.579 287.42 650.759 287.42H661.259ZM662.459 292.73C662.459 292.39 662.339 292.11 662.099 291.89C661.879 291.65 661.599 291.53 661.259 291.53H654.209V295.67H661.259C661.599 295.67 661.879 295.56 662.099 295.34C662.339 295.1 662.459 294.81 662.459 294.47V292.73ZM678.427 300.95C678.427 300.61 678.317 300.33 678.097 300.11C677.857 299.87 677.567 299.75 677.227 299.75H675.127V303.89H677.227C677.567 303.89 677.857 303.77 678.097 303.53C678.317 303.31 678.427 303.03 678.427 302.69V300.95ZM679.297 296.06C679.937 296.34 680.497 296.72 680.977 297.2C681.457 297.68 681.837 298.24 682.117 298.88C682.397 299.54 682.537 300.23 682.537 300.95V302.69C682.537 303.43 682.397 304.12 682.117 304.76C681.837 305.4 681.457 305.96 680.977 306.44C680.497 306.92 679.937 307.3 679.297 307.58C678.657 307.86 677.967 308 677.227 308H671.677C671.497 308 671.347 307.93 671.227 307.79C671.087 307.67 671.017 307.52 671.017 307.34V288.08C671.017 287.9 671.087 287.74 671.227 287.6C671.347 287.48 671.497 287.42 671.677 287.42H674.497C674.677 287.42 674.827 287.48 674.947 287.6C675.067 287.74 675.127 287.9 675.127 288.08V295.64H677.227C677.967 295.64 678.657 295.78 679.297 296.06ZM686.827 287.42C687.007 287.42 687.167 287.48 687.307 287.6C687.427 287.74 687.487 287.9 687.487 288.08V307.34C687.487 307.52 687.427 307.67 687.307 307.79C687.167 307.93 687.007 308 686.827 308H684.037C683.857 308 683.697 307.93 683.557 307.79C683.437 307.67 683.377 307.52 683.377 307.34V288.08C683.377 287.9 683.437 287.74 683.557 287.6C683.697 287.48 683.857 287.42 684.037 287.42H686.827ZM694.665 281.69C694.525 281.57 694.475 281.47 694.515 281.39C694.555 281.29 694.665 281.24 694.845 281.24H697.485C697.665 281.24 697.865 281.29 698.085 281.39C698.285 281.47 698.455 281.58 698.595 281.72L700.185 283.28L701.745 281.72C701.885 281.58 702.065 281.47 702.285 281.39C702.485 281.29 702.675 281.24 702.855 281.24H705.465C705.645 281.24 705.755 281.29 705.795 281.39C705.835 281.47 705.785 281.57 705.645 281.69L702.315 284.9C702.175 285.04 701.995 285.16 701.775 285.26C701.575 285.34 701.385 285.38 701.205 285.38H699.135C698.955 285.38 698.755 285.34 698.535 285.26C698.335 285.16 698.165 285.05 698.025 284.93L694.665 281.69ZM707.745 287.42C707.925 287.42 708.085 287.48 708.225 287.6C708.345 287.74 708.405 287.9 708.405 288.08V307.34C708.405 307.52 708.345 307.67 708.225 307.79C708.085 307.93 707.925 308 707.745 308H704.925C704.745 308 704.595 307.93 704.475 307.79C704.335 307.67 704.265 307.52 704.265 307.34V300.62L696.525 307.55C696.385 307.67 696.205 307.77 695.985 307.85C695.765 307.95 695.565 308 695.385 308H692.595C692.415 308 692.265 307.93 692.145 307.79C692.005 307.67 691.935 307.52 691.935 307.34V288.08C691.935 287.9 692.005 287.74 692.145 287.6C692.265 287.48 692.415 287.42 692.595 287.42H695.385C695.565 287.42 695.725 287.48 695.865 287.6C695.985 287.74 696.045 287.9 696.045 288.08V302.48L704.265 295.1V288.08C704.265 287.9 704.335 287.74 704.475 287.6C704.595 287.48 704.745 287.42 704.925 287.42H707.745ZM746.761 293.6C746.581 293.6 746.421 293.54 746.281 293.42C746.161 293.28 746.101 293.12 746.101 292.94V292.73C746.101 292.39 745.981 292.11 745.741 291.89C745.521 291.65 745.241 291.53 744.901 291.53H739.051C738.711 291.53 738.431 291.65 738.211 291.89C737.991 292.11 737.881 292.39 737.881 292.73V302.69C737.881 303.03 737.991 303.32 738.211 303.56C738.431 303.78 738.711 303.89 739.051 303.89H744.901C745.241 303.89 745.521 303.78 745.741 303.56C745.981 303.32 746.101 303.03 746.101 302.69V302.48C746.101 302.3 746.161 302.15 746.281 302.03C746.421 301.89 746.581 301.82 746.761 301.82H749.551C749.731 301.82 749.881 301.89 750.001 302.03C750.141 302.15 750.211 302.3 750.211 302.48V302.69C750.211 303.43 750.071 304.12 749.791 304.76C749.511 305.4 749.131 305.96 748.651 306.44C748.171 306.92 747.611 307.3 746.971 307.58C746.331 307.86 745.641 308 744.901 308H739.051C738.331 308 737.641 307.86 736.981 307.58C736.341 307.3 735.781 306.92 735.301 306.44C734.821 305.96 734.441 305.4 734.161 304.76C733.881 304.12 733.741 303.43 733.741 302.69V292.73C733.741 291.99 733.881 291.3 734.161 290.66C734.441 290.02 734.821 289.46 735.301 288.98C735.781 288.5 736.341 288.12 736.981 287.84C737.641 287.56 738.331 287.42 739.051 287.42H744.901C745.641 287.42 746.331 287.56 746.971 287.84C747.611 288.12 748.171 288.5 748.651 288.98C749.131 289.46 749.511 290.02 749.791 290.66C750.071 291.3 750.211 291.99 750.211 292.73V292.94C750.211 293.12 750.141 293.28 750.001 293.42C749.881 293.54 749.731 293.6 749.551 293.6H746.761ZM770.469 287.42C770.649 287.42 770.809 287.48 770.949 287.6C771.069 287.74 771.129 287.9 771.129 288.08V307.34C771.129 307.52 771.069 307.67 770.949 307.79C770.809 307.93 770.649 308 770.469 308H767.679C767.499 308 767.349 307.93 767.229 307.79C767.089 307.67 767.019 307.52 767.019 307.34V294.53L764.559 298.43C764.459 298.59 764.319 298.73 764.139 298.85C763.939 298.95 763.749 299 763.569 299H762.249C762.069 299 761.879 298.95 761.679 298.85C761.499 298.73 761.359 298.59 761.259 298.43L758.769 294.5V307.34C758.769 307.52 758.709 307.67 758.589 307.79C758.449 307.93 758.289 308 758.109 308H755.319C755.139 308 754.989 307.93 754.869 307.79C754.729 307.67 754.659 307.52 754.659 307.34V288.08C754.659 287.9 754.729 287.74 754.869 287.6C754.989 287.48 755.139 287.42 755.319 287.42H758.109L758.319 287.45C758.419 287.47 758.519 287.52 758.619 287.6C758.819 287.7 758.969 287.83 759.069 287.99L762.909 294.62L766.749 287.99C766.849 287.83 766.989 287.7 767.169 287.6L767.409 287.48C767.489 287.44 767.579 287.42 767.679 287.42H770.469ZM786.737 287.45C787.477 287.45 788.167 287.59 788.807 287.87C789.447 288.15 790.007 288.53 790.487 289.01C790.967 289.49 791.347 290.05 791.627 290.69C791.907 291.33 792.047 292.01 792.047 292.73V302.72C792.047 303.44 791.907 304.12 791.627 304.76C791.347 305.4 790.967 305.96 790.487 306.44C790.007 306.92 789.447 307.3 788.807 307.58C788.167 307.86 787.477 308 786.737 308H780.887C780.147 308 779.457 307.86 778.817 307.58C778.177 307.3 777.617 306.92 777.137 306.44C776.657 305.96 776.277 305.4 775.997 304.76C775.717 304.12 775.577 303.44 775.577 302.72V292.73C775.577 292.01 775.717 291.33 775.997 290.69C776.277 290.05 776.657 289.49 777.137 289.01C777.617 288.53 778.177 288.15 778.817 287.87C779.457 287.59 780.147 287.45 780.887 287.45H786.737ZM787.937 292.73C787.937 292.39 787.817 292.11 787.577 291.89C787.357 291.67 787.077 291.56 786.737 291.56H780.887C780.547 291.56 780.257 291.67 780.017 291.89C779.797 292.11 779.687 292.39 779.687 292.73V302.72C779.687 303.06 779.797 303.34 780.017 303.56C780.257 303.78 780.547 303.89 780.887 303.89H786.737C787.077 303.89 787.357 303.78 787.577 303.56C787.817 303.34 787.937 303.06 787.937 302.72V292.73ZM812.965 292.88C812.965 293.06 812.915 293.26 812.815 293.48C812.715 293.68 812.595 293.84 812.455 293.96L807.955 297.71L812.455 301.49C812.595 301.59 812.715 301.75 812.815 301.97C812.915 302.17 812.965 302.36 812.965 302.54V307.37C812.965 307.53 812.905 307.67 812.785 307.79C812.645 307.93 812.485 308 812.305 308H809.485C809.305 308 809.155 307.93 809.035 307.79C808.895 307.67 808.825 307.53 808.825 307.37V304.49C808.825 304.31 808.785 304.11 808.705 303.89C808.605 303.69 808.485 303.53 808.345 303.41L806.785 302.12V307.34C806.785 307.52 806.725 307.67 806.605 307.79C806.465 307.93 806.305 308 806.125 308H803.335C803.155 308 802.995 307.93 802.855 307.79C802.735 307.67 802.675 307.52 802.675 307.34V302.12L801.115 303.41C800.975 303.53 800.855 303.69 800.755 303.89C800.655 304.11 800.605 304.31 800.605 304.49V307.37C800.605 307.53 800.545 307.67 800.425 307.79C800.305 307.93 800.155 308 799.975 308H797.155C796.975 308 796.825 307.93 796.705 307.79C796.565 307.67 796.495 307.53 796.495 307.37V302.54C796.495 302.36 796.545 302.17 796.645 301.97C796.725 301.75 796.845 301.59 797.005 301.49L801.505 297.71L797.005 293.96C796.845 293.84 796.725 293.68 796.645 293.48C796.545 293.26 796.495 293.06 796.495 292.88V288.08C796.495 287.9 796.565 287.74 796.705 287.6C796.825 287.48 796.975 287.42 797.155 287.42H799.975C800.155 287.42 800.305 287.48 800.425 287.6C800.545 287.74 800.605 287.9 800.605 288.08V290.96C800.605 291.14 800.655 291.33 800.755 291.53C800.855 291.75 800.975 291.92 801.115 292.04L802.675 293.33V288.08C802.675 287.9 802.735 287.74 802.855 287.6C802.995 287.48 803.155 287.42 803.335 287.42H806.125C806.305 287.42 806.465 287.48 806.605 287.6C806.725 287.74 806.785 287.9 806.785 288.08V293.33L808.345 292.04C808.485 291.92 808.605 291.75 808.705 291.53C808.785 291.33 808.825 291.14 808.825 290.96V288.08C808.825 287.9 808.895 287.74 809.035 287.6C809.155 287.48 809.305 287.42 809.485 287.42H812.305C812.485 287.42 812.645 287.48 812.785 287.6C812.905 287.74 812.965 287.9 812.965 288.08V292.88ZM833.553 290.9C833.553 291.08 833.493 291.23 833.373 291.35C833.253 291.47 833.103 291.53 832.923 291.53H821.823V295.67H831.873C832.053 295.67 832.203 295.73 832.323 295.85C832.463 295.97 832.533 296.12 832.533 296.3V299.12C832.533 299.3 832.463 299.46 832.323 299.6C832.203 299.72 832.053 299.78 831.873 299.78H821.823V303.89H832.923C833.103 303.89 833.253 303.96 833.373 304.1C833.493 304.22 833.553 304.37 833.553 304.55V307.34C833.553 307.52 833.493 307.68 833.373 307.82C833.253 307.94 833.103 308 832.923 308H818.343C818.163 308 818.013 307.94 817.893 307.82C817.773 307.68 817.713 307.52 817.713 307.34V288.08C817.713 287.9 817.773 287.75 817.893 287.63C818.013 287.49 818.163 287.42 818.343 287.42H832.923C833.103 287.42 833.253 287.49 833.373 287.63C833.493 287.75 833.553 287.9 833.553 288.08V290.9ZM854.112 287.42C854.292 287.42 854.442 287.49 854.562 287.63C854.702 287.75 854.772 287.9 854.772 288.08V290.9C854.772 291.08 854.702 291.23 854.562 291.35C854.442 291.47 854.292 291.53 854.112 291.53H848.592V307.34C848.592 307.52 848.522 307.68 848.382 307.82C848.262 307.94 848.112 308 847.932 308H845.112C844.932 308 844.782 307.94 844.662 307.82C844.542 307.68 844.482 307.52 844.482 307.34V291.53H838.962C838.782 291.53 838.622 291.47 838.482 291.35C838.362 291.23 838.302 291.08 838.302 290.9V288.08C838.302 287.9 838.362 287.75 838.482 287.63C838.622 287.49 838.782 287.42 838.962 287.42H854.112ZM80.6459 321.42C80.8259 321.42 80.9759 321.48 81.0959 321.6C81.2159 321.74 81.2759 321.9 81.2759 322.08V336.81C81.2559 337.51 81.1159 338.16 80.8559 338.76C80.5759 339.4 80.1959 339.96 79.7159 340.44C79.2359 340.92 78.6659 341.3 78.0059 341.58C77.3659 341.86 76.6859 342 75.9659 342H70.1159C69.3759 342 68.6859 341.86 68.0459 341.58C67.4059 341.3 66.8459 340.92 66.3659 340.44C65.8859 339.96 65.5059 339.4 65.2259 338.76C64.9459 338.12 64.8059 337.43 64.8059 336.69V336.48C64.8059 336.3 64.8759 336.15 65.0159 336.03C65.1359 335.89 65.2859 335.82 65.4659 335.82H68.2559C68.4359 335.82 68.5959 335.89 68.7359 336.03C68.8559 336.15 68.9159 336.3 68.9159 336.48V336.69C68.9159 337.03 69.0359 337.31 69.2759 337.53C69.4959 337.77 69.7759 337.89 70.1159 337.89H75.9659C76.3059 337.89 76.5859 337.77 76.8059 337.53C77.0259 337.31 77.1359 337.03 77.1359 336.69V333.78H70.1159C69.3759 333.78 68.6859 333.64 68.0459 333.36C67.4059 333.08 66.8459 332.7 66.3659 332.22C65.8859 331.74 65.5059 331.18 65.2259 330.54C64.9459 329.88 64.8059 329.19 64.8059 328.47V322.02C64.8059 321.86 64.8759 321.72 65.0159 321.6C65.1359 321.48 65.2859 321.42 65.4659 321.42H68.2859C68.4659 321.42 68.6159 321.48 68.7359 321.6C68.8559 321.72 68.9159 321.86 68.9159 322.02V328.47C68.9159 328.81 69.0359 329.09 69.2759 329.31C69.4959 329.55 69.7759 329.67 70.1159 329.67H77.1359V328.92H77.1659V322.08C77.1659 321.9 77.2259 321.74 77.3459 321.6C77.4859 321.48 77.6459 321.42 77.8259 321.42H80.6459ZM101.954 341.43C102.054 341.59 102.064 341.73 101.984 341.85C101.924 341.95 101.804 342 101.624 342H98.2039C98.0239 342 97.8439 341.95 97.6639 341.85C97.4839 341.73 97.3439 341.59 97.2439 341.43L92.8939 333.78H89.9839V341.34C89.9839 341.52 89.9139 341.68 89.7739 341.82C89.6539 341.94 89.5039 342 89.3239 342H86.5039C86.3239 342 86.1739 341.94 86.0539 341.82C85.9339 341.68 85.8739 341.52 85.8739 341.34V322.08C85.8739 321.9 85.9339 321.75 86.0539 321.63C86.1739 321.49 86.3239 321.42 86.5039 321.42H89.3239C89.5039 321.42 89.6539 321.49 89.7739 321.63C89.9139 321.75 89.9839 321.9 89.9839 322.08V329.67H92.8939L97.2439 321.99C97.3439 321.83 97.4839 321.7 97.6639 321.6C97.8439 321.48 98.0239 321.42 98.2039 321.42H101.624C101.804 321.42 101.924 321.48 101.984 321.6C102.064 321.7 102.054 321.83 101.954 321.99L96.4639 331.71L101.954 341.43ZM117.802 321.42C118.542 321.42 119.232 321.56 119.872 321.84C120.512 322.12 121.072 322.5 121.552 322.98C122.032 323.46 122.412 324.02 122.692 324.66C122.972 325.3 123.112 325.99 123.112 326.73V328.47C123.112 329.19 122.972 329.88 122.692 330.54C122.412 331.18 122.032 331.74 121.552 332.22C121.072 332.7 120.512 333.08 119.872 333.36C119.232 333.64 118.542 333.78 117.802 333.78H110.752V341.34C110.752 341.52 110.692 341.68 110.572 341.82C110.452 341.94 110.302 342 110.122 342H107.302C107.122 342 106.962 341.94 106.822 341.82C106.702 341.68 106.642 341.52 106.642 341.34V322.08C106.642 321.9 106.702 321.75 106.822 321.63C106.962 321.49 107.122 321.42 107.302 321.42H117.802ZM119.002 326.73C119.002 326.39 118.882 326.11 118.642 325.89C118.422 325.65 118.142 325.53 117.802 325.53H110.752V329.67H117.802C118.142 329.67 118.422 329.56 118.642 329.34C118.882 329.1 119.002 328.81 119.002 328.47V326.73ZM138.6 321.42C138.78 321.42 138.95 321.48 139.11 321.6C139.29 321.72 139.41 321.86 139.47 322.02L143.79 332.76C143.85 332.92 143.9 333.13 143.94 333.39C144 333.63 144.03 333.84 144.03 334.02V341.34C144.03 341.52 143.96 341.68 143.82 341.82C143.7 341.94 143.55 342 143.37 342H140.55C140.37 342 140.21 341.94 140.07 341.82C139.95 341.68 139.89 341.52 139.89 341.34V337.89H131.67V341.34C131.67 341.52 131.6 341.68 131.46 341.82C131.34 341.94 131.19 342 131.01 342H128.22C128.04 342 127.88 341.94 127.74 341.82C127.62 341.68 127.56 341.52 127.56 341.34V334.02C127.56 333.84 127.58 333.63 127.62 333.39C127.68 333.13 127.74 332.92 127.8 332.76L132.09 322.02C132.17 321.86 132.29 321.72 132.45 321.6C132.63 321.48 132.81 321.42 132.99 321.42H138.6ZM131.82 333.78H139.74L136.44 325.53H135.12L131.82 333.78ZM161.498 327.6C161.318 327.6 161.158 327.54 161.018 327.42C160.898 327.28 160.838 327.12 160.838 326.94V326.73C160.838 326.39 160.718 326.11 160.478 325.89C160.258 325.65 159.978 325.53 159.638 325.53H153.788C153.448 325.53 153.168 325.65 152.948 325.89C152.728 326.11 152.618 326.39 152.618 326.73V336.69C152.618 337.03 152.728 337.32 152.948 337.56C153.168 337.78 153.448 337.89 153.788 337.89H159.638C159.978 337.89 160.258 337.78 160.478 337.56C160.718 337.32 160.838 337.03 160.838 336.69V336.48C160.838 336.3 160.898 336.15 161.018 336.03C161.158 335.89 161.318 335.82 161.498 335.82H164.288C164.468 335.82 164.618 335.89 164.738 336.03C164.878 336.15 164.948 336.3 164.948 336.48V336.69C164.948 337.43 164.808 338.12 164.528 338.76C164.248 339.4 163.868 339.96 163.388 340.44C162.908 340.92 162.348 341.3 161.708 341.58C161.068 341.86 160.378 342 159.638 342H153.788C153.068 342 152.378 341.86 151.718 341.58C151.078 341.3 150.518 340.92 150.038 340.44C149.558 339.96 149.178 339.4 148.898 338.76C148.618 338.12 148.478 337.43 148.478 336.69V326.73C148.478 325.99 148.618 325.3 148.898 324.66C149.178 324.02 149.558 323.46 150.038 322.98C150.518 322.5 151.078 322.12 151.718 321.84C152.378 321.56 153.068 321.42 153.788 321.42H159.638C160.378 321.42 161.068 321.56 161.708 321.84C162.348 322.12 162.908 322.5 163.388 322.98C163.868 323.46 164.248 324.02 164.528 324.66C164.808 325.3 164.948 325.99 164.948 326.73V326.94C164.948 327.12 164.878 327.28 164.738 327.42C164.618 327.54 164.468 327.6 164.288 327.6H161.498ZM181.726 334.62L173.986 341.55C173.846 341.67 173.666 341.77 173.446 341.85C173.226 341.95 173.026 342 172.846 342H170.056C169.876 342 169.726 341.93 169.606 341.79C169.466 341.67 169.396 341.52 169.396 341.34V322.08C169.396 321.9 169.466 321.74 169.606 321.6C169.726 321.48 169.876 321.42 170.056 321.42H172.846C173.026 321.42 173.186 321.48 173.326 321.6C173.446 321.74 173.506 321.9 173.506 322.08V336.48L181.726 329.1V322.08C181.726 321.9 181.796 321.74 181.936 321.6C182.056 321.48 182.206 321.42 182.386 321.42H185.206C185.386 321.42 185.546 321.48 185.686 321.6C185.806 321.74 185.866 321.9 185.866 322.08V341.34C185.866 341.52 185.806 341.67 185.686 341.79C185.546 341.93 185.386 342 185.206 342H182.386C182.206 342 182.056 341.93 181.936 341.79C181.796 341.67 181.726 341.52 181.726 341.34V334.62ZM206.124 321.42C206.304 321.42 206.454 321.49 206.574 321.63C206.714 321.75 206.784 321.9 206.784 322.08V324.9C206.784 325.08 206.714 325.23 206.574 325.35C206.454 325.47 206.304 325.53 206.124 325.53H200.604V341.34C200.604 341.52 200.534 341.68 200.394 341.82C200.274 341.94 200.124 342 199.944 342H197.124C196.944 342 196.794 341.94 196.674 341.82C196.554 341.68 196.494 341.52 196.494 341.34V325.53H190.974C190.794 325.53 190.634 325.47 190.494 325.35C190.374 325.23 190.314 325.08 190.314 324.9V322.08C190.314 321.9 190.374 321.75 190.494 321.63C190.634 321.49 190.794 321.42 190.974 321.42H206.124ZM223.592 334.95C223.592 334.61 223.482 334.33 223.262 334.11C223.022 333.87 222.732 333.75 222.392 333.75H215.342V337.89H222.392C222.732 337.89 223.022 337.77 223.262 337.53C223.482 337.31 223.592 337.03 223.592 336.69V334.95ZM226.142 331.2C226.622 331.68 227.002 332.24 227.282 332.88C227.562 333.54 227.702 334.23 227.702 334.95V336.69C227.702 337.43 227.562 338.12 227.282 338.76C227.002 339.4 226.622 339.96 226.142 340.44C225.662 340.92 225.102 341.3 224.462 341.58C223.822 341.86 223.132 342 222.392 342H211.892C211.712 342 211.562 341.93 211.442 341.79C211.302 341.67 211.232 341.52 211.232 341.34V322.08C211.232 321.9 211.302 321.74 211.442 321.6C211.562 321.48 211.712 321.42 211.892 321.42H214.712C214.892 321.42 215.042 321.48 215.162 321.6C215.282 321.74 215.342 321.9 215.342 322.08V329.64H222.392C223.132 329.64 223.822 329.78 224.462 330.06C225.102 330.34 225.662 330.72 226.142 331.2ZM264.198 321.42C264.918 321.42 265.598 321.56 266.238 321.84C266.878 322.12 267.438 322.5 267.918 322.98C268.398 323.46 268.778 324.02 269.058 324.66C269.338 325.3 269.478 325.99 269.478 326.73V328.47C269.478 329.09 269.378 329.67 269.178 330.21C268.978 330.75 268.708 331.25 268.368 331.71C268.708 332.17 268.978 332.67 269.178 333.21C269.378 333.75 269.478 334.33 269.478 334.95V336.69C269.478 337.43 269.338 338.12 269.058 338.76C268.778 339.4 268.398 339.96 267.918 340.44C267.438 340.92 266.878 341.3 266.238 341.58C265.598 341.86 264.918 342 264.198 342H253.668C253.488 342 253.338 341.94 253.218 341.82C253.098 341.68 253.038 341.52 253.038 341.34V322.08C253.038 321.9 253.098 321.75 253.218 321.63C253.338 321.49 253.488 321.42 253.668 321.42H264.198ZM257.148 329.64H264.198C264.518 329.64 264.788 329.53 265.008 329.31C265.248 329.09 265.368 328.81 265.368 328.47V326.73C265.368 326.39 265.248 326.11 265.008 325.89C264.788 325.65 264.518 325.53 264.198 325.53H257.148V329.64ZM265.368 334.95C265.368 334.61 265.248 334.33 265.008 334.11C264.788 333.89 264.518 333.78 264.198 333.78H257.148V337.89H264.198C264.518 337.89 264.788 337.78 265.008 337.56C265.248 337.32 265.368 337.03 265.368 336.69V334.95ZM284.967 321.42C285.147 321.42 285.317 321.48 285.477 321.6C285.657 321.72 285.777 321.86 285.837 322.02L290.157 332.76C290.217 332.92 290.267 333.13 290.307 333.39C290.367 333.63 290.397 333.84 290.397 334.02V341.34C290.397 341.52 290.327 341.68 290.187 341.82C290.067 341.94 289.917 342 289.737 342H286.917C286.737 342 286.577 341.94 286.437 341.82C286.317 341.68 286.257 341.52 286.257 341.34V337.89H278.037V341.34C278.037 341.52 277.967 341.68 277.827 341.82C277.707 341.94 277.557 342 277.377 342H274.587C274.407 342 274.247 341.94 274.107 341.82C273.987 341.68 273.927 341.52 273.927 341.34V334.02C273.927 333.84 273.947 333.63 273.987 333.39C274.047 333.13 274.107 332.92 274.167 332.76L278.457 322.02C278.537 321.86 278.657 321.72 278.817 321.6C278.997 321.48 279.177 321.42 279.357 321.42H284.967ZM278.187 333.78H286.107L282.807 325.53H281.487L278.187 333.78ZM310.655 321.42C310.835 321.42 310.995 321.48 311.135 321.6C311.255 321.74 311.315 321.9 311.315 322.08V341.34C311.315 341.52 311.255 341.67 311.135 341.79C310.995 341.93 310.835 342 310.655 342H295.505C295.325 342 295.175 341.93 295.055 341.79C294.915 341.67 294.845 341.52 294.845 341.34V322.08C294.845 321.9 294.915 321.74 295.055 321.6C295.175 321.48 295.325 321.42 295.505 321.42H298.325C298.505 321.42 298.665 321.48 298.805 321.6C298.925 321.74 298.985 321.9 298.985 322.08V337.89H301.025V328.44C301.025 328.26 301.095 328.1 301.235 327.96C301.355 327.84 301.505 327.78 301.685 327.78H304.475C304.655 327.78 304.815 327.84 304.955 327.96C305.075 328.1 305.135 328.26 305.135 328.44V337.89H307.175V322.08C307.175 321.9 307.235 321.74 307.355 321.6C307.495 321.48 307.655 321.42 307.835 321.42H310.655ZM348.982 334.62L341.242 341.55C341.102 341.67 340.922 341.77 340.702 341.85C340.482 341.95 340.282 342 340.102 342H337.312C337.132 342 336.982 341.93 336.862 341.79C336.722 341.67 336.652 341.52 336.652 341.34V322.08C336.652 321.9 336.722 321.74 336.862 321.6C336.982 321.48 337.132 321.42 337.312 321.42H340.102C340.282 321.42 340.442 321.48 340.582 321.6C340.702 321.74 340.762 321.9 340.762 322.08V336.48L348.982 329.1V322.08C348.982 321.9 349.052 321.74 349.192 321.6C349.312 321.48 349.462 321.42 349.642 321.42H352.462C352.642 321.42 352.802 321.48 352.942 321.6C353.062 321.74 353.122 321.9 353.122 322.08V341.34C353.122 341.52 353.062 341.67 352.942 341.79C352.802 341.93 352.642 342 352.462 342H349.642C349.462 342 349.312 341.93 349.192 341.79C349.052 341.67 348.982 341.52 348.982 341.34V334.62ZM369.9 322.08C369.9 321.9 369.96 321.75 370.08 321.63C370.22 321.49 370.38 321.42 370.56 321.42H373.38C373.56 321.42 373.71 321.49 373.83 321.63C373.95 321.75 374.01 321.9 374.01 322.08V341.34C374.01 341.52 373.95 341.68 373.83 341.82C373.71 341.94 373.56 342 373.38 342H370.56C370.38 342 370.22 341.94 370.08 341.82C369.96 341.68 369.9 341.52 369.9 341.34V333.78H361.68V341.34C361.68 341.52 361.61 341.68 361.47 341.82C361.35 341.94 361.2 342 361.02 342H358.2C358.02 342 357.87 341.94 357.75 341.82C357.63 341.68 357.57 341.52 357.57 341.34V322.08C357.57 321.9 357.63 321.75 357.75 321.63C357.87 321.49 358.02 321.42 358.2 321.42H361.02C361.2 321.42 361.35 321.49 361.47 321.63C361.61 321.75 361.68 321.9 361.68 322.08V329.67H369.9V322.08ZM394.268 321.42C394.448 321.42 394.598 321.49 394.718 321.63C394.858 321.75 394.928 321.9 394.928 322.08V324.9C394.928 325.08 394.858 325.23 394.718 325.35C394.598 325.47 394.448 325.53 394.268 325.53H388.748V341.34C388.748 341.52 388.678 341.68 388.538 341.82C388.418 341.94 388.268 342 388.088 342H385.268C385.088 342 384.938 341.94 384.818 341.82C384.698 341.68 384.638 341.52 384.638 341.34V325.53H379.118C378.938 325.53 378.778 325.47 378.638 325.35C378.518 325.23 378.458 325.08 378.458 324.9V322.08C378.458 321.9 378.518 321.75 378.638 321.63C378.778 321.49 378.938 321.42 379.118 321.42H394.268ZM415.516 324.9C415.516 325.08 415.456 325.23 415.336 325.35C415.216 325.47 415.066 325.53 414.886 325.53H403.786V329.67H413.836C414.016 329.67 414.166 329.73 414.286 329.85C414.426 329.97 414.496 330.12 414.496 330.3V333.12C414.496 333.3 414.426 333.46 414.286 333.6C414.166 333.72 414.016 333.78 413.836 333.78H403.786V337.89H414.886C415.066 337.89 415.216 337.96 415.336 338.1C415.456 338.22 415.516 338.37 415.516 338.55V341.34C415.516 341.52 415.456 341.68 415.336 341.82C415.216 341.94 415.066 342 414.886 342H400.306C400.126 342 399.976 341.94 399.856 341.82C399.736 341.68 399.676 341.52 399.676 341.34V322.08C399.676 321.9 399.736 321.75 399.856 321.63C399.976 321.49 400.126 321.42 400.306 321.42H414.886C415.066 321.42 415.216 321.49 415.336 321.63C415.456 321.75 415.516 321.9 415.516 322.08V324.9ZM431.425 321.42C432.165 321.42 432.855 321.56 433.495 321.84C434.135 322.12 434.695 322.5 435.175 322.98C435.655 323.46 436.035 324.02 436.315 324.66C436.595 325.3 436.735 325.99 436.735 326.73V328.47C436.735 329.19 436.595 329.88 436.315 330.54C436.035 331.18 435.655 331.74 435.175 332.22C434.695 332.7 434.135 333.08 433.495 333.36C432.855 333.64 432.165 333.78 431.425 333.78H424.375V341.34C424.375 341.52 424.315 341.68 424.195 341.82C424.075 341.94 423.925 342 423.745 342H420.925C420.745 342 420.585 341.94 420.445 341.82C420.325 341.68 420.265 341.52 420.265 341.34V322.08C420.265 321.9 420.325 321.75 420.445 321.63C420.585 321.49 420.745 321.42 420.925 321.42H431.425ZM432.625 326.73C432.625 326.39 432.505 326.11 432.265 325.89C432.045 325.65 431.765 325.53 431.425 325.53H424.375V329.67H431.425C431.765 329.67 432.045 329.56 432.265 329.34C432.505 329.1 432.625 328.81 432.625 328.47V326.73ZM453.543 334.95C453.543 334.61 453.433 334.33 453.213 334.11C452.973 333.87 452.683 333.75 452.343 333.75H445.293V337.89H452.343C452.683 337.89 452.973 337.77 453.213 337.53C453.433 337.31 453.543 337.03 453.543 336.69V334.95ZM456.093 331.2C456.573 331.68 456.953 332.24 457.233 332.88C457.513 333.54 457.653 334.23 457.653 334.95V336.69C457.653 337.43 457.513 338.12 457.233 338.76C456.953 339.4 456.573 339.96 456.093 340.44C455.613 340.92 455.053 341.3 454.413 341.58C453.773 341.86 453.083 342 452.343 342H441.843C441.663 342 441.513 341.93 441.393 341.79C441.253 341.67 441.183 341.52 441.183 341.34V322.08C441.183 321.9 441.253 321.74 441.393 321.6C441.513 321.48 441.663 321.42 441.843 321.42H444.663C444.843 321.42 444.993 321.48 445.113 321.6C445.233 321.74 445.293 321.9 445.293 322.08V329.64H452.343C453.083 329.64 453.773 329.78 454.413 330.06C455.053 330.34 455.613 330.72 456.093 331.2ZM478.241 324.9C478.241 325.08 478.181 325.23 478.061 325.35C477.941 325.47 477.791 325.53 477.611 325.53H466.511V329.67H476.561C476.741 329.67 476.891 329.73 477.011 329.85C477.151 329.97 477.221 330.12 477.221 330.3V333.12C477.221 333.3 477.151 333.46 477.011 333.6C476.891 333.72 476.741 333.78 476.561 333.78H466.511V337.89H477.611C477.791 337.89 477.941 337.96 478.061 338.1C478.181 338.22 478.241 338.37 478.241 338.55V341.34C478.241 341.52 478.181 341.68 478.061 341.82C477.941 341.94 477.791 342 477.611 342H463.031C462.851 342 462.701 341.94 462.581 341.82C462.461 341.68 462.401 341.52 462.401 341.34V322.08C462.401 321.9 462.461 321.75 462.581 321.63C462.701 321.49 462.851 321.42 463.031 321.42H477.611C477.791 321.42 477.941 321.49 478.061 321.63C478.181 321.75 478.241 321.9 478.241 322.08V324.9ZM494.15 321.42C494.89 321.42 495.58 321.56 496.22 321.84C496.86 322.12 497.42 322.5 497.9 322.98C498.38 323.46 498.76 324.02 499.04 324.66C499.32 325.3 499.46 325.99 499.46 326.73V328.47C499.46 329.19 499.32 329.88 499.04 330.54C498.76 331.18 498.38 331.74 497.9 332.22C497.42 332.7 496.86 333.08 496.22 333.36C495.58 333.64 494.89 333.78 494.15 333.78H487.1V341.34C487.1 341.52 487.04 341.68 486.92 341.82C486.8 341.94 486.65 342 486.47 342H483.65C483.47 342 483.31 341.94 483.17 341.82C483.05 341.68 482.99 341.52 482.99 341.34V322.08C482.99 321.9 483.05 321.75 483.17 321.63C483.31 321.49 483.47 321.42 483.65 321.42H494.15ZM495.35 326.73C495.35 326.39 495.23 326.11 494.99 325.89C494.77 325.65 494.49 325.53 494.15 325.53H487.1V329.67H494.15C494.49 329.67 494.77 329.56 494.99 329.34C495.23 329.1 495.35 328.81 495.35 328.47V326.73ZM537.126 334.62L529.386 341.55C529.246 341.67 529.066 341.77 528.846 341.85C528.626 341.95 528.426 342 528.246 342H525.456C525.276 342 525.126 341.93 525.006 341.79C524.866 341.67 524.796 341.52 524.796 341.34V322.08C524.796 321.9 524.866 321.74 525.006 321.6C525.126 321.48 525.276 321.42 525.456 321.42H528.246C528.426 321.42 528.586 321.48 528.726 321.6C528.846 321.74 528.906 321.9 528.906 322.08V336.48L537.126 329.1V322.08C537.126 321.9 537.196 321.74 537.336 321.6C537.456 321.48 537.606 321.42 537.786 321.42H540.606C540.786 321.42 540.946 321.48 541.086 321.6C541.206 321.74 541.266 321.9 541.266 322.08V341.34C541.266 341.52 541.206 341.67 541.086 341.79C540.946 341.93 540.786 342 540.606 342H537.786C537.606 342 537.456 341.93 537.336 341.79C537.196 341.67 537.126 341.52 537.126 341.34V334.62ZM556.724 321.42C556.904 321.42 557.084 321.48 557.264 321.6C557.444 321.72 557.564 321.86 557.624 322.02L561.914 332.76C561.994 332.92 562.054 333.12 562.094 333.36C562.134 333.62 562.154 333.84 562.154 334.02V341.34C562.154 341.52 562.094 341.67 561.974 341.79C561.854 341.93 561.704 342 561.524 342H558.704C558.524 342 558.374 341.93 558.254 341.79C558.114 341.67 558.044 341.52 558.044 341.34V334.8C558.044 334.62 558.024 334.41 557.984 334.17C557.944 333.93 557.884 333.73 557.804 333.57L554.594 325.53H553.274L550.064 333.57C549.984 333.73 549.924 333.93 549.884 334.17C549.844 334.41 549.824 334.62 549.824 334.8V341.34C549.824 341.52 549.764 341.67 549.644 341.79C549.504 341.93 549.344 342 549.164 342H546.344C546.164 342 546.014 341.93 545.894 341.79C545.774 341.67 545.714 341.52 545.714 341.34V334.02C545.714 333.84 545.734 333.62 545.774 333.36C545.814 333.12 545.874 332.92 545.954 332.76L550.244 322.02C550.304 321.86 550.424 321.72 550.604 321.6C550.784 321.48 550.964 321.42 551.144 321.42H556.724ZM578.933 334.62L571.193 341.55C571.053 341.67 570.873 341.77 570.653 341.85C570.433 341.95 570.233 342 570.053 342H567.263C567.083 342 566.933 341.93 566.813 341.79C566.673 341.67 566.603 341.52 566.603 341.34V322.08C566.603 321.9 566.673 321.74 566.813 321.6C566.933 321.48 567.083 321.42 567.263 321.42H570.053C570.233 321.42 570.393 321.48 570.533 321.6C570.653 321.74 570.713 321.9 570.713 322.08V336.48L578.933 329.1V322.08C578.933 321.9 579.003 321.74 579.143 321.6C579.263 321.48 579.413 321.42 579.593 321.42H582.413C582.593 321.42 582.753 321.48 582.893 321.6C583.013 321.74 583.073 321.9 583.073 322.08V341.34C583.073 341.52 583.013 341.67 582.893 341.79C582.753 341.93 582.593 342 582.413 342H579.593C579.413 342 579.263 341.93 579.143 341.79C579.003 341.67 578.933 341.52 578.933 341.34V334.62ZM619.269 337.89V325.53H615.189C614.849 325.53 614.569 325.64 614.349 325.86C614.129 326.1 614.019 326.39 614.019 326.73V337.89H619.269ZM624.219 337.89C624.399 337.89 624.549 337.95 624.669 338.07C624.789 338.21 624.849 338.37 624.849 338.55V344.22C624.849 344.4 624.789 344.55 624.669 344.67C624.529 344.81 624.369 344.88 624.189 344.88H621.369C621.189 344.88 621.039 344.81 620.919 344.67C620.799 344.55 620.739 344.4 620.739 344.22V342H612.519V344.22C612.519 344.4 612.459 344.55 612.339 344.67C612.199 344.81 612.039 344.88 611.859 344.88H609.039C608.859 344.88 608.709 344.81 608.589 344.67C608.469 344.55 608.409 344.4 608.409 344.22V338.55C608.409 338.37 608.469 338.21 608.589 338.07C608.709 337.95 608.859 337.89 609.039 337.89H609.879V326.73C609.879 325.99 610.019 325.3 610.299 324.66C610.579 324.02 610.959 323.46 611.439 322.98C611.919 322.5 612.489 322.12 613.149 321.84C613.789 321.56 614.469 321.42 615.189 321.42H622.749C622.929 321.42 623.079 321.48 623.199 321.6C623.319 321.74 623.379 321.9 623.379 322.08V337.89H624.219ZM640.338 321.42C640.518 321.42 640.688 321.48 640.848 321.6C641.028 321.72 641.148 321.86 641.208 322.02L645.528 332.76C645.588 332.92 645.638 333.13 645.678 333.39C645.738 333.63 645.768 333.84 645.768 334.02V341.34C645.768 341.52 645.698 341.68 645.558 341.82C645.438 341.94 645.288 342 645.108 342H642.288C642.108 342 641.948 341.94 641.808 341.82C641.688 341.68 641.628 341.52 641.628 341.34V337.89H633.408V341.34C633.408 341.52 633.338 341.68 633.198 341.82C633.078 341.94 632.928 342 632.748 342H629.958C629.778 342 629.618 341.94 629.478 341.82C629.358 341.68 629.298 341.52 629.298 341.34V334.02C629.298 333.84 629.318 333.63 629.358 333.39C629.418 333.13 629.478 332.92 629.538 332.76L633.828 322.02C633.908 321.86 634.028 321.72 634.188 321.6C634.368 321.48 634.548 321.42 634.728 321.42H640.338ZM633.558 333.78H641.478L638.178 325.53H636.858L633.558 333.78ZM666.686 326.88C666.686 327.06 666.636 327.26 666.536 327.48C666.436 327.68 666.316 327.84 666.176 327.96L661.676 331.71L666.176 335.49C666.316 335.59 666.436 335.75 666.536 335.97C666.636 336.17 666.686 336.36 666.686 336.54V341.37C666.686 341.53 666.626 341.67 666.506 341.79C666.366 341.93 666.206 342 666.026 342H663.206C663.026 342 662.876 341.93 662.756 341.79C662.616 341.67 662.546 341.53 662.546 341.37V338.49C662.546 338.31 662.506 338.11 662.426 337.89C662.326 337.69 662.206 337.53 662.066 337.41L660.506 336.12V341.34C660.506 341.52 660.446 341.67 660.326 341.79C660.186 341.93 660.026 342 659.846 342H657.056C656.876 342 656.716 341.93 656.576 341.79C656.456 341.67 656.396 341.52 656.396 341.34V336.12L654.836 337.41C654.696 337.53 654.576 337.69 654.476 337.89C654.376 338.11 654.326 338.31 654.326 338.49V341.37C654.326 341.53 654.266 341.67 654.146 341.79C654.026 341.93 653.876 342 653.696 342H650.876C650.696 342 650.546 341.93 650.426 341.79C650.286 341.67 650.216 341.53 650.216 341.37V336.54C650.216 336.36 650.266 336.17 650.366 335.97C650.446 335.75 650.566 335.59 650.726 335.49L655.226 331.71L650.726 327.96C650.566 327.84 650.446 327.68 650.366 327.48C650.266 327.26 650.216 327.06 650.216 326.88V322.08C650.216 321.9 650.286 321.74 650.426 321.6C650.546 321.48 650.696 321.42 650.876 321.42H653.696C653.876 321.42 654.026 321.48 654.146 321.6C654.266 321.74 654.326 321.9 654.326 322.08V324.96C654.326 325.14 654.376 325.33 654.476 325.53C654.576 325.75 654.696 325.92 654.836 326.04L656.396 327.33V322.08C656.396 321.9 656.456 321.74 656.576 321.6C656.716 321.48 656.876 321.42 657.056 321.42H659.846C660.026 321.42 660.186 321.48 660.326 321.6C660.446 321.74 660.506 321.9 660.506 322.08V327.33L662.066 326.04C662.206 325.92 662.326 325.75 662.426 325.53C662.506 325.33 662.546 325.14 662.546 324.96V322.08C662.546 321.9 662.616 321.74 662.756 321.6C662.876 321.48 663.026 321.42 663.206 321.42H666.026C666.206 321.42 666.366 321.48 666.506 321.6C666.626 321.74 666.686 321.9 666.686 322.08V326.88ZM687.274 324.9C687.274 325.08 687.214 325.23 687.094 325.35C686.974 325.47 686.824 325.53 686.644 325.53H675.544V329.67H685.594C685.774 329.67 685.924 329.73 686.044 329.85C686.184 329.97 686.254 330.12 686.254 330.3V333.12C686.254 333.3 686.184 333.46 686.044 333.6C685.924 333.72 685.774 333.78 685.594 333.78H675.544V337.89H686.644C686.824 337.89 686.974 337.96 687.094 338.1C687.214 338.22 687.274 338.37 687.274 338.55V341.34C687.274 341.52 687.214 341.68 687.094 341.82C686.974 341.94 686.824 342 686.644 342H672.064C671.884 342 671.734 341.94 671.614 341.82C671.494 341.68 671.434 341.52 671.434 341.34V322.08C671.434 321.9 671.494 321.75 671.614 321.63C671.734 321.49 671.884 321.42 672.064 321.42H686.644C686.824 321.42 686.974 321.49 687.094 321.63C687.214 321.75 687.274 321.9 687.274 322.08V324.9ZM724.071 321.42C724.791 321.42 725.471 321.56 726.111 321.84C726.751 322.12 727.311 322.5 727.791 322.98C728.271 323.46 728.651 324.02 728.931 324.66C729.211 325.3 729.351 325.99 729.351 326.73V328.47C729.351 329.09 729.251 329.67 729.051 330.21C728.851 330.75 728.581 331.25 728.241 331.71C728.581 332.17 728.851 332.67 729.051 333.21C729.251 333.75 729.351 334.33 729.351 334.95V336.69C729.351 337.43 729.211 338.12 728.931 338.76C728.651 339.4 728.271 339.96 727.791 340.44C727.311 340.92 726.751 341.3 726.111 341.58C725.471 341.86 724.791 342 724.071 342H713.541C713.361 342 713.211 341.94 713.091 341.82C712.971 341.68 712.911 341.52 712.911 341.34V322.08C712.911 321.9 712.971 321.75 713.091 321.63C713.211 321.49 713.361 321.42 713.541 321.42H724.071ZM717.021 329.64H724.071C724.391 329.64 724.661 329.53 724.881 329.31C725.121 329.09 725.241 328.81 725.241 328.47V326.73C725.241 326.39 725.121 326.11 724.881 325.89C724.661 325.65 724.391 325.53 724.071 325.53H717.021V329.64ZM725.241 334.95C725.241 334.61 725.121 334.33 724.881 334.11C724.661 333.89 724.391 333.78 724.071 333.78H717.021V337.89H724.071C724.391 337.89 724.661 337.78 724.881 337.56C725.121 337.32 725.241 337.03 725.241 336.69V334.95ZM746.13 322.08C746.13 321.9 746.19 321.75 746.31 321.63C746.45 321.49 746.61 321.42 746.79 321.42H749.61C749.79 321.42 749.94 321.49 750.06 321.63C750.18 321.75 750.24 321.9 750.24 322.08V341.34C750.24 341.52 750.18 341.68 750.06 341.82C749.94 341.94 749.79 342 749.61 342H746.79C746.61 342 746.45 341.94 746.31 341.82C746.19 341.68 746.13 341.52 746.13 341.34V333.78H737.91V341.34C737.91 341.52 737.84 341.68 737.7 341.82C737.58 341.94 737.43 342 737.25 342H734.43C734.25 342 734.1 341.94 733.98 341.82C733.86 341.68 733.8 341.52 733.8 341.34V322.08C733.8 321.9 733.86 321.75 733.98 321.63C734.1 321.49 734.25 321.42 734.43 321.42H737.25C737.43 321.42 737.58 321.49 737.7 321.63C737.84 321.75 737.91 321.9 737.91 322.08V329.67H746.13V322.08ZM770.829 324.9C770.829 325.08 770.769 325.23 770.649 325.35C770.529 325.47 770.379 325.53 770.199 325.53H759.099V329.67H769.149C769.329 329.67 769.479 329.73 769.599 329.85C769.739 329.97 769.809 330.12 769.809 330.3V333.12C769.809 333.3 769.739 333.46 769.599 333.6C769.479 333.72 769.329 333.78 769.149 333.78H759.099V337.89H770.199C770.379 337.89 770.529 337.96 770.649 338.1C770.769 338.22 770.829 338.37 770.829 338.55V341.34C770.829 341.52 770.769 341.68 770.649 341.82C770.529 341.94 770.379 342 770.199 342H755.619C755.439 342 755.289 341.94 755.169 341.82C755.049 341.68 754.989 341.52 754.989 341.34V322.08C754.989 321.9 755.049 321.75 755.169 321.63C755.289 321.49 755.439 321.42 755.619 321.42H770.199C770.379 321.42 770.529 321.49 770.649 321.63C770.769 321.75 770.829 321.9 770.829 322.08V324.9ZM791.387 321.42C791.567 321.42 791.727 321.48 791.867 321.6C791.987 321.74 792.047 321.9 792.047 322.08V341.34C792.047 341.52 791.987 341.67 791.867 341.79C791.727 341.93 791.567 342 791.387 342H776.237C776.057 342 775.907 341.93 775.787 341.79C775.647 341.67 775.577 341.52 775.577 341.34V322.08C775.577 321.9 775.647 321.74 775.787 321.6C775.907 321.48 776.057 321.42 776.237 321.42H779.057C779.237 321.42 779.397 321.48 779.537 321.6C779.657 321.74 779.717 321.9 779.717 322.08V337.89H781.757V328.44C781.757 328.26 781.827 328.1 781.967 327.96C782.087 327.84 782.237 327.78 782.417 327.78H785.207C785.387 327.78 785.547 327.84 785.687 327.96C785.807 328.1 785.867 328.26 785.867 328.44V337.89H787.907V322.08C787.907 321.9 787.967 321.74 788.087 321.6C788.227 321.48 788.387 321.42 788.567 321.42H791.387ZM808.825 322.08C808.825 321.9 808.885 321.75 809.005 321.63C809.145 321.49 809.305 321.42 809.485 321.42H812.305C812.485 321.42 812.635 321.49 812.755 321.63C812.875 321.75 812.935 321.9 812.935 322.08V341.34C812.935 341.52 812.875 341.68 812.755 341.82C812.635 341.94 812.485 342 812.305 342H809.485C809.305 342 809.145 341.94 809.005 341.82C808.885 341.68 808.825 341.52 808.825 341.34V333.78H800.605V341.34C800.605 341.52 800.535 341.68 800.395 341.82C800.275 341.94 800.125 342 799.945 342H797.125C796.945 342 796.795 341.94 796.675 341.82C796.555 341.68 796.495 341.52 796.495 341.34V322.08C796.495 321.9 796.555 321.75 796.675 321.63C796.795 321.49 796.945 321.42 797.125 321.42H799.945C800.125 321.42 800.275 321.49 800.395 321.63C800.535 321.75 800.605 321.9 800.605 322.08V329.67H808.825V322.08ZM829.744 326.7C829.744 326.36 829.634 326.08 829.414 325.86C829.174 325.64 828.884 325.53 828.544 325.53H828.484C828.144 325.53 827.854 325.64 827.614 325.86C827.394 326.08 827.284 326.36 827.284 326.7V336.69C827.284 337.03 827.394 337.31 827.614 337.53C827.854 337.75 828.144 337.86 828.484 337.86H828.544C828.884 337.86 829.174 337.75 829.414 337.53C829.634 337.31 829.744 337.03 829.744 336.69V326.7ZM832.294 322.98C832.774 323.46 833.154 324.02 833.434 324.66C833.714 325.3 833.854 325.98 833.854 326.7V336.69C833.854 337.41 833.714 338.09 833.434 338.73C833.154 339.37 832.774 339.93 832.294 340.41C831.814 340.89 831.254 341.27 830.614 341.55C829.974 341.83 829.294 341.97 828.574 341.97H828.454C827.714 341.97 827.034 341.83 826.414 341.55C825.774 341.27 825.214 340.89 824.734 340.41C824.254 339.93 823.874 339.37 823.594 338.73C823.314 338.09 823.174 337.41 823.174 336.69V333.75H821.494V341.34C821.494 341.52 821.434 341.67 821.314 341.79C821.174 341.93 821.014 342 820.834 342H818.044C817.864 342 817.704 341.93 817.564 341.79C817.444 341.67 817.384 341.52 817.384 341.34V322.08C817.384 321.9 817.444 321.74 817.564 321.6C817.704 321.48 817.864 321.42 818.044 321.42H820.834C821.014 321.42 821.174 321.48 821.314 321.6C821.434 321.74 821.494 321.9 821.494 322.08V329.64H823.174V326.7C823.174 325.98 823.314 325.3 823.594 324.66C823.874 324.02 824.254 323.46 824.734 322.98C825.214 322.5 825.774 322.12 826.414 321.84C827.034 321.56 827.714 321.42 828.454 321.42H828.574C829.294 321.42 829.974 321.56 830.614 321.84C831.254 322.12 831.814 322.5 832.294 322.98ZM850.662 326.7C850.662 326.36 850.552 326.08 850.332 325.86C850.092 325.64 849.802 325.53 849.462 325.53H849.402C849.062 325.53 848.772 325.64 848.532 325.86C848.312 326.08 848.202 326.36 848.202 326.7V336.69C848.202 337.03 848.312 337.31 848.532 337.53C848.772 337.75 849.062 337.86 849.402 337.86H849.462C849.802 337.86 850.092 337.75 850.332 337.53C850.552 337.31 850.662 337.03 850.662 336.69V326.7ZM853.212 322.98C853.692 323.46 854.072 324.02 854.352 324.66C854.632 325.3 854.772 325.98 854.772 326.7V336.69C854.772 337.41 854.632 338.09 854.352 338.73C854.072 339.37 853.692 339.93 853.212 340.41C852.732 340.89 852.172 341.27 851.532 341.55C850.892 341.83 850.212 341.97 849.492 341.97H849.372C848.632 341.97 847.952 341.83 847.332 341.55C846.692 341.27 846.132 340.89 845.652 340.41C845.172 339.93 844.792 339.37 844.512 338.73C844.232 338.09 844.092 337.41 844.092 336.69V333.75H842.412V341.34C842.412 341.52 842.352 341.67 842.232 341.79C842.092 341.93 841.932 342 841.752 342H838.962C838.782 342 838.622 341.93 838.482 341.79C838.362 341.67 838.302 341.52 838.302 341.34V322.08C838.302 321.9 838.362 321.74 838.482 321.6C838.622 321.48 838.782 321.42 838.962 321.42H841.752C841.932 321.42 842.092 321.48 842.232 321.6C842.352 321.74 842.412 321.9 842.412 322.08V329.64H844.092V326.7C844.092 325.98 844.232 325.3 844.512 324.66C844.792 324.02 845.172 323.46 845.652 322.98C846.132 322.5 846.692 322.12 847.332 321.84C847.952 321.56 848.632 321.42 849.372 321.42H849.492C850.212 321.42 850.892 321.56 851.532 321.84C852.172 322.12 852.732 322.5 853.212 322.98ZM579.506 361.6C579.326 361.6 579.166 361.54 579.026 361.42C578.906 361.28 578.846 361.12 578.846 360.94V360.73C578.846 360.39 578.726 360.11 578.486 359.89C578.266 359.65 577.986 359.53 577.646 359.53H571.796C571.456 359.53 571.176 359.65 570.956 359.89C570.736 360.11 570.626 360.39 570.626 360.73V370.69C570.626 371.03 570.736 371.32 570.956 371.56C571.176 371.78 571.456 371.89 571.796 371.89H577.646C577.986 371.89 578.266 371.78 578.486 371.56C578.726 371.32 578.846 371.03 578.846 370.69V370.48C578.846 370.3 578.906 370.15 579.026 370.03C579.166 369.89 579.326 369.82 579.506 369.82H582.296C582.476 369.82 582.626 369.89 582.746 370.03C582.886 370.15 582.956 370.3 582.956 370.48V370.69C582.956 371.43 582.816 372.12 582.536 372.76C582.256 373.4 581.876 373.96 581.396 374.44C580.916 374.92 580.356 375.3 579.716 375.58C579.076 375.86 578.386 376 577.646 376H571.796C571.076 376 570.386 375.86 569.726 375.58C569.086 375.3 568.526 374.92 568.046 374.44C567.566 373.96 567.186 373.4 566.906 372.76C566.626 372.12 566.486 371.43 566.486 370.69V360.73C566.486 359.99 566.626 359.3 566.906 358.66C567.186 358.02 567.566 357.46 568.046 356.98C568.526 356.5 569.086 356.12 569.726 355.84C570.386 355.56 571.076 355.42 571.796 355.42H577.646C578.386 355.42 579.076 355.56 579.716 355.84C580.356 356.12 580.916 356.5 581.396 356.98C581.876 357.46 582.256 358.02 582.536 358.66C582.816 359.3 582.956 359.99 582.956 360.73V360.94C582.956 361.12 582.886 361.28 582.746 361.42C582.626 361.54 582.476 361.6 582.296 361.6H579.506ZM603.214 355.42C603.394 355.42 603.544 355.49 603.664 355.63C603.804 355.75 603.874 355.9 603.874 356.08V358.9C603.874 359.08 603.804 359.23 603.664 359.35C603.544 359.47 603.394 359.53 603.214 359.53H597.694V375.34C597.694 375.52 597.624 375.68 597.484 375.82C597.364 375.94 597.214 376 597.034 376H594.214C594.034 376 593.884 375.94 593.764 375.82C593.644 375.68 593.584 375.52 593.584 375.34V359.53H588.064C587.884 359.53 587.724 359.47 587.584 359.35C587.464 359.23 587.404 359.08 587.404 358.9V356.08C587.404 355.9 587.464 355.75 587.584 355.63C587.724 355.49 587.884 355.42 588.064 355.42H603.214ZM619.482 355.45C620.222 355.45 620.912 355.59 621.552 355.87C622.192 356.15 622.752 356.53 623.232 357.01C623.712 357.49 624.092 358.05 624.372 358.69C624.652 359.33 624.792 360.01 624.792 360.73V370.72C624.792 371.44 624.652 372.12 624.372 372.76C624.092 373.4 623.712 373.96 623.232 374.44C622.752 374.92 622.192 375.3 621.552 375.58C620.912 375.86 620.222 376 619.482 376H613.632C612.892 376 612.202 375.86 611.562 375.58C610.922 375.3 610.362 374.92 609.882 374.44C609.402 373.96 609.022 373.4 608.742 372.76C608.462 372.12 608.322 371.44 608.322 370.72V360.73C608.322 360.01 608.462 359.33 608.742 358.69C609.022 358.05 609.402 357.49 609.882 357.01C610.362 356.53 610.922 356.15 611.562 355.87C612.202 355.59 612.892 355.45 613.632 355.45H619.482ZM620.682 360.73C620.682 360.39 620.562 360.11 620.322 359.89C620.102 359.67 619.822 359.56 619.482 359.56H613.632C613.292 359.56 613.002 359.67 612.762 359.89C612.542 360.11 612.432 360.39 612.432 360.73V370.72C612.432 371.06 612.542 371.34 612.762 371.56C613.002 371.78 613.292 371.89 613.632 371.89H619.482C619.822 371.89 620.102 371.78 620.322 371.56C620.562 371.34 620.682 371.06 620.682 370.72V360.73ZM640.4 355.42C641.14 355.42 641.83 355.56 642.47 355.84C643.11 356.12 643.67 356.5 644.15 356.98C644.63 357.46 645.01 358.02 645.29 358.66C645.57 359.3 645.71 359.99 645.71 360.73V362.47C645.71 363.19 645.57 363.88 645.29 364.54C645.01 365.18 644.63 365.74 644.15 366.22C643.67 366.7 643.11 367.08 642.47 367.36C641.83 367.64 641.14 367.78 640.4 367.78H633.35V375.34C633.35 375.52 633.29 375.68 633.17 375.82C633.05 375.94 632.9 376 632.72 376H629.9C629.72 376 629.56 375.94 629.42 375.82C629.3 375.68 629.24 375.52 629.24 375.34V356.08C629.24 355.9 629.3 355.75 629.42 355.63C629.56 355.49 629.72 355.42 629.9 355.42H640.4ZM641.6 360.73C641.6 360.39 641.48 360.11 641.24 359.89C641.02 359.65 640.74 359.53 640.4 359.53H633.35V363.67H640.4C640.74 363.67 641.02 363.56 641.24 363.34C641.48 363.1 641.6 362.81 641.6 362.47V360.73ZM661.318 355.45C662.058 355.45 662.748 355.59 663.388 355.87C664.028 356.15 664.588 356.53 665.068 357.01C665.548 357.49 665.928 358.05 666.208 358.69C666.488 359.33 666.628 360.01 666.628 360.73V370.72C666.628 371.44 666.488 372.12 666.208 372.76C665.928 373.4 665.548 373.96 665.068 374.44C664.588 374.92 664.028 375.3 663.388 375.58C662.748 375.86 662.058 376 661.318 376H655.468C654.728 376 654.038 375.86 653.398 375.58C652.758 375.3 652.198 374.92 651.718 374.44C651.238 373.96 650.858 373.4 650.578 372.76C650.298 372.12 650.158 371.44 650.158 370.72V360.73C650.158 360.01 650.298 359.33 650.578 358.69C650.858 358.05 651.238 357.49 651.718 357.01C652.198 356.53 652.758 356.15 653.398 355.87C654.038 355.59 654.728 355.45 655.468 355.45H661.318ZM662.518 360.73C662.518 360.39 662.398 360.11 662.158 359.89C661.938 359.67 661.658 359.56 661.318 359.56H655.468C655.128 359.56 654.838 359.67 654.598 359.89C654.378 360.11 654.268 360.39 654.268 360.73V370.72C654.268 371.06 654.378 371.34 654.598 371.56C654.838 371.78 655.128 371.89 655.468 371.89H661.318C661.658 371.89 661.938 371.78 662.158 371.56C662.398 371.34 662.518 371.06 662.518 370.72V360.73ZM683.405 356.08C683.405 355.9 683.465 355.75 683.585 355.63C683.725 355.49 683.885 355.42 684.065 355.42H686.885C687.065 355.42 687.215 355.49 687.335 355.63C687.455 355.75 687.515 355.9 687.515 356.08V375.34C687.515 375.52 687.455 375.68 687.335 375.82C687.215 375.94 687.065 376 686.885 376H684.065C683.885 376 683.725 375.94 683.585 375.82C683.465 375.68 683.405 375.52 683.405 375.34V367.78H675.185V375.34C675.185 375.52 675.115 375.68 674.975 375.82C674.855 375.94 674.705 376 674.525 376H671.705C671.525 376 671.375 375.94 671.255 375.82C671.135 375.68 671.075 375.52 671.075 375.34V356.08C671.075 355.9 671.135 355.75 671.255 355.63C671.375 355.49 671.525 355.42 671.705 355.42H674.525C674.705 355.42 674.855 355.49 674.975 355.63C675.115 355.75 675.185 355.9 675.185 356.08V363.67H683.405V356.08ZM707.804 355.42C707.984 355.42 708.134 355.48 708.254 355.6C708.374 355.74 708.434 355.9 708.434 356.08V370.81C708.414 371.51 708.274 372.16 708.014 372.76C707.734 373.4 707.354 373.96 706.874 374.44C706.394 374.92 705.824 375.3 705.164 375.58C704.524 375.86 703.844 376 703.124 376H697.274C696.534 376 695.844 375.86 695.204 375.58C694.564 375.3 694.004 374.92 693.524 374.44C693.044 373.96 692.664 373.4 692.384 372.76C692.104 372.12 691.964 371.43 691.964 370.69V370.48C691.964 370.3 692.034 370.15 692.174 370.03C692.294 369.89 692.444 369.82 692.624 369.82H695.414C695.594 369.82 695.754 369.89 695.894 370.03C696.014 370.15 696.074 370.3 696.074 370.48V370.69C696.074 371.03 696.194 371.31 696.434 371.53C696.654 371.77 696.934 371.89 697.274 371.89H703.124C703.464 371.89 703.744 371.77 703.964 371.53C704.184 371.31 704.294 371.03 704.294 370.69V367.78H697.274C696.534 367.78 695.844 367.64 695.204 367.36C694.564 367.08 694.004 366.7 693.524 366.22C693.044 365.74 692.664 365.18 692.384 364.54C692.104 363.88 691.964 363.19 691.964 362.47V356.02C691.964 355.86 692.034 355.72 692.174 355.6C692.294 355.48 692.444 355.42 692.624 355.42H695.444C695.624 355.42 695.774 355.48 695.894 355.6C696.014 355.72 696.074 355.86 696.074 356.02V362.47C696.074 362.81 696.194 363.09 696.434 363.31C696.654 363.55 696.934 363.67 697.274 363.67H704.294V362.92H704.324V356.08C704.324 355.9 704.384 355.74 704.504 355.6C704.644 355.48 704.804 355.42 704.984 355.42H707.804ZM750.241 362.47C750.241 363.09 750.141 363.68 749.941 364.24C749.741 364.78 749.471 365.28 749.131 365.74C749.471 366.18 749.741 366.68 749.941 367.24C750.141 367.78 750.241 368.36 750.241 368.98V370.72C750.241 371.44 750.101 372.12 749.821 372.76C749.541 373.4 749.161 373.96 748.681 374.44C748.201 374.92 747.631 375.3 746.971 375.58C746.331 375.86 745.651 376 744.931 376H739.081C738.341 376 737.651 375.86 737.011 375.58C736.371 375.3 735.811 374.92 735.331 374.44C734.851 373.96 734.471 373.4 734.191 372.76C733.911 372.12 733.771 371.44 733.771 370.72V370.48C733.771 370.3 733.831 370.15 733.951 370.03C734.091 369.91 734.251 369.85 734.431 369.85H737.221C737.401 369.85 737.551 369.91 737.671 370.03C737.811 370.15 737.881 370.3 737.881 370.48V370.72C737.881 371.06 737.991 371.34 738.211 371.56C738.451 371.78 738.741 371.89 739.081 371.89H744.931C745.271 371.89 745.551 371.78 745.771 371.56C745.991 371.34 746.101 371.06 746.101 370.72V368.98C746.101 368.64 745.991 368.36 745.771 368.14C745.551 367.9 745.271 367.78 744.931 367.78H738.541C738.361 367.78 738.201 367.72 738.061 367.6C737.941 367.46 737.881 367.3 737.881 367.12V364.33C737.881 364.15 737.941 364 738.061 363.88C738.201 363.74 738.361 363.67 738.541 363.67H744.931C745.271 363.67 745.551 363.56 745.771 363.34C745.991 363.1 746.101 362.81 746.101 362.47V360.73C746.101 360.39 745.991 360.11 745.771 359.89C745.551 359.67 745.271 359.56 744.931 359.56H739.081C738.741 359.56 738.451 359.67 738.211 359.89C737.991 360.11 737.881 360.39 737.881 360.73V360.97C737.881 361.15 737.811 361.3 737.671 361.42C737.551 361.54 737.401 361.6 737.221 361.6H734.431C734.251 361.6 734.091 361.54 733.951 361.42C733.831 361.3 733.771 361.15 733.771 360.97V360.73C733.771 360.01 733.911 359.33 734.191 358.69C734.471 358.05 734.851 357.49 735.331 357.01C735.811 356.53 736.371 356.15 737.011 355.87C737.651 355.59 738.341 355.45 739.081 355.45H744.931C745.651 355.45 746.331 355.59 746.971 355.87C747.631 356.15 748.201 356.53 748.681 357.01C749.161 357.49 749.541 358.05 749.821 358.69C750.101 359.33 750.241 360.01 750.241 360.73V362.47ZM765.549 371.89V359.53H761.469C761.129 359.53 760.849 359.64 760.629 359.86C760.409 360.1 760.299 360.39 760.299 360.73V371.89H765.549ZM770.499 371.89C770.679 371.89 770.829 371.95 770.949 372.07C771.069 372.21 771.129 372.37 771.129 372.55V378.22C771.129 378.4 771.069 378.55 770.949 378.67C770.809 378.81 770.649 378.88 770.469 378.88H767.649C767.469 378.88 767.319 378.81 767.199 378.67C767.079 378.55 767.019 378.4 767.019 378.22V376H758.799V378.22C758.799 378.4 758.739 378.55 758.619 378.67C758.479 378.81 758.319 378.88 758.139 378.88H755.319C755.139 378.88 754.989 378.81 754.869 378.67C754.749 378.55 754.689 378.4 754.689 378.22V372.55C754.689 372.37 754.749 372.21 754.869 372.07C754.989 371.95 755.139 371.89 755.319 371.89H756.159V360.73C756.159 359.99 756.299 359.3 756.579 358.66C756.859 358.02 757.239 357.46 757.719 356.98C758.199 356.5 758.769 356.12 759.429 355.84C760.069 355.56 760.749 355.42 761.469 355.42H769.029C769.209 355.42 769.359 355.48 769.479 355.6C769.599 355.74 769.659 355.9 769.659 356.08V371.89H770.499ZM786.617 355.42C786.797 355.42 786.967 355.48 787.127 355.6C787.307 355.72 787.427 355.86 787.487 356.02L791.807 366.76C791.867 366.92 791.917 367.13 791.957 367.39C792.017 367.63 792.047 367.84 792.047 368.02V375.34C792.047 375.52 791.977 375.68 791.837 375.82C791.717 375.94 791.567 376 791.387 376H788.567C788.387 376 788.227 375.94 788.087 375.82C787.967 375.68 787.907 375.52 787.907 375.34V371.89H779.687V375.34C779.687 375.52 779.617 375.68 779.477 375.82C779.357 375.94 779.207 376 779.027 376H776.237C776.057 376 775.897 375.94 775.757 375.82C775.637 375.68 775.577 375.52 775.577 375.34V368.02C775.577 367.84 775.597 367.63 775.637 367.39C775.697 367.13 775.757 366.92 775.817 366.76L780.107 356.02C780.187 355.86 780.307 355.72 780.467 355.6C780.647 355.48 780.827 355.42 781.007 355.42H786.617ZM779.837 367.78H787.757L784.457 359.53H783.137L779.837 367.78ZM808.825 356.08C808.825 355.9 808.885 355.75 809.005 355.63C809.145 355.49 809.305 355.42 809.485 355.42H812.305C812.485 355.42 812.635 355.49 812.755 355.63C812.875 355.75 812.935 355.9 812.935 356.08V375.34C812.935 375.52 812.875 375.68 812.755 375.82C812.635 375.94 812.485 376 812.305 376H809.485C809.305 376 809.145 375.94 809.005 375.82C808.885 375.68 808.825 375.52 808.825 375.34V367.78H800.605V375.34C800.605 375.52 800.535 375.68 800.395 375.82C800.275 375.94 800.125 376 799.945 376H797.125C796.945 376 796.795 375.94 796.675 375.82C796.555 375.68 796.495 375.52 796.495 375.34V356.08C796.495 355.9 796.555 355.75 796.675 355.63C796.795 355.49 796.945 355.42 797.125 355.42H799.945C800.125 355.42 800.275 355.49 800.395 355.63C800.535 355.75 800.605 355.9 800.605 356.08V363.67H808.825V356.08ZM829.714 368.62L821.974 375.55C821.834 375.67 821.654 375.77 821.434 375.85C821.214 375.95 821.014 376 820.834 376H818.044C817.864 376 817.714 375.93 817.594 375.79C817.454 375.67 817.384 375.52 817.384 375.34V356.08C817.384 355.9 817.454 355.74 817.594 355.6C817.714 355.48 817.864 355.42 818.044 355.42H820.834C821.014 355.42 821.174 355.48 821.314 355.6C821.434 355.74 821.494 355.9 821.494 356.08V370.48L829.714 363.1V356.08C829.714 355.9 829.784 355.74 829.924 355.6C830.044 355.48 830.194 355.42 830.374 355.42H833.194C833.374 355.42 833.534 355.48 833.674 355.6C833.794 355.74 833.854 355.9 833.854 356.08V375.34C833.854 375.52 833.794 375.67 833.674 375.79C833.534 375.93 833.374 376 833.194 376H830.374C830.194 376 830.044 375.93 829.924 375.79C829.784 375.67 829.714 375.52 829.714 375.34V368.62ZM842.412 362.47C842.412 362.81 842.532 363.09 842.772 363.31C842.992 363.55 843.272 363.67 843.612 363.67H850.632V359.53H843.612C843.272 359.53 842.992 359.64 842.772 359.86C842.532 360.1 842.412 360.39 842.412 360.73V362.47ZM842.142 367.57C841.582 367.41 841.072 367.17 840.612 366.85C840.132 366.53 839.722 366.15 839.382 365.71C839.042 365.25 838.782 364.74 838.602 364.18C838.402 363.64 838.302 363.07 838.302 362.47V360.73C838.302 359.99 838.442 359.3 838.722 358.66C839.002 358.02 839.382 357.46 839.862 356.98C840.342 356.5 840.902 356.12 841.542 355.84C842.182 355.56 842.872 355.42 843.612 355.42H854.112C854.292 355.42 854.452 355.48 854.592 355.6C854.712 355.74 854.772 355.9 854.772 356.08V375.34C854.772 375.52 854.712 375.67 854.592 375.79C854.452 375.93 854.292 376 854.112 376H851.292C851.112 376 850.952 375.93 850.812 375.79C850.692 375.67 850.632 375.52 850.632 375.34V367.78H846.552L843.102 375.4C843.022 375.56 842.892 375.7 842.712 375.82C842.552 375.94 842.382 376 842.202 376H838.992C838.812 376 838.682 375.94 838.602 375.82C838.522 375.7 838.522 375.56 838.602 375.4L842.142 367.57Z" fill="white"/>
<g style="mix-blend-mode:lighten">
<rect y="45" width="858" height="263" fill="#91EF19"/>
</g>
</g>
<defs>
<clipPath id="clip0_2420_292">
<rect width="858" height="397.24" fill="white"/>
</clipPath>
</defs>
</svg>
