<svg width="773" height="343" viewBox="0 0 773 343" fill="none" xmlns="http://www.w3.org/2000/svg">
<g clip-path="url(#clip0_878_261)">
<g style="mix-blend-mode:luminosity" opacity="0.7">
<rect width="773" height="343" fill="#D9D9D9"/>
</g>
<path d="M-29.6783 73.1735H21.1434V248H-29.6783V73.1735ZM54.1973 80.2886V73.1735H105.019L203.105 240.631V248H152.537L54.1973 80.2886ZM154.824 136.955V73.1735H203.105V219.54L154.824 136.955ZM54.1973 101.38L102.478 183.965V248H54.1973V101.38Z" fill="#91EF19"/>
<path d="M239.617 247.561V73.5574H384.822C390.146 73.5574 394.986 74.9288 399.342 77.6715C403.86 80.2529 407.409 83.7217 409.99 88.0779C412.572 92.434 413.863 97.2742 413.863 102.598V153.662C413.863 158.986 412.572 163.826 409.99 168.182C407.409 172.539 403.86 176.088 399.342 178.831C394.986 181.412 390.146 182.703 384.822 182.703H259.22V247.561H239.617ZM268.658 162.858H384.822C387.403 162.858 389.581 161.971 391.356 160.196C393.292 158.421 394.26 156.243 394.26 153.662V102.598C394.26 100.017 393.292 97.8388 391.356 96.0641C389.581 94.1281 387.403 93.16 384.822 93.16H268.658C266.076 93.16 263.818 94.1281 261.882 96.0641C260.107 97.8388 259.22 100.017 259.22 102.598V153.662C259.22 156.243 260.107 158.421 261.882 160.196C263.818 161.971 266.076 162.858 268.658 162.858ZM459.606 247.561C454.282 247.561 449.361 246.27 444.843 243.689C440.487 241.107 437.018 237.639 434.437 233.283C431.856 228.765 430.565 223.844 430.565 218.52V73.3154H450.167V218.52C450.167 221.101 451.055 223.36 452.83 225.296C454.766 227.071 457.024 227.958 459.606 227.958H575.77C578.351 227.958 580.529 227.071 582.304 225.296C584.24 223.36 585.208 221.101 585.208 218.52V73.3154H604.811V218.52C604.811 223.844 603.52 228.765 600.938 233.283C598.357 237.639 594.808 241.107 590.29 243.689C585.934 246.27 581.094 247.561 575.77 247.561H459.606ZM700.192 247.561V92.918H622.749V73.3154H796.995V92.918H719.794V247.561H700.192Z" fill="#91EF19"/>
<g style="mix-blend-mode:color-dodge">
<rect x="396.681" y="186.882" width="448.319" height="76.2325" rx="24.2008" fill="#B3B4B8"/>
</g>
<path d="M490.82 248.488C489.489 248.488 488.259 248.165 487.13 247.52C486.041 246.874 485.173 246.007 484.528 244.918C483.883 243.789 483.56 242.559 483.56 241.228V212.187C483.56 210.856 483.883 209.646 484.528 208.556C485.173 207.427 486.041 206.54 487.13 205.894C488.259 205.249 489.489 204.926 490.82 204.926H527V209.827H490.82C490.175 209.827 489.61 210.069 489.126 210.553C488.682 210.997 488.461 211.541 488.461 212.187V241.228C488.461 241.873 488.682 242.438 489.126 242.922C489.61 243.365 490.175 243.587 490.82 243.587H527V248.488H490.82ZM533.369 248.488V204.926H538.27V224.227H573.058V204.926H578.02V248.488H573.058V229.188H538.27V248.488H533.369ZM584.892 248.488V212.187C584.892 210.856 585.214 209.646 585.86 208.556C586.505 207.427 587.372 206.54 588.461 205.894C589.591 205.249 590.821 204.926 592.152 204.926H621.193C622.524 204.926 623.734 205.249 624.823 205.894C625.952 206.54 626.84 207.427 627.485 208.556C628.131 209.646 628.453 210.856 628.453 212.187V248.488H623.553V232.576H589.792V248.488H584.892ZM589.792 227.675H623.553V212.187C623.553 211.541 623.311 210.997 622.827 210.553C622.383 210.069 621.838 209.827 621.193 209.827H592.152C591.507 209.827 590.942 210.069 590.458 210.553C590.014 210.997 589.792 211.541 589.792 212.187V227.675ZM635.347 248.488V204.926H642.062L674.007 242.922V204.926H678.908V248.488H672.192L640.247 210.493V248.488H635.347ZM692.946 248.488C691.615 248.488 690.385 248.165 689.256 247.52C688.167 246.874 687.3 246.007 686.654 244.918C686.009 243.789 685.686 242.559 685.686 241.228V212.187C685.686 210.856 686.009 209.646 686.654 208.556C687.3 207.427 688.167 206.54 689.256 205.894C690.385 205.249 691.615 204.926 692.946 204.926H721.987C723.318 204.926 724.528 205.249 725.617 205.894C726.747 206.54 727.634 207.427 728.28 208.556C728.925 209.646 729.248 210.856 729.248 212.187V213.941H724.347V212.187C724.347 211.541 724.105 210.997 723.621 210.553C723.177 210.069 722.633 209.827 721.987 209.827H692.946C692.301 209.827 691.736 210.069 691.252 210.553C690.809 210.997 690.587 211.541 690.587 212.187V241.228C690.587 241.873 690.809 242.438 691.252 242.922C691.736 243.365 692.301 243.587 692.946 243.587H721.987C722.633 243.587 723.177 243.365 723.621 242.922C724.105 242.438 724.347 241.873 724.347 241.228V230.458H713.578V225.497H729.248V241.228C729.248 242.559 728.925 243.789 728.28 244.918C727.634 246.007 726.747 246.874 725.617 247.52C724.528 248.165 723.318 248.488 721.987 248.488H692.946ZM736.029 248.488V204.926H775.778V209.827H740.929V224.227H768.942V229.188H740.929V243.587H775.778V248.488H736.029Z" fill="black"/>
<path d="M490.82 248.488C489.489 248.488 488.259 248.165 487.13 247.52C486.041 246.874 485.173 246.007 484.528 244.918C483.883 243.789 483.56 242.559 483.56 241.228V212.187C483.56 210.856 483.883 209.646 484.528 208.556C485.173 207.427 486.041 206.54 487.13 205.894C488.259 205.249 489.489 204.926 490.82 204.926H527V209.827H490.82C490.175 209.827 489.61 210.069 489.126 210.553C488.682 210.997 488.461 211.541 488.461 212.187V241.228C488.461 241.873 488.682 242.438 489.126 242.922C489.61 243.365 490.175 243.587 490.82 243.587H527V248.488H490.82ZM533.369 248.488V204.926H538.27V224.227H573.058V204.926H578.02V248.488H573.058V229.188H538.27V248.488H533.369ZM584.892 248.488V212.187C584.892 210.856 585.214 209.646 585.86 208.556C586.505 207.427 587.372 206.54 588.461 205.894C589.591 205.249 590.821 204.926 592.152 204.926H621.193C622.524 204.926 623.734 205.249 624.823 205.894C625.952 206.54 626.84 207.427 627.485 208.556C628.131 209.646 628.453 210.856 628.453 212.187V248.488H623.553V232.576H589.792V248.488H584.892ZM589.792 227.675H623.553V212.187C623.553 211.541 623.311 210.997 622.827 210.553C622.383 210.069 621.838 209.827 621.193 209.827H592.152C591.507 209.827 590.942 210.069 590.458 210.553C590.014 210.997 589.792 211.541 589.792 212.187V227.675ZM635.347 248.488V204.926H642.062L674.007 242.922V204.926H678.908V248.488H672.192L640.247 210.493V248.488H635.347ZM692.946 248.488C691.615 248.488 690.385 248.165 689.256 247.52C688.167 246.874 687.3 246.007 686.654 244.918C686.009 243.789 685.686 242.559 685.686 241.228V212.187C685.686 210.856 686.009 209.646 686.654 208.556C687.3 207.427 688.167 206.54 689.256 205.894C690.385 205.249 691.615 204.926 692.946 204.926H721.987C723.318 204.926 724.528 205.249 725.617 205.894C726.747 206.54 727.634 207.427 728.28 208.556C728.925 209.646 729.248 210.856 729.248 212.187V213.941H724.347V212.187C724.347 211.541 724.105 210.997 723.621 210.553C723.177 210.069 722.633 209.827 721.987 209.827H692.946C692.301 209.827 691.736 210.069 691.252 210.553C690.809 210.997 690.587 211.541 690.587 212.187V241.228C690.587 241.873 690.809 242.438 691.252 242.922C691.736 243.365 692.301 243.587 692.946 243.587H721.987C722.633 243.587 723.177 243.365 723.621 242.922C724.105 242.438 724.347 241.873 724.347 241.228V230.458H713.578V225.497H729.248V241.228C729.248 242.559 728.925 243.789 728.28 244.918C727.634 246.007 726.747 246.874 725.617 247.52C724.528 248.165 723.318 248.488 721.987 248.488H692.946ZM736.029 248.488V204.926H775.778V209.827H740.929V224.227H768.942V229.188H740.929V243.587H775.778V248.488H736.029Z" fill="black"/>
<path d="M490.82 248.488C489.489 248.488 488.259 248.165 487.13 247.52C486.041 246.874 485.173 246.007 484.528 244.918C483.883 243.789 483.56 242.559 483.56 241.228V212.187C483.56 210.856 483.883 209.646 484.528 208.556C485.173 207.427 486.041 206.54 487.13 205.894C488.259 205.249 489.489 204.926 490.82 204.926H527V209.827H490.82C490.175 209.827 489.61 210.069 489.126 210.553C488.682 210.997 488.461 211.541 488.461 212.187V241.228C488.461 241.873 488.682 242.438 489.126 242.922C489.61 243.365 490.175 243.587 490.82 243.587H527V248.488H490.82ZM533.369 248.488V204.926H538.27V224.227H573.058V204.926H578.02V248.488H573.058V229.188H538.27V248.488H533.369ZM584.892 248.488V212.187C584.892 210.856 585.214 209.646 585.86 208.556C586.505 207.427 587.372 206.54 588.461 205.894C589.591 205.249 590.821 204.926 592.152 204.926H621.193C622.524 204.926 623.734 205.249 624.823 205.894C625.952 206.54 626.84 207.427 627.485 208.556C628.131 209.646 628.453 210.856 628.453 212.187V248.488H623.553V232.576H589.792V248.488H584.892ZM589.792 227.675H623.553V212.187C623.553 211.541 623.311 210.997 622.827 210.553C622.383 210.069 621.838 209.827 621.193 209.827H592.152C591.507 209.827 590.942 210.069 590.458 210.553C590.014 210.997 589.792 211.541 589.792 212.187V227.675ZM635.347 248.488V204.926H642.062L674.007 242.922V204.926H678.908V248.488H672.192L640.247 210.493V248.488H635.347ZM692.946 248.488C691.615 248.488 690.385 248.165 689.256 247.52C688.167 246.874 687.3 246.007 686.654 244.918C686.009 243.789 685.686 242.559 685.686 241.228V212.187C685.686 210.856 686.009 209.646 686.654 208.556C687.3 207.427 688.167 206.54 689.256 205.894C690.385 205.249 691.615 204.926 692.946 204.926H721.987C723.318 204.926 724.528 205.249 725.617 205.894C726.747 206.54 727.634 207.427 728.28 208.556C728.925 209.646 729.248 210.856 729.248 212.187V213.941H724.347V212.187C724.347 211.541 724.105 210.997 723.621 210.553C723.177 210.069 722.633 209.827 721.987 209.827H692.946C692.301 209.827 691.736 210.069 691.252 210.553C690.809 210.997 690.587 211.541 690.587 212.187V241.228C690.587 241.873 690.809 242.438 691.252 242.922C691.736 243.365 692.301 243.587 692.946 243.587H721.987C722.633 243.587 723.177 243.365 723.621 242.922C724.105 242.438 724.347 241.873 724.347 241.228V230.458H713.578V225.497H729.248V241.228C729.248 242.559 728.925 243.789 728.28 244.918C727.634 246.007 726.747 246.874 725.617 247.52C724.528 248.165 723.318 248.488 721.987 248.488H692.946ZM736.029 248.488V204.926H775.778V209.827H740.929V224.227H768.942V229.188H740.929V243.587H775.778V248.488H736.029Z" fill="black"/>
<g style="mix-blend-mode:lighten">
<rect width="773" height="343" fill="#91EF19"/>
</g>
<path d="M372.401 292.78L354.341 308.95C354.015 309.23 353.595 309.463 353.081 309.65C352.568 309.883 352.101 310 351.681 310H345.171C344.751 310 344.401 309.837 344.121 309.51C343.795 309.23 343.631 308.88 343.631 308.46V263.52C343.631 263.1 343.795 262.727 344.121 262.4C344.401 262.12 344.751 261.98 345.171 261.98H351.681C352.101 261.98 352.475 262.12 352.801 262.4C353.081 262.727 353.221 263.1 353.221 263.52V297.12L372.401 279.9V263.52C372.401 263.1 372.565 262.727 372.891 262.4C373.171 262.12 373.521 261.98 373.941 261.98H380.521C380.941 261.98 381.315 262.12 381.641 262.4C381.921 262.727 382.061 263.1 382.061 263.52V308.46C382.061 308.88 381.921 309.23 381.641 309.51C381.315 309.837 380.941 310 380.521 310H373.941C373.521 310 373.171 309.837 372.891 309.51C372.565 309.23 372.401 308.88 372.401 308.46V292.78ZM421.21 263.52C421.21 263.1 421.35 262.75 421.63 262.47C421.956 262.143 422.33 261.98 422.75 261.98H429.33C429.75 261.98 430.1 262.143 430.38 262.47C430.66 262.75 430.8 263.1 430.8 263.52V308.46C430.8 308.88 430.66 309.253 430.38 309.58C430.1 309.86 429.75 310 429.33 310H422.75C422.33 310 421.956 309.86 421.63 309.58C421.35 309.253 421.21 308.88 421.21 308.46V290.82H402.03V308.46C402.03 308.88 401.866 309.253 401.54 309.58C401.26 309.86 400.91 310 400.49 310H393.91C393.49 310 393.14 309.86 392.86 309.58C392.58 309.253 392.44 308.88 392.44 308.46V263.52C392.44 263.1 392.58 262.75 392.86 262.47C393.14 262.143 393.49 261.98 393.91 261.98H400.49C400.91 261.98 401.26 262.143 401.54 262.47C401.866 262.75 402.03 263.1 402.03 263.52V281.23H421.21V263.52Z" fill="#111111"/>
</g>
<defs>
<clipPath id="clip0_878_261">
<rect width="773" height="343" fill="white"/>
</clipPath>
</defs>
</svg>
