<svg width="97" height="110" viewBox="0 0 97 110" fill="none" xmlns="http://www.w3.org/2000/svg">
<path d="M2.30328 52.908V49.164C2.30328 48.904 2.40728 48.67 2.61528 48.462C2.82328 48.202 3.08328 48.072 3.39528 48.072H18.3713V6.42H3.39528C2.66728 6.42 2.30328 6.056 2.30328 5.328V1.584C2.30328 0.855996 2.66728 0.491996 3.39528 0.491996H39.1973C39.9253 0.491996 40.2893 0.855996 40.2893 1.584V5.328C40.2893 6.056 39.9253 6.42 39.1973 6.42H24.2993V48.072H39.1973C39.5093 48.072 39.7693 48.202 39.9773 48.462C40.1853 48.67 40.2893 48.904 40.2893 49.164V52.908C40.2893 53.636 39.9253 54 39.1973 54H3.39528C2.66728 54 2.30328 53.636 2.30328 52.908ZM89.84 52.908V30.522L61.526 7.122V52.908C61.526 53.636 61.162 54 60.434 54H56.69C56.43 54 56.17 53.896 55.91 53.688C55.702 53.48 55.598 53.22 55.598 52.908V1.584C55.598 1.272 55.702 1.012 55.91 0.803997C56.17 0.595996 56.43 0.491996 56.69 0.491996H61.916C62.644 0.491996 63.294 0.725996 63.866 1.194L89.84 22.644V1.584C89.84 0.855996 90.204 0.491996 90.932 0.491996H94.676C95.404 0.491996 95.768 0.855996 95.768 1.584V52.908C95.768 53.636 95.404 54 94.676 54H90.932C90.204 54 89.84 53.636 89.84 52.908ZM0.755078 109.3V76.4C0.755078 76.2 0.821745 76.0333 0.955078 75.9C1.12174 75.7667 1.28841 75.7 1.45508 75.7H19.2051C20.2051 75.7 21.1384 75.9 22.0051 76.3C22.9051 76.6667 23.6884 77.1833 24.3551 77.85C25.0217 78.5167 25.5384 79.3 25.9051 80.2C26.3051 81.0667 26.5051 82 26.5051 83V87.45C26.5051 88.45 26.3051 89.4 25.9051 90.3C25.5384 91.2 25.0217 91.9833 24.3551 92.65C23.6884 93.2833 22.9051 93.8 22.0051 94.2C21.1384 94.5667 20.2051 94.75 19.2051 94.75H4.55508V109.3C4.55508 109.767 4.32175 110 3.85508 110H1.45508C1.28841 110 1.12174 109.933 0.955078 109.8C0.821745 109.667 0.755078 109.5 0.755078 109.3ZM4.55508 90.95H19.2051C20.1717 90.95 20.9884 90.6167 21.6551 89.95C22.3551 89.25 22.7051 88.4167 22.7051 87.45V83C22.7051 82.0333 22.3551 81.2167 21.6551 80.55C20.9884 79.85 20.1717 79.5 19.2051 79.5H4.55508V90.95ZM35.6184 102.7V76.4C35.6184 76.2 35.685 76.0333 35.8184 75.9C35.985 75.7667 36.1517 75.7 36.3184 75.7H38.7184C39.185 75.7 39.4184 75.9333 39.4184 76.4V102.7C39.4184 103.667 39.7517 104.5 40.4184 105.2C41.1184 105.867 41.9517 106.2 42.9184 106.2H54.0684C55.035 106.2 55.8517 105.867 56.5184 105.2C57.2184 104.5 57.5684 103.667 57.5684 102.7V76.4C57.5684 75.9333 57.8017 75.7 58.2684 75.7H60.6684C61.135 75.7 61.3684 75.9333 61.3684 76.4V102.7C61.3684 103.7 61.1684 104.65 60.7684 105.55C60.4017 106.45 59.885 107.233 59.2184 107.9C58.5517 108.533 57.7684 109.05 56.8684 109.45C56.0017 109.817 55.0684 110 54.0684 110H42.9184C41.9184 110 40.9684 109.817 40.0684 109.45C39.2017 109.05 38.435 108.533 37.7684 107.9C37.1017 107.233 36.5684 106.45 36.1684 105.55C35.8017 104.65 35.6184 103.7 35.6184 102.7ZM81.4816 109.3V79.5H71.2316C70.765 79.5 70.5316 79.2667 70.5316 78.8V76.4C70.5316 75.9333 70.765 75.7 71.2316 75.7H95.5316C95.9983 75.7 96.2316 75.9333 96.2316 76.4V78.8C96.2316 79.2667 95.9983 79.5 95.5316 79.5H85.2816V109.3C85.2816 109.5 85.1983 109.667 85.0316 109.8C84.8983 109.933 84.7483 110 84.5816 110H82.1816C81.715 110 81.4816 109.767 81.4816 109.3Z" fill="white"/>
</svg>
